<svg width="273" height="44" viewBox="0 0 273 44" fill="none" xmlns="http://www.w3.org/2000/svg">
<path d="M45.5316 29H42.6716L41.5716 25.78H36.5116L35.4116 29H32.5916L37.4116 15.8H40.7116L45.5316 29ZM37.1316 23.74H40.9516L39.0316 17.98L37.1316 23.74ZM47.2095 29V19H49.5895L49.7695 20.96C50.0362 20.2667 50.4229 19.7333 50.9295 19.36C51.4495 18.9867 52.0962 18.8 52.8695 18.8C53.0962 18.8 53.3029 18.82 53.4895 18.86C53.6762 18.9 53.8295 18.9533 53.9495 19.02L53.6295 21.32C53.4962 21.2667 53.3295 21.2267 53.1295 21.2C52.9429 21.1733 52.6962 21.16 52.3895 21.16C51.9895 21.16 51.6029 21.26 51.2295 21.46C50.8562 21.6467 50.5495 21.94 50.3095 22.34C50.0695 22.7267 49.9495 23.22 49.9495 23.82V29H47.2095ZM58.8159 15.94V25.74C58.8159 26.22 58.9359 26.5733 59.1759 26.8C59.4293 27.0133 59.7693 27.12 60.1959 27.12C60.5293 27.12 60.8226 27.0733 61.0759 26.98C61.3293 26.8733 61.5559 26.7333 61.7559 26.56L62.1959 28.38C61.8759 28.6333 61.4759 28.8333 60.9959 28.98C60.5159 29.1267 60.0093 29.2 59.4759 29.2C58.8093 29.2 58.2159 29.1 57.6959 28.9C57.1893 28.7 56.7893 28.38 56.4959 27.94C56.2159 27.5 56.0759 26.9133 56.0759 26.18V16.7L58.8159 15.94ZM62.0159 19V21.04H54.2359V19H62.0159ZM65.2497 17.56C64.6764 17.56 64.2497 17.44 63.9697 17.2C63.6897 16.9467 63.5497 16.58 63.5497 16.1C63.5497 15.6067 63.6897 15.24 63.9697 15C64.2497 14.7467 64.6764 14.62 65.2497 14.62C65.823 14.62 66.2497 14.7467 66.5297 15C66.8097 15.24 66.9497 15.6067 66.9497 16.1C66.9497 16.58 66.8097 16.9467 66.5297 17.2C66.2497 17.44 65.823 17.56 65.2497 17.56ZM66.6097 19V29H63.8697V19H66.6097ZM73.5142 29.2C72.5009 29.2 71.5742 29.02 70.7342 28.66C69.9076 28.3 69.2342 27.7933 68.7142 27.14L70.2942 25.54C70.6142 26.02 71.0409 26.4133 71.5742 26.72C72.1076 27.0267 72.7409 27.18 73.4742 27.18C73.9942 27.18 74.4076 27.1067 74.7142 26.96C75.0342 26.8 75.1942 26.5533 75.1942 26.22C75.1942 26.0067 75.1209 25.8267 74.9742 25.68C74.8276 25.52 74.5342 25.3933 74.0942 25.3L72.3342 24.94C71.1742 24.7 70.3476 24.34 69.8542 23.86C69.3742 23.3667 69.1342 22.7333 69.1342 21.96C69.1342 21.4133 69.2942 20.9 69.6142 20.42C69.9476 19.94 70.4409 19.5533 71.0942 19.26C71.7476 18.9533 72.5609 18.8 73.5342 18.8C74.5342 18.8 75.4009 18.96 76.1342 19.28C76.8809 19.5867 77.4676 20.0467 77.8942 20.66L76.2542 22.26C75.9609 21.7933 75.5742 21.44 75.0942 21.2C74.6276 20.9467 74.1342 20.82 73.6142 20.82C73.2409 20.82 72.9209 20.86 72.6542 20.94C72.3876 21.02 72.1876 21.1333 72.0542 21.28C71.9209 21.4133 71.8542 21.5867 71.8542 21.8C71.8542 22.0133 71.9476 22.2 72.1342 22.36C72.3209 22.5067 72.6609 22.6333 73.1542 22.74L75.1942 23.16C76.1809 23.36 76.8876 23.7 77.3142 24.18C77.7409 24.6467 77.9542 25.2133 77.9542 25.88C77.9542 26.52 77.7809 27.0933 77.4342 27.6C77.1009 28.0933 76.6009 28.4867 75.9342 28.78C75.2809 29.06 74.4742 29.2 73.5142 29.2ZM83.6792 15.94V25.74C83.6792 26.22 83.7992 26.5733 84.0392 26.8C84.2926 27.0133 84.6326 27.12 85.0592 27.12C85.3926 27.12 85.6859 27.0733 85.9392 26.98C86.1926 26.8733 86.4192 26.7333 86.6192 26.56L87.0592 28.38C86.7392 28.6333 86.3392 28.8333 85.8592 28.98C85.3792 29.1267 84.8726 29.2 84.3392 29.2C83.6726 29.2 83.0792 29.1 82.5592 28.9C82.0526 28.7 81.6526 28.38 81.3592 27.94C81.0792 27.5 80.9392 26.9133 80.9392 26.18V16.7L83.6792 15.94ZM86.8792 19V21.04H79.0992V19H86.8792ZM93.373 29.2C92.3196 29.2 91.3996 28.9933 90.613 28.58C89.8396 28.1667 89.2396 27.5733 88.813 26.8C88.3863 26.0267 88.173 25.0933 88.173 24C88.173 22.9067 88.3863 21.9733 88.813 21.2C89.2396 20.4267 89.833 19.8333 90.593 19.42C91.3663 19.0067 92.2463 18.8 93.233 18.8C94.2463 18.8 95.1063 19.0067 95.813 19.42C96.5196 19.82 97.0596 20.3733 97.433 21.08C97.8063 21.7733 97.993 22.5667 97.993 23.46C97.993 23.7267 97.9863 23.98 97.973 24.22C97.9596 24.46 97.9396 24.6733 97.913 24.86H89.933V22.96H96.713L95.393 23.44C95.393 22.6 95.1996 21.9533 94.813 21.5C94.4396 21.0467 93.9063 20.82 93.213 20.82C92.7063 20.82 92.2663 20.94 91.893 21.18C91.533 21.42 91.2596 21.78 91.073 22.26C90.8863 22.7267 90.793 23.32 90.793 24.04C90.793 24.7467 90.893 25.3333 91.093 25.8C91.3063 26.2533 91.5996 26.5933 91.973 26.82C92.3596 27.0467 92.8196 27.16 93.353 27.16C93.9396 27.16 94.413 27.0467 94.773 26.82C95.133 26.5933 95.413 26.28 95.613 25.88L97.793 26.72C97.5796 27.24 97.253 27.6867 96.813 28.06C96.3863 28.4333 95.873 28.72 95.273 28.92C94.6863 29.1067 94.053 29.2 93.373 29.2ZM104.315 29.2C103.302 29.2 102.375 29.02 101.535 28.66C100.708 28.3 100.035 27.7933 99.515 27.14L101.095 25.54C101.415 26.02 101.842 26.4133 102.375 26.72C102.908 27.0267 103.542 27.18 104.275 27.18C104.795 27.18 105.208 27.1067 105.515 26.96C105.835 26.8 105.995 26.5533 105.995 26.22C105.995 26.0067 105.922 25.8267 105.775 25.68C105.628 25.52 105.335 25.3933 104.895 25.3L103.135 24.94C101.975 24.7 101.148 24.34 100.655 23.86C100.175 23.3667 99.935 22.7333 99.935 21.96C99.935 21.4133 100.095 20.9 100.415 20.42C100.748 19.94 101.242 19.5533 101.895 19.26C102.548 18.9533 103.362 18.8 104.335 18.8C105.335 18.8 106.202 18.96 106.935 19.28C107.682 19.5867 108.268 20.0467 108.695 20.66L107.055 22.26C106.762 21.7933 106.375 21.44 105.895 21.2C105.428 20.9467 104.935 20.82 104.415 20.82C104.042 20.82 103.722 20.86 103.455 20.94C103.188 21.02 102.988 21.1333 102.855 21.28C102.722 21.4133 102.655 21.5867 102.655 21.8C102.655 22.0133 102.748 22.2 102.935 22.36C103.122 22.5067 103.462 22.6333 103.955 22.74L105.995 23.16C106.982 23.36 107.688 23.7 108.115 24.18C108.542 24.6467 108.755 25.2133 108.755 25.88C108.755 26.52 108.582 27.0933 108.235 27.6C107.902 28.0933 107.402 28.4867 106.735 28.78C106.082 29.06 105.275 29.2 104.315 29.2Z" fill="white"/>
<path d="M45.5316 29V29.5H46.2464L46.0012 28.8285L45.5316 29ZM42.6716 29L42.1984 29.1616L42.314 29.5H42.6716V29ZM41.5716 25.78L42.0447 25.6184L41.9291 25.28H41.5716V25.78ZM36.5116 25.78V25.28H36.154L36.0384 25.6184L36.5116 25.78ZM35.4116 29V29.5H35.7691L35.8847 29.1616L35.4116 29ZM32.5916 29L32.1219 28.8285L31.8767 29.5H32.5916V29ZM37.4116 15.8V15.3H37.0618L36.9419 15.6285L37.4116 15.8ZM40.7116 15.8L41.1812 15.6285L41.0613 15.3H40.7116V15.8ZM37.1316 23.74L36.6567 23.5834L36.4401 24.24H37.1316V23.74ZM40.9516 23.74V24.24H41.6453L41.4259 23.5819L40.9516 23.74ZM39.0316 17.98L39.5059 17.8219L39.0291 16.3914L38.5567 17.8234L39.0316 17.98ZM45.5316 28.5H42.6716V29.5H45.5316V28.5ZM43.1447 28.8384L42.0447 25.6184L41.0984 25.9416L42.1984 29.1616L43.1447 28.8384ZM41.5716 25.28H36.5116V26.28H41.5716V25.28ZM36.0384 25.6184L34.9384 28.8384L35.8847 29.1616L36.9847 25.9416L36.0384 25.6184ZM35.4116 28.5H32.5916V29.5H35.4116V28.5ZM33.0612 29.1715L37.8812 15.9715L36.9419 15.6285L32.1219 28.8285L33.0612 29.1715ZM37.4116 16.3H40.7116V15.3H37.4116V16.3ZM40.2419 15.9715L45.0619 29.1715L46.0012 28.8285L41.1812 15.6285L40.2419 15.9715ZM37.1316 24.24H40.9516V23.24H37.1316V24.24ZM41.4259 23.5819L39.5059 17.8219L38.5572 18.1381L40.4772 23.8981L41.4259 23.5819ZM38.5567 17.8234L36.6567 23.5834L37.6064 23.8966L39.5064 18.1366L38.5567 17.8234ZM47.2095 29H46.7095V29.5H47.2095V29ZM47.2095 19V18.5H46.7095V19H47.2095ZM49.5895 19L50.0874 18.9543L50.0457 18.5H49.5895V19ZM49.7695 20.96L49.2716 21.0057L50.2362 21.1395L49.7695 20.96ZM50.9295 19.36L50.6379 18.9538L50.6329 18.9575L50.9295 19.36ZM53.9495 19.02L54.4448 19.0889L54.492 18.7494L54.1924 18.5829L53.9495 19.02ZM53.6295 21.32L53.4438 21.7842L54.0368 22.0214L54.1248 21.3889L53.6295 21.32ZM53.1295 21.2L53.0588 21.695L53.0634 21.6956L53.1295 21.2ZM51.2295 21.46L51.4532 21.9074L51.4656 21.9007L51.2295 21.46ZM50.3095 22.34L50.7344 22.6037L50.7383 22.5972L50.3095 22.34ZM49.9495 29V29.5H50.4495V29H49.9495ZM47.7095 29V19H46.7095V29H47.7095ZM47.2095 19.5H49.5895V18.5H47.2095V19.5ZM49.0916 19.0457L49.2716 21.0057L50.2674 20.9143L50.0874 18.9543L49.0916 19.0457ZM50.2362 21.1395C50.4749 20.5189 50.8092 20.0697 51.2261 19.7625L50.6329 18.9575C50.0365 19.3969 49.5975 20.0144 49.3029 20.7805L50.2362 21.1395ZM51.2211 19.7662C51.6397 19.4656 52.1786 19.3 52.8695 19.3V18.3C52.0138 18.3 51.2593 18.5077 50.6379 18.9538L51.2211 19.7662ZM52.8695 19.3C53.0673 19.3 53.2382 19.3175 53.3848 19.3489L53.5943 18.3711C53.3675 18.3225 53.1251 18.3 52.8695 18.3V19.3ZM53.3848 19.3489C53.5405 19.3823 53.6431 19.4217 53.7067 19.4571L54.1924 18.5829C54.016 18.4849 53.8119 18.4177 53.5943 18.3711L53.3848 19.3489ZM53.4543 18.9511L53.1343 21.2511L54.1248 21.3889L54.4448 19.0889L53.4543 18.9511ZM53.8152 20.8558C53.6315 20.7823 53.4215 20.7345 53.1956 20.7044L53.0634 21.6956C53.2376 21.7188 53.3609 21.7511 53.4438 21.7842L53.8152 20.8558ZM53.2002 20.705C52.9803 20.6736 52.7072 20.66 52.3895 20.66V21.66C52.6852 21.66 52.9055 21.6731 53.0588 21.695L53.2002 20.705ZM52.3895 20.66C51.9023 20.66 51.435 20.7827 50.9934 21.0193L51.4656 21.9007C51.7708 21.7373 52.0768 21.66 52.3895 21.66V20.66ZM51.0059 21.0128C50.5378 21.2469 50.1638 21.6111 49.8808 22.0828L50.7383 22.5972C50.9353 22.2689 51.1746 22.0465 51.4531 21.9072L51.0059 21.0128ZM49.8847 22.0763C49.5822 22.5636 49.4495 23.1558 49.4495 23.82H50.4495C50.4495 23.2842 50.5568 22.8897 50.7344 22.6037L49.8847 22.0763ZM49.4495 23.82V29H50.4495V23.82H49.4495ZM49.9495 28.5H47.2095V29.5H49.9495V28.5ZM58.8159 15.94H59.3159V15.2824L58.6823 15.4582L58.8159 15.94ZM59.1759 26.8L58.8326 27.1635L58.843 27.1733L58.8539 27.1825L59.1759 26.8ZM61.0759 26.98L61.2488 27.4492L61.2595 27.4452L61.27 27.4408L61.0759 26.98ZM61.7559 26.56L62.2419 26.4425L62.049 25.6444L61.4285 26.1822L61.7559 26.56ZM62.1959 28.38L62.5063 28.772L62.7571 28.5735L62.6819 28.2625L62.1959 28.38ZM60.9959 28.98L60.8498 28.5018L60.9959 28.98ZM57.6959 28.9L57.5123 29.3651L57.5164 29.3667L57.6959 28.9ZM56.4959 27.94L56.074 28.2085L56.0799 28.2174L56.4959 27.94ZM56.0759 16.7L55.9423 16.2182L55.5759 16.3198V16.7H56.0759ZM62.0159 19H62.5159V18.5H62.0159V19ZM62.0159 21.04V21.54H62.5159V21.04H62.0159ZM54.2359 21.04H53.7359V21.54H54.2359V21.04ZM54.2359 19V18.5H53.7359V19H54.2359ZM58.3159 15.94V25.74H59.3159V15.94H58.3159ZM58.3159 25.74C58.3159 26.2945 58.4545 26.8064 58.8326 27.1635L59.5192 26.4365C59.4173 26.3402 59.3159 26.1455 59.3159 25.74H58.3159ZM58.8539 27.1825C59.2207 27.4914 59.6861 27.62 60.1959 27.62V26.62C59.8525 26.62 59.6378 26.5353 59.498 26.4175L58.8539 27.1825ZM60.1959 27.62C60.5749 27.62 60.9288 27.567 61.2488 27.4492L60.9031 26.5108C60.7164 26.5796 60.4836 26.62 60.1959 26.62V27.62ZM61.27 27.4408C61.57 27.3145 61.8421 27.147 62.0834 26.9378L61.4285 26.1822C61.2698 26.3197 61.0886 26.4322 60.8819 26.5192L61.27 27.4408ZM61.2699 26.6775L61.7099 28.4975L62.6819 28.2625L62.2419 26.4425L61.2699 26.6775ZM61.8856 27.988C61.6243 28.1948 61.2835 28.3693 60.8498 28.5018L61.142 29.4582C61.6684 29.2973 62.1276 29.0718 62.5063 28.772L61.8856 27.988ZM60.8498 28.5018C60.4201 28.6331 59.9629 28.7 59.4759 28.7V29.7C60.0557 29.7 60.6118 29.6202 61.142 29.4582L60.8498 28.5018ZM59.4759 28.7C58.8589 28.7 58.3281 28.6074 57.8754 28.4333L57.5164 29.3667C58.1038 29.5926 58.7597 29.7 59.4759 29.7V28.7ZM57.8795 28.4349C57.4646 28.2711 57.147 28.0152 56.912 27.6626L56.0799 28.2174C56.4316 28.7448 56.9139 29.1289 57.5124 29.3651L57.8795 28.4349ZM56.9178 27.6716C56.7056 27.3381 56.5759 26.8552 56.5759 26.18H55.5759C55.5759 26.9715 55.7263 27.6619 56.0741 28.2084L56.9178 27.6716ZM56.5759 26.18V16.7H55.5759V26.18H56.5759ZM56.2096 17.1818L58.9496 16.4218L58.6823 15.4582L55.9423 16.2182L56.2096 17.1818ZM61.5159 19V21.04H62.5159V19H61.5159ZM62.0159 20.54H54.2359V21.54H62.0159V20.54ZM54.7359 21.04V19H53.7359V21.04H54.7359ZM54.2359 19.5H62.0159V18.5H54.2359V19.5ZM63.9697 17.2L63.6341 17.5709L63.6443 17.5796L63.9697 17.2ZM63.9697 15L64.2952 15.3798L64.3051 15.3708L63.9697 15ZM66.5297 15L66.1941 15.3709L66.2043 15.3796L66.5297 15ZM66.5297 17.2L66.8552 17.5798L66.8651 17.5708L66.5297 17.2ZM66.6097 19H67.1097V18.5H66.6097V19ZM66.6097 29V29.5H67.1097V29H66.6097ZM63.8697 29H63.3697V29.5H63.8697V29ZM63.8697 19V18.5H63.3697V19H63.8697ZM65.2497 17.06C64.7326 17.06 64.4459 16.9497 64.2951 16.8204L63.6443 17.5796C64.0534 17.9303 64.6201 18.06 65.2497 18.06V17.06ZM64.3051 16.8292C64.1568 16.695 64.0497 16.4796 64.0497 16.1H63.0497C63.0497 16.6804 63.2225 17.1983 63.6342 17.5708L64.3051 16.8292ZM64.0497 16.1C64.0497 15.7005 64.1602 15.4953 64.2951 15.3796L63.6443 14.6204C63.2192 14.9847 63.0497 15.5129 63.0497 16.1H64.0497ZM64.3051 15.3708C64.4556 15.2346 64.738 15.12 65.2497 15.12V14.12C64.6147 14.12 64.0437 14.2587 63.6342 14.6292L64.3051 15.3708ZM65.2497 15.12C65.7613 15.12 66.0437 15.2346 66.1942 15.3708L66.8651 14.6292C66.4556 14.2587 65.8847 14.12 65.2497 14.12V15.12ZM66.2043 15.3796C66.3392 15.4953 66.4497 15.7005 66.4497 16.1H67.4497C67.4497 15.5129 67.2802 14.9847 66.8551 14.6204L66.2043 15.3796ZM66.4497 16.1C66.4497 16.4796 66.3425 16.695 66.1942 16.8292L66.8651 17.5708C67.2768 17.1983 67.4497 16.6804 67.4497 16.1H66.4497ZM66.2043 16.8204C66.0534 16.9497 65.7667 17.06 65.2497 17.06V18.06C65.8793 18.06 66.4459 17.9303 66.8551 17.5796L66.2043 16.8204ZM66.1097 19V29H67.1097V19H66.1097ZM66.6097 28.5H63.8697V29.5H66.6097V28.5ZM64.3697 29V19H63.3697V29H64.3697ZM63.8697 19.5H66.6097V18.5H63.8697V19.5ZM70.7342 28.66L70.5346 29.1184L70.5373 29.1196L70.7342 28.66ZM68.7142 27.14L68.3584 26.7887L68.0468 27.1043L68.323 27.4514L68.7142 27.14ZM70.2942 25.54L70.7102 25.2626L70.3698 24.7519L69.9384 25.1887L70.2942 25.54ZM71.5742 26.72L71.8235 26.2865L71.5742 26.72ZM74.7142 26.96L74.93 27.4111L74.9378 27.4072L74.7142 26.96ZM74.9742 25.68L74.6056 26.0179L74.613 26.0259L74.6207 26.0336L74.9742 25.68ZM74.0942 25.3L74.198 24.8109L74.1944 24.8101L74.0942 25.3ZM72.3342 24.94L72.2329 25.4296L72.234 25.4299L72.3342 24.94ZM69.8542 23.86L69.4957 24.2088L69.5055 24.2184L69.8542 23.86ZM69.6142 20.42L69.2035 20.1348L69.1982 20.1426L69.6142 20.42ZM71.0942 19.26L71.299 19.7162L71.3067 19.7126L71.0942 19.26ZM76.1342 19.28L75.9342 19.7384L75.9443 19.7425L76.1342 19.28ZM77.8942 20.66L78.2434 21.0179L78.5465 20.7221L78.3047 20.3745L77.8942 20.66ZM76.2542 22.26L75.8309 22.5261L76.1603 23.0502L76.6034 22.6179L76.2542 22.26ZM75.0942 21.2L74.8557 21.6394L74.8631 21.6434L74.8706 21.6472L75.0942 21.2ZM72.6542 20.94L72.5105 20.4611L72.6542 20.94ZM72.0542 21.28L72.4078 21.6336L72.4162 21.6251L72.4242 21.6163L72.0542 21.28ZM72.1342 22.36L71.8088 22.7396L71.8169 22.7466L71.8253 22.7532L72.1342 22.36ZM73.1542 22.74L73.0485 23.2287L73.0534 23.2297L73.1542 22.74ZM75.1942 23.16L75.0934 23.6497L75.0949 23.65L75.1942 23.16ZM77.3142 24.18L76.9405 24.5122L76.9452 24.5174L77.3142 24.18ZM77.4342 27.6L77.0216 27.3177L77.0199 27.3201L77.4342 27.6ZM75.9342 28.78L76.1312 29.2396L76.1356 29.2377L75.9342 28.78ZM73.5142 28.7C72.5612 28.7 71.7025 28.531 70.9312 28.2004L70.5373 29.1196C71.4459 29.509 72.4406 29.7 73.5142 29.7V28.7ZM70.9339 28.2016C70.176 27.8715 69.5705 27.413 69.1054 26.8286L68.323 27.4514C68.8979 28.1737 69.6391 28.7285 70.5346 29.1184L70.9339 28.2016ZM69.07 27.4913L70.65 25.8913L69.9384 25.1887L68.3584 26.7887L69.07 27.4913ZM69.8782 25.8174C70.2438 26.3658 70.7293 26.8109 71.325 27.1535L71.8235 26.2865C71.3525 26.0157 70.9846 25.6742 70.7102 25.2626L69.8782 25.8174ZM71.325 27.1535C71.9475 27.5114 72.6703 27.68 73.4742 27.68V26.68C72.8115 26.68 72.2676 26.5419 71.8235 26.2865L71.325 27.1535ZM73.4742 27.68C74.0331 27.68 74.5297 27.6025 74.9299 27.4111L74.4985 26.5089C74.2854 26.6109 73.9554 26.68 73.4742 26.68V27.68ZM74.9378 27.4072C75.1603 27.296 75.3557 27.1399 75.4937 26.9271C75.633 26.7123 75.6942 26.4699 75.6942 26.22H74.6942C74.6942 26.3034 74.6754 26.3511 74.6547 26.3829C74.6328 26.4168 74.5881 26.464 74.4906 26.5128L74.9378 27.4072ZM75.6942 26.22C75.6942 25.8783 75.5712 25.5698 75.3278 25.3264L74.6207 26.0336C74.6706 26.0835 74.6942 26.135 74.6942 26.22H75.6942ZM75.3428 25.3421C75.0824 25.058 74.6506 24.9069 74.198 24.8109L73.9905 25.7891C74.4179 25.8798 74.5727 25.982 74.6056 26.0179L75.3428 25.3421ZM74.1944 24.8101L72.4344 24.4501L72.234 25.4299L73.994 25.7899L74.1944 24.8101ZM72.4355 24.4504C71.3095 24.2174 70.5947 23.8828 70.2029 23.5016L69.5055 24.2184C70.1004 24.7972 71.039 25.1826 72.2329 25.4296L72.4355 24.4504ZM70.2126 23.5113C69.8349 23.1232 69.6342 22.6206 69.6342 21.96H68.6342C68.6342 22.8461 68.9135 23.6102 69.4959 24.2087L70.2126 23.5113ZM69.6342 21.96C69.6342 21.5176 69.7618 21.1 70.0302 20.6973L69.1982 20.1426C68.8266 20.7 68.6342 21.309 68.6342 21.96H69.6342ZM70.0249 20.7052C70.2959 20.315 70.7099 19.9806 71.299 19.7161L70.8894 18.8039C70.1719 19.126 69.5992 19.565 69.2035 20.1348L70.0249 20.7052ZM71.3067 19.7126C71.8746 19.446 72.61 19.3 73.5342 19.3V18.3C72.5117 18.3 71.6205 18.4606 70.8818 18.8074L71.3067 19.7126ZM73.5342 19.3C74.4821 19.3 75.2776 19.4518 75.9342 19.7383L76.3342 18.8217C75.5241 18.4682 74.5864 18.3 73.5342 18.3V19.3ZM75.9443 19.7425C76.6094 20.0157 77.1165 20.4175 77.4838 20.9455L78.3047 20.3745C77.8186 19.6758 77.1524 19.1576 76.3242 18.8175L75.9443 19.7425ZM77.5451 20.3021L75.9051 21.9021L76.6034 22.6179L78.2434 21.0179L77.5451 20.3021ZM76.6775 21.9939C76.3369 21.4519 75.882 21.0349 75.3178 20.7528L74.8706 21.6472C75.2664 21.8451 75.5849 22.1347 75.8309 22.5261L76.6775 21.9939ZM75.3328 20.7606C74.7945 20.4684 74.2194 20.32 73.6142 20.32V21.32C74.0491 21.32 74.4606 21.425 74.8557 21.6394L75.3328 20.7606ZM73.6142 20.32C73.2077 20.32 72.8366 20.3633 72.5105 20.4611L72.7979 21.4189C73.0052 21.3567 73.2741 21.32 73.6142 21.32V20.32ZM72.5105 20.4611C72.1904 20.5571 71.8986 20.7079 71.6842 20.9437L72.4242 21.6163C72.4766 21.5587 72.5847 21.4829 72.7979 21.4189L72.5105 20.4611ZM71.7007 20.9264C71.4609 21.1662 71.3542 21.473 71.3542 21.8H72.3542C72.3542 21.7003 72.3808 21.6605 72.4078 21.6336L71.7007 20.9264ZM71.3542 21.8C71.3542 22.1823 71.5301 22.5007 71.8088 22.7396L72.4596 21.9804C72.365 21.8993 72.3542 21.8443 72.3542 21.8H71.3542ZM71.8253 22.7532C72.1081 22.9754 72.5464 23.1201 73.0486 23.2287L73.2599 22.2513C72.7754 22.1465 72.5337 22.038 72.4431 21.9668L71.8253 22.7532ZM73.0534 23.2297L75.0934 23.6497L75.295 22.6703L73.255 22.2503L73.0534 23.2297ZM75.0949 23.65C76.0317 23.8399 76.6164 24.1475 76.9405 24.5122L77.6879 23.8478C77.1588 23.2525 76.3301 22.8801 75.2935 22.67L75.0949 23.65ZM76.9452 24.5174C77.2827 24.8865 77.4542 25.3308 77.4542 25.88H78.4542C78.4542 25.0959 78.1991 24.4068 77.6832 23.8426L76.9452 24.5174ZM77.4542 25.88C77.4542 26.4238 77.3088 26.8978 77.0216 27.3177L77.8469 27.8823C78.253 27.2888 78.4542 26.6162 78.4542 25.88H77.4542ZM77.0199 27.3201C76.7501 27.7194 76.3325 28.0585 75.7328 28.3223L76.1356 29.2377C76.8692 28.9149 77.4517 28.4672 77.8485 27.8799L77.0199 27.3201ZM75.7373 28.3204C75.1639 28.5662 74.4289 28.7 73.5142 28.7V29.7C74.5196 29.7 75.3979 29.5538 76.1312 29.2396L75.7373 28.3204ZM83.6792 15.94H84.1792V15.2824L83.5456 15.4582L83.6792 15.94ZM84.0392 26.8L83.6959 27.1635L83.7063 27.1733L83.7171 27.1825L84.0392 26.8ZM85.9392 26.98L86.1121 27.4492L86.1228 27.4452L86.1332 27.4408L85.9392 26.98ZM86.6192 26.56L87.1052 26.4425L86.9123 25.6444L86.2918 26.1822L86.6192 26.56ZM87.0592 28.38L87.3696 28.772L87.6204 28.5735L87.5452 28.2625L87.0592 28.38ZM85.8592 28.98L85.7131 28.5018L85.8592 28.98ZM82.5592 28.9L82.3756 29.3651L82.3797 29.3667L82.5592 28.9ZM81.3592 27.94L80.9373 28.2085L80.9432 28.2174L81.3592 27.94ZM80.9392 16.7L80.8056 16.2182L80.4392 16.3198V16.7H80.9392ZM86.8792 19H87.3792V18.5H86.8792V19ZM86.8792 21.04V21.54H87.3792V21.04H86.8792ZM79.0992 21.04H78.5992V21.54H79.0992V21.04ZM79.0992 19V18.5H78.5992V19H79.0992ZM83.1792 15.94V25.74H84.1792V15.94H83.1792ZM83.1792 25.74C83.1792 26.2945 83.3178 26.8064 83.6959 27.1635L84.3825 26.4365C84.2806 26.3402 84.1792 26.1455 84.1792 25.74H83.1792ZM83.7171 27.1825C84.084 27.4914 84.5493 27.62 85.0592 27.62V26.62C84.7158 26.62 84.5011 26.5353 84.3613 26.4175L83.7171 27.1825ZM85.0592 27.62C85.4382 27.62 85.7921 27.567 86.1121 27.4492L85.7664 26.5108C85.5797 26.5796 85.3469 26.62 85.0592 26.62V27.62ZM86.1332 27.4408C86.4333 27.3145 86.7053 27.147 86.9467 26.9378L86.2918 26.1822C86.1331 26.3197 85.9518 26.4322 85.7452 26.5192L86.1332 27.4408ZM86.1332 26.6775L86.5732 28.4975L87.5452 28.2625L87.1052 26.4425L86.1332 26.6775ZM86.7489 27.988C86.4876 28.1948 86.1467 28.3693 85.7131 28.5018L86.0053 29.4582C86.5317 29.2973 86.9909 29.0718 87.3696 28.772L86.7489 27.988ZM85.7131 28.5018C85.2833 28.6331 84.8261 28.7 84.3392 28.7V29.7C84.919 29.7 85.4751 29.6202 86.0053 29.4582L85.7131 28.5018ZM84.3392 28.7C83.7222 28.7 83.1914 28.6074 82.7387 28.4333L82.3797 29.3667C82.967 29.5926 83.623 29.7 84.3392 29.7V28.7ZM82.7428 28.4349C82.3279 28.2711 82.0103 28.0152 81.7752 27.6626L80.9432 28.2174C81.2948 28.7448 81.7772 29.1289 82.3756 29.3651L82.7428 28.4349ZM81.7811 27.6716C81.5689 27.3381 81.4392 26.8552 81.4392 26.18H80.4392C80.4392 26.9715 80.5896 27.6619 80.9374 28.2084L81.7811 27.6716ZM81.4392 26.18V16.7H80.4392V26.18H81.4392ZM81.0729 17.1818L83.8129 16.4218L83.5456 15.4582L80.8056 16.2182L81.0729 17.1818ZM86.3792 19V21.04H87.3792V19H86.3792ZM86.8792 20.54H79.0992V21.54H86.8792V20.54ZM79.5992 21.04V19H78.5992V21.04H79.5992ZM79.0992 19.5H86.8792V18.5H79.0992V19.5ZM90.613 28.58L90.3773 29.021L90.3804 29.0226L90.613 28.58ZM88.813 26.8L89.2508 26.5585L88.813 26.8ZM88.813 21.2L89.2508 21.4415L88.813 21.2ZM90.593 19.42L90.3573 18.979L90.3541 18.9808L90.593 19.42ZM95.813 19.42L95.5605 19.8516L95.5667 19.8551L95.813 19.42ZM97.433 21.08L96.9909 21.3136L96.9927 21.317L97.433 21.08ZM97.913 24.86V25.36H98.3466L98.4079 24.9307L97.913 24.86ZM89.933 24.86H89.433V25.36H89.933V24.86ZM89.933 22.96V22.46H89.433V22.96H89.933ZM96.713 22.96L96.8838 23.4299L96.713 22.46V22.96ZM95.393 23.44H94.893V24.1538L95.5638 23.9099L95.393 23.44ZM94.813 21.5L94.4269 21.8179L94.4325 21.8245L94.813 21.5ZM91.893 21.18L91.6226 20.7594L91.6156 20.764L91.893 21.18ZM91.073 22.26L91.5372 22.4457L91.539 22.4412L91.073 22.26ZM91.093 25.8L90.6334 25.997L90.6368 26.005L90.6406 26.0129L91.093 25.8ZM91.973 26.82L91.7134 27.2474L91.7201 27.2513L91.973 26.82ZM95.613 25.88L95.7927 25.4134L95.3689 25.2501L95.1658 25.6564L95.613 25.88ZM97.793 26.72L98.2556 26.9098L98.4495 26.4371L97.9727 26.2534L97.793 26.72ZM96.813 28.06L96.4894 27.6787L96.4837 27.6837L96.813 28.06ZM95.273 28.92L95.4246 29.3965L95.4311 29.3943L95.273 28.92ZM93.373 28.7C92.3857 28.7 91.5483 28.5066 90.8455 28.1374L90.3804 29.0226C91.251 29.48 92.2536 29.7 93.373 29.7V28.7ZM90.8487 28.139C90.1612 27.7716 89.6311 27.2478 89.2508 26.5585L88.3752 27.0415C88.8482 27.8988 89.5181 28.5617 90.3773 29.021L90.8487 28.139ZM89.2508 26.5585C88.8735 25.8747 88.673 25.0287 88.673 24H87.673C87.673 25.158 87.8991 26.1786 88.3752 27.0415L89.2508 26.5585ZM88.673 24C88.673 22.9713 88.8735 22.1253 89.2508 21.4415L88.3752 20.9585C87.8991 21.8214 87.673 22.842 87.673 24H88.673ZM89.2508 21.4415C89.6324 20.7499 90.1575 20.226 90.8319 19.8592L90.3541 18.9808C89.5084 19.4407 88.8469 20.1035 88.3752 20.9585L89.2508 21.4415ZM90.8287 19.861C91.5208 19.491 92.3181 19.3 93.233 19.3V18.3C92.1745 18.3 91.2118 18.5223 90.3573 18.979L90.8287 19.861ZM93.233 19.3C94.1785 19.3 94.9467 19.4926 95.5605 19.8516L96.0654 18.9884C95.2659 18.5208 94.3141 18.3 93.233 18.3V19.3ZM95.5667 19.8551C96.1916 20.2088 96.6629 20.6928 96.9909 21.3136L97.8751 20.8464C97.4563 20.0538 96.8477 19.4312 96.0593 18.9849L95.5667 19.8551ZM96.9927 21.317C97.3218 21.9282 97.493 22.6381 97.493 23.46H98.493C98.493 22.4952 98.2908 21.6184 97.8732 20.8429L96.9927 21.317ZM97.493 23.46C97.493 23.7184 97.4865 23.9624 97.4737 24.1923L98.4722 24.2477C98.4861 23.9976 98.493 23.7349 98.493 23.46H97.493ZM97.4737 24.1923C97.461 24.4216 97.4422 24.6201 97.418 24.7893L98.4079 24.9307C98.4371 24.7265 98.4583 24.4984 98.4722 24.2477L97.4737 24.1923ZM97.913 24.36H89.933V25.36H97.913V24.36ZM90.433 24.86V22.96H89.433V24.86H90.433ZM89.933 23.46H96.713V22.46H89.933V23.46ZM96.5421 22.4901L95.2221 22.9701L95.5638 23.9099L96.8838 23.4299L96.5421 22.4901ZM95.893 23.44C95.893 22.5293 95.6836 21.7503 95.1934 21.1755L94.4325 21.8245C94.7156 22.1564 94.893 22.6707 94.893 23.44H95.893ZM95.1989 21.1821C94.7131 20.5922 94.0257 20.32 93.213 20.32V21.32C93.7869 21.32 94.1662 21.5012 94.427 21.8179L95.1989 21.1821ZM93.213 20.32C92.6244 20.32 92.0875 20.4605 91.6226 20.7594L92.1633 21.6006C92.4451 21.4195 92.7882 21.32 93.213 21.32V20.32ZM91.6156 20.764C91.1548 21.0712 90.8236 21.5216 90.607 22.0788L91.539 22.4412C91.6956 22.0384 91.9111 21.7688 92.1703 21.596L91.6156 20.764ZM90.6087 22.0743C90.3906 22.6197 90.293 23.2817 90.293 24.04H91.293C91.293 23.3583 91.382 22.8336 91.5372 22.4457L90.6087 22.0743ZM90.293 24.04C90.293 24.7896 90.3985 25.4488 90.6334 25.997L91.5525 25.603C91.3875 25.2179 91.293 24.7037 91.293 24.04H90.293ZM90.6406 26.0129C90.8894 26.5417 91.2443 26.9625 91.7135 27.2474L92.2325 26.3926C91.955 26.2241 91.7232 25.965 91.5454 25.5871L90.6406 26.0129ZM91.7201 27.2513C92.1969 27.5308 92.7477 27.66 93.353 27.66V26.66C92.8916 26.66 92.5224 26.5625 92.2258 26.3887L91.7201 27.2513ZM93.353 27.66C93.9995 27.66 94.5748 27.5356 95.0394 27.2431L94.5066 26.3969C94.2512 26.5577 93.8798 26.66 93.353 26.66V27.66ZM95.0394 27.2431C95.4808 26.9652 95.8215 26.581 96.0602 26.1036L95.1658 25.6564C95.0045 25.979 94.7851 26.2215 94.5066 26.3969L95.0394 27.2431ZM95.4332 26.3466L97.6132 27.1866L97.9727 26.2534L95.7927 25.4134L95.4332 26.3466ZM97.3304 26.5302C97.1483 26.9742 96.8701 27.3558 96.4895 27.6787L97.1365 28.4413C97.6358 28.0176 98.011 27.5058 98.2556 26.9098L97.3304 26.5302ZM96.4837 27.6837C96.1125 28.0085 95.6591 28.2642 95.1149 28.4457L95.4311 29.3943C96.0868 29.1758 96.6601 28.8581 97.1422 28.4363L96.4837 27.6837ZM95.1214 28.4435C94.5886 28.6131 94.0069 28.7 93.373 28.7V29.7C94.0991 29.7 94.784 29.6003 95.4246 29.3965L95.1214 28.4435ZM101.535 28.66L101.335 29.1184L101.338 29.1196L101.535 28.66ZM99.515 27.14L99.1592 26.7887L98.8475 27.1043L99.1238 27.4514L99.515 27.14ZM101.095 25.54L101.511 25.2626L101.171 24.7519L100.739 25.1887L101.095 25.54ZM102.375 26.72L102.624 26.2865L102.375 26.72ZM105.515 26.96L105.731 27.4111L105.739 27.4072L105.515 26.96ZM105.775 25.68L105.406 26.0179L105.414 26.0259L105.421 26.0336L105.775 25.68ZM104.895 25.3L104.999 24.8109L104.995 24.8101L104.895 25.3ZM103.135 24.94L103.034 25.4296L103.035 25.4299L103.135 24.94ZM100.655 23.86L100.297 24.2088L100.306 24.2184L100.655 23.86ZM100.415 20.42L100.004 20.1348L99.999 20.1426L100.415 20.42ZM101.895 19.26L102.1 19.7162L102.107 19.7126L101.895 19.26ZM106.935 19.28L106.735 19.7384L106.745 19.7425L106.935 19.28ZM108.695 20.66L109.044 21.0179L109.347 20.7221L109.105 20.3745L108.695 20.66ZM107.055 22.26L106.632 22.5261L106.961 23.0502L107.404 22.6179L107.055 22.26ZM105.895 21.2L105.656 21.6394L105.664 21.6434L105.671 21.6472L105.895 21.2ZM103.455 20.94L103.311 20.4611L103.455 20.94ZM102.855 21.28L103.209 21.6336L103.217 21.6251L103.225 21.6163L102.855 21.28ZM102.935 22.36L102.61 22.7396L102.618 22.7466L102.626 22.7532L102.935 22.36ZM103.955 22.74L103.849 23.2287L103.854 23.2297L103.955 22.74ZM105.995 23.16L105.894 23.6497L105.896 23.65L105.995 23.16ZM108.115 24.18L107.741 24.5122L107.746 24.5174L108.115 24.18ZM108.235 27.6L107.822 27.3177L107.821 27.3201L108.235 27.6ZM106.735 28.78L106.932 29.2396L106.936 29.2377L106.735 28.78ZM104.315 28.7C103.362 28.7 102.503 28.531 101.732 28.2004L101.338 29.1196C102.247 29.509 103.241 29.7 104.315 29.7V28.7ZM101.735 28.2016C100.977 27.8715 100.371 27.413 99.9062 26.8286L99.1238 27.4514C99.6987 28.1737 100.44 28.7285 101.335 29.1184L101.735 28.2016ZM99.8708 27.4913L101.451 25.8913L100.739 25.1887L99.1592 26.7887L99.8708 27.4913ZM100.679 25.8174C101.045 26.3658 101.53 26.8109 102.126 27.1535L102.624 26.2865C102.153 26.0157 101.785 25.6742 101.511 25.2626L100.679 25.8174ZM102.126 27.1535C102.748 27.5114 103.471 27.68 104.275 27.68V26.68C103.612 26.68 103.068 26.5419 102.624 26.2865L102.126 27.1535ZM104.275 27.68C104.834 27.68 105.331 27.6025 105.731 27.4111L105.299 26.5089C105.086 26.6109 104.756 26.68 104.275 26.68V27.68ZM105.739 27.4072C105.961 27.296 106.156 27.1399 106.294 26.9271C106.434 26.7123 106.495 26.4699 106.495 26.22H105.495C105.495 26.3034 105.476 26.3511 105.456 26.3829C105.434 26.4168 105.389 26.464 105.291 26.5128L105.739 27.4072ZM106.495 26.22C106.495 25.8783 106.372 25.5698 106.129 25.3264L105.421 26.0336C105.471 26.0835 105.495 26.135 105.495 26.22H106.495ZM106.144 25.3421C105.883 25.058 105.451 24.9069 104.999 24.8109L104.791 25.7891C105.219 25.8798 105.374 25.982 105.406 26.0179L106.144 25.3421ZM104.995 24.8101L103.235 24.4501L103.035 25.4299L104.795 25.7899L104.995 24.8101ZM103.236 24.4504C102.11 24.2174 101.395 23.8828 101.004 23.5016L100.306 24.2184C100.901 24.7972 101.84 25.1826 103.034 25.4296L103.236 24.4504ZM101.013 23.5113C100.636 23.1232 100.435 22.6206 100.435 21.96H99.435C99.435 22.8461 99.7143 23.6102 100.297 24.2087L101.013 23.5113ZM100.435 21.96C100.435 21.5176 100.563 21.1 100.831 20.6973L99.999 20.1426C99.6274 20.7 99.435 21.309 99.435 21.96H100.435ZM100.826 20.7052C101.097 20.315 101.511 19.9806 102.1 19.7161L101.69 18.8039C100.973 19.126 100.4 19.565 100.004 20.1348L100.826 20.7052ZM102.107 19.7126C102.675 19.446 103.411 19.3 104.335 19.3V18.3C103.313 18.3 102.421 18.4606 101.683 18.8074L102.107 19.7126ZM104.335 19.3C105.283 19.3 106.078 19.4518 106.735 19.7383L107.135 18.8217C106.325 18.4682 105.387 18.3 104.335 18.3V19.3ZM106.745 19.7425C107.41 20.0157 107.917 20.4175 108.285 20.9455L109.105 20.3745C108.619 19.6758 107.953 19.1576 107.125 18.8175L106.745 19.7425ZM108.346 20.3021L106.706 21.9021L107.404 22.6179L109.044 21.0179L108.346 20.3021ZM107.478 21.9939C107.138 21.4519 106.683 21.0349 106.119 20.7528L105.671 21.6472C106.067 21.8451 106.386 22.1347 106.632 22.5261L107.478 21.9939ZM106.134 20.7606C105.595 20.4684 105.02 20.32 104.415 20.32V21.32C104.85 21.32 105.261 21.425 105.656 21.6394L106.134 20.7606ZM104.415 20.32C104.008 20.32 103.637 20.3633 103.311 20.4611L103.599 21.4189C103.806 21.3567 104.075 21.32 104.415 21.32V20.32ZM103.311 20.4611C102.991 20.5571 102.699 20.7079 102.485 20.9437L103.225 21.6163C103.277 21.5587 103.385 21.4829 103.599 21.4189L103.311 20.4611ZM102.501 20.9264C102.262 21.1662 102.155 21.473 102.155 21.8H103.155C103.155 21.7003 103.182 21.6605 103.209 21.6336L102.501 20.9264ZM102.155 21.8C102.155 22.1823 102.331 22.5007 102.61 22.7396L103.26 21.9804C103.166 21.8993 103.155 21.8443 103.155 21.8H102.155ZM102.626 22.7532C102.909 22.9754 103.347 23.1201 103.849 23.2287L104.061 22.2513C103.576 22.1465 103.334 22.038 103.244 21.9668L102.626 22.7532ZM103.854 23.2297L105.894 23.6497L106.096 22.6703L104.056 22.2503L103.854 23.2297ZM105.896 23.65C106.832 23.8399 107.417 24.1475 107.741 24.5122L108.489 23.8478C107.96 23.2525 107.131 22.8801 106.094 22.67L105.896 23.65ZM107.746 24.5174C108.084 24.8865 108.255 25.3308 108.255 25.88H109.255C109.255 25.0959 109 24.4068 108.484 23.8426L107.746 24.5174ZM108.255 25.88C108.255 26.4238 108.11 26.8978 107.822 27.3177L108.648 27.8823C109.054 27.2888 109.255 26.6162 109.255 25.88H108.255ZM107.821 27.3201C107.551 27.7194 107.133 28.0585 106.534 28.3223L106.936 29.2377C107.67 28.9149 108.252 28.4672 108.649 27.8799L107.821 27.3201ZM106.538 28.3204C105.965 28.5662 105.23 28.7 104.315 28.7V29.7C105.32 29.7 106.199 29.5538 106.932 29.2396L106.538 28.3204Z" fill="#111827"/>
<path d="M133.5 20L145.5 17M133.5 29V16L145.5 13V26L133.5 29ZM133.5 29C133.5 30.105 132.157 31 130.5 31C128.843 31 127.5 30.105 127.5 29C127.5 27.895 128.843 27 130.5 27C132.157 27 133.5 27.895 133.5 29ZM145.5 26C145.5 27.105 144.157 28 142.5 28C140.843 28 139.5 27.105 139.5 26C139.5 24.895 140.843 24 142.5 24C144.157 24 145.5 24.895 145.5 26Z" stroke="#111827" stroke-width="2" stroke-linecap="round" stroke-linejoin="round"/>
<path d="M170.04 15.6C171.24 15.6 172.293 15.8067 173.2 16.22C174.107 16.6333 174.88 17.2467 175.52 18.06L173.98 19.84C173.433 19.1467 172.833 18.64 172.18 18.32C171.54 17.9867 170.793 17.82 169.94 17.82C169.38 17.82 168.913 17.8933 168.54 18.04C168.18 18.1867 167.913 18.38 167.74 18.62C167.58 18.86 167.5 19.1267 167.5 19.42C167.5 19.78 167.64 20.0867 167.92 20.34C168.2 20.58 168.68 20.78 169.36 20.94L171.82 21.5C173.127 21.7933 174.06 22.2333 174.62 22.82C175.193 23.3933 175.48 24.14 175.48 25.06C175.48 25.9267 175.253 26.6733 174.8 27.3C174.347 27.9133 173.713 28.3867 172.9 28.72C172.087 29.04 171.153 29.2 170.1 29.2C169.18 29.2 168.333 29.0933 167.56 28.88C166.8 28.6533 166.12 28.3467 165.52 27.96C164.92 27.5733 164.42 27.1267 164.02 26.62L165.58 24.76C165.887 25.1867 166.267 25.5667 166.72 25.9C167.173 26.2333 167.687 26.5 168.26 26.7C168.847 26.8867 169.46 26.98 170.1 26.98C170.647 26.98 171.107 26.92 171.48 26.8C171.867 26.6667 172.153 26.4867 172.34 26.26C172.54 26.02 172.64 25.7333 172.64 25.4C172.64 25.0533 172.52 24.76 172.28 24.52C172.053 24.2667 171.627 24.0733 171 23.94L168.32 23.34C167.547 23.1533 166.88 22.9133 166.32 22.62C165.773 22.3133 165.353 21.9267 165.06 21.46C164.78 20.98 164.64 20.4133 164.64 19.76C164.64 18.9733 164.853 18.2667 165.28 17.64C165.707 17.0133 166.32 16.52 167.12 16.16C167.933 15.7867 168.907 15.6 170.04 15.6ZM182.371 18.8C183.384 18.8 184.271 19.0067 185.031 19.42C185.804 19.8333 186.404 20.4267 186.831 21.2C187.271 21.9733 187.491 22.9067 187.491 24C187.491 25.08 187.271 26.0133 186.831 26.8C186.404 27.5733 185.804 28.1667 185.031 28.58C184.271 28.9933 183.384 29.2 182.371 29.2C181.371 29.2 180.484 28.9933 179.711 28.58C178.938 28.1667 178.331 27.5733 177.891 26.8C177.464 26.0133 177.251 25.08 177.251 24C177.251 22.9067 177.464 21.9733 177.891 21.2C178.331 20.4267 178.938 19.8333 179.711 19.42C180.484 19.0067 181.371 18.8 182.371 18.8ZM182.371 20.84C181.864 20.84 181.431 20.96 181.071 21.2C180.724 21.4267 180.458 21.7733 180.271 22.24C180.084 22.7067 179.991 23.2933 179.991 24C179.991 24.7067 180.084 25.2933 180.271 25.76C180.458 26.2267 180.724 26.58 181.071 26.82C181.431 27.0467 181.864 27.16 182.371 27.16C182.864 27.16 183.284 27.0467 183.631 26.82C183.991 26.58 184.264 26.2267 184.451 25.76C184.638 25.2933 184.731 24.7067 184.731 24C184.731 23.2933 184.638 22.7067 184.451 22.24C184.264 21.7733 183.991 21.4267 183.631 21.2C183.284 20.96 182.864 20.84 182.371 20.84ZM192.484 14.62V25.92C192.484 26.3867 192.564 26.7133 192.724 26.9C192.884 27.0867 193.15 27.18 193.524 27.18C193.75 27.18 193.937 27.1667 194.084 27.14C194.23 27.1 194.417 27.0467 194.644 26.98L194.404 28.78C194.177 28.9133 193.89 29.0133 193.544 29.08C193.21 29.16 192.877 29.2 192.544 29.2C191.57 29.2 190.857 28.9667 190.404 28.5C189.964 28.02 189.744 27.26 189.744 26.22V14.62H192.484ZM200.73 18.8C201.744 18.8 202.63 19.0067 203.39 19.42C204.164 19.8333 204.764 20.4267 205.19 21.2C205.63 21.9733 205.85 22.9067 205.85 24C205.85 25.08 205.63 26.0133 205.19 26.8C204.764 27.5733 204.164 28.1667 203.39 28.58C202.63 28.9933 201.744 29.2 200.73 29.2C199.73 29.2 198.844 28.9933 198.07 28.58C197.297 28.1667 196.69 27.5733 196.25 26.8C195.824 26.0133 195.61 25.08 195.61 24C195.61 22.9067 195.824 21.9733 196.25 21.2C196.69 20.4267 197.297 19.8333 198.07 19.42C198.844 19.0067 199.73 18.8 200.73 18.8ZM200.73 20.84C200.224 20.84 199.79 20.96 199.43 21.2C199.084 21.4267 198.817 21.7733 198.63 22.24C198.444 22.7067 198.35 23.2933 198.35 24C198.35 24.7067 198.444 25.2933 198.63 25.76C198.817 26.2267 199.084 26.58 199.43 26.82C199.79 27.0467 200.224 27.16 200.73 27.16C201.224 27.16 201.644 27.0467 201.99 26.82C202.35 26.58 202.624 26.2267 202.81 25.76C202.997 25.2933 203.09 24.7067 203.09 24C203.09 23.2933 202.997 22.7067 202.81 22.24C202.624 21.7733 202.35 21.4267 201.99 21.2C201.644 20.96 201.224 20.84 200.73 20.84ZM212.143 29.2C211.13 29.2 210.203 29.02 209.363 28.66C208.536 28.3 207.863 27.7933 207.343 27.14L208.923 25.54C209.243 26.02 209.67 26.4133 210.203 26.72C210.736 27.0267 211.37 27.18 212.103 27.18C212.623 27.18 213.036 27.1067 213.343 26.96C213.663 26.8 213.823 26.5533 213.823 26.22C213.823 26.0067 213.75 25.8267 213.603 25.68C213.456 25.52 213.163 25.3933 212.723 25.3L210.963 24.94C209.803 24.7 208.976 24.34 208.483 23.86C208.003 23.3667 207.763 22.7333 207.763 21.96C207.763 21.4133 207.923 20.9 208.243 20.42C208.576 19.94 209.07 19.5533 209.723 19.26C210.376 18.9533 211.19 18.8 212.163 18.8C213.163 18.8 214.03 18.96 214.763 19.28C215.51 19.5867 216.096 20.0467 216.523 20.66L214.883 22.26C214.59 21.7933 214.203 21.44 213.723 21.2C213.256 20.9467 212.763 20.82 212.243 20.82C211.87 20.82 211.55 20.86 211.283 20.94C211.016 21.02 210.816 21.1333 210.683 21.28C210.55 21.4133 210.483 21.5867 210.483 21.8C210.483 22.0133 210.576 22.2 210.763 22.36C210.95 22.5067 211.29 22.6333 211.783 22.74L213.823 23.16C214.81 23.36 215.516 23.7 215.943 24.18C216.37 24.6467 216.583 25.2133 216.583 25.88C216.583 26.52 216.41 27.0933 216.063 27.6C215.73 28.0933 215.23 28.4867 214.563 28.78C213.91 29.06 213.103 29.2 212.143 29.2Z" fill="white"/>
<path d="M173.2 16.22L173.407 15.765V15.765L173.2 16.22ZM175.52 18.06L175.898 18.3871L176.168 18.0751L175.913 17.7508L175.52 18.06ZM173.98 19.84L173.587 20.1496L173.962 20.6249L174.358 20.1671L173.98 19.84ZM172.18 18.32L171.949 18.7636L171.96 18.769L172.18 18.32ZM168.54 18.04L168.357 17.5746L168.351 17.577L168.54 18.04ZM167.74 18.62L167.335 18.3273L167.329 18.3349L167.324 18.3426L167.74 18.62ZM167.92 20.34L167.584 20.7109L167.595 20.7196L167.92 20.34ZM169.36 20.94L169.245 21.4267L169.249 21.4275L169.36 20.94ZM171.82 21.5L171.709 21.9875L171.71 21.9879L171.82 21.5ZM174.62 22.82L174.258 23.1653L174.266 23.1736L174.62 22.82ZM174.8 27.3L175.202 27.5972L175.205 27.5931L174.8 27.3ZM172.9 28.72L173.083 29.1853L173.09 29.1827L172.9 28.72ZM167.56 28.88L167.417 29.3592L167.427 29.362L167.56 28.88ZM165.52 27.96L165.249 28.3803L165.52 27.96ZM164.02 26.62L163.637 26.2987L163.375 26.6105L163.628 26.9298L164.02 26.62ZM165.58 24.76L165.986 24.4682L165.61 23.9456L165.197 24.4387L165.58 24.76ZM166.72 25.9L166.424 26.3028L166.72 25.9ZM168.26 26.7L168.095 27.1723L168.108 27.1765L168.26 26.7ZM171.48 26.8L171.633 27.2761L171.643 27.2727L171.48 26.8ZM172.34 26.26L171.956 25.9399L171.954 25.9421L172.34 26.26ZM172.28 24.52L171.907 24.8534L171.917 24.8637L171.926 24.8736L172.28 24.52ZM171 23.94L170.891 24.4279L170.896 24.4291L171 23.94ZM168.32 23.34L168.203 23.8261L168.211 23.8279L168.32 23.34ZM166.32 22.62L166.075 23.0561L166.082 23.0596L166.088 23.0629L166.32 22.62ZM165.06 21.46L164.628 21.7119L164.632 21.7191L164.637 21.7261L165.06 21.46ZM165.28 17.64L164.867 17.3586L165.28 17.64ZM167.12 16.16L167.325 16.616L167.329 16.6144L167.12 16.16ZM170.04 16.1C171.183 16.1 172.163 16.2967 172.993 16.675L173.407 15.765C172.424 15.3166 171.297 15.1 170.04 15.1V16.1ZM172.993 16.675C173.824 17.0539 174.534 17.616 175.127 18.3692L175.913 17.7508C175.226 16.8773 174.39 16.2128 173.407 15.765L172.993 16.675ZM175.142 17.7329L173.602 19.5129L174.358 20.1671L175.898 18.3871L175.142 17.7329ZM174.373 19.5304C173.789 18.7906 173.133 18.2302 172.4 17.871L171.96 18.769C172.533 19.0498 173.077 19.5027 173.587 20.1496L174.373 19.5304ZM172.411 17.8765C171.688 17.4998 170.859 17.32 169.94 17.32V18.32C170.728 18.32 171.392 18.4735 171.949 18.7635L172.411 17.8765ZM169.94 17.32C169.34 17.32 168.807 17.398 168.357 17.5746L168.723 18.5054C169.02 18.3887 169.42 18.32 169.94 18.32V17.32ZM168.351 17.577C167.931 17.7481 167.578 17.991 167.335 18.3273L168.145 18.9127C168.249 18.769 168.429 18.6252 168.729 18.503L168.351 17.577ZM167.324 18.3426C167.108 18.6663 167 19.0297 167 19.42H168C168 19.2236 168.052 19.0537 168.156 18.8973L167.324 18.3426ZM167 19.42C167 19.9289 167.206 20.3679 167.585 20.7108L168.255 19.9692C168.074 19.8054 168 19.6311 168 19.42H167ZM167.595 20.7196C167.968 21.04 168.545 21.262 169.245 21.4267L169.475 20.4533C168.815 20.298 168.432 20.12 168.245 19.9604L167.595 20.7196ZM169.249 21.4275L171.709 21.9875L171.931 21.0125L169.471 20.4525L169.249 21.4275ZM171.71 21.9879C172.977 22.2723 173.798 22.6827 174.258 23.1652L174.982 22.4748C174.322 21.7839 173.276 21.3144 171.93 21.0121L171.71 21.9879ZM174.266 23.1736C174.733 23.6402 174.98 24.2532 174.98 25.06H175.98C175.98 24.0268 175.654 23.1465 174.974 22.4664L174.266 23.1736ZM174.98 25.06C174.98 25.8347 174.779 26.4757 174.395 27.0069L175.205 27.5931C175.727 26.871 175.98 26.0186 175.98 25.06H174.98ZM174.398 27.0028C174.007 27.532 173.452 27.9533 172.71 28.2573L173.09 29.1827C173.974 28.82 174.687 28.2947 175.202 27.5972L174.398 27.0028ZM172.717 28.2547C171.973 28.5476 171.103 28.7 170.1 28.7V29.7C171.203 29.7 172.201 29.5324 173.083 29.1853L172.717 28.2547ZM170.1 28.7C169.218 28.7 168.417 28.5978 167.693 28.398L167.427 29.362C168.249 29.5889 169.142 29.7 170.1 29.7V28.7ZM167.703 28.4009C166.983 28.1862 166.347 27.8982 165.791 27.5397L165.249 28.3803C165.893 28.7952 166.617 29.1205 167.417 29.3591L167.703 28.4009ZM165.791 27.5397C165.232 27.1798 164.775 26.7692 164.412 26.3102L163.628 26.9298C164.065 27.4841 164.608 27.9669 165.249 28.3803L165.791 27.5397ZM164.403 26.9413L165.963 25.0813L165.197 24.4387L163.637 26.2987L164.403 26.9413ZM165.174 25.0518C165.513 25.5239 165.931 25.9407 166.424 26.3028L167.016 25.4972C166.602 25.1927 166.26 24.8494 165.986 24.4682L165.174 25.0518ZM166.424 26.3028C166.92 26.6679 167.479 26.957 168.095 27.1721L168.425 26.2279C167.895 26.043 167.426 25.7988 167.016 25.4972L166.424 26.3028ZM168.108 27.1765C168.746 27.3793 169.411 27.48 170.1 27.48V26.48C169.509 26.48 168.947 26.394 168.412 26.2235L168.108 27.1765ZM170.1 27.48C170.68 27.48 171.195 27.4168 171.633 27.276L171.327 26.324C171.018 26.4232 170.614 26.48 170.1 26.48V27.48ZM171.643 27.2727C172.084 27.1206 172.462 26.8984 172.726 26.5779L171.954 25.9421C171.845 26.0749 171.649 26.2127 171.317 26.3273L171.643 27.2727ZM172.724 26.5801C173.004 26.2439 173.14 25.8418 173.14 25.4H172.14C172.14 25.6248 172.076 25.7961 171.956 25.9399L172.724 26.5801ZM173.14 25.4C173.14 24.9239 172.97 24.5024 172.634 24.1664L171.926 24.8736C172.07 25.0176 172.14 25.1828 172.14 25.4H173.14ZM172.653 24.1866C172.316 23.8101 171.756 23.5896 171.104 23.4509L170.896 24.4291C171.498 24.5571 171.791 24.7232 171.907 24.8534L172.653 24.1866ZM171.109 23.4521L168.429 22.8521L168.211 23.8279L170.891 24.4279L171.109 23.4521ZM168.437 22.854C167.694 22.6746 167.068 22.4472 166.552 22.1771L166.088 23.0629C166.692 23.3794 167.399 23.6321 168.203 23.826L168.437 22.854ZM166.565 22.1839C166.081 21.9124 165.726 21.5807 165.483 21.1939L164.637 21.7261C164.98 22.2727 165.466 22.7142 166.075 23.0561L166.565 22.1839ZM165.492 21.2081C165.264 20.817 165.14 20.3405 165.14 19.76H164.14C164.14 20.4862 164.296 21.143 164.628 21.7119L165.492 21.2081ZM165.14 19.76C165.14 19.0697 165.325 18.4618 165.693 17.9214L164.867 17.3586C164.381 18.0715 164.14 18.877 164.14 19.76H165.14ZM165.693 17.9214C166.06 17.3823 166.596 16.9441 167.325 16.616L166.915 15.704C166.044 16.0959 165.353 16.6443 164.867 17.3586L165.693 17.9214ZM167.329 16.6144C168.061 16.278 168.96 16.1 170.04 16.1V15.1C168.853 15.1 167.805 15.2953 166.911 15.7056L167.329 16.6144ZM185.031 19.42L184.792 19.8593L184.795 19.861L185.031 19.42ZM186.831 21.2L186.393 21.4416L186.397 21.4473L186.831 21.2ZM186.831 26.8L186.395 26.5559L186.393 26.5585L186.831 26.8ZM185.031 28.58L184.795 28.139L184.792 28.1408L185.031 28.58ZM179.711 28.58L179.947 28.139L179.711 28.58ZM177.891 26.8L177.451 27.0384L177.457 27.0473L177.891 26.8ZM177.891 21.2L177.456 20.9527L177.453 20.9585L177.891 21.2ZM179.711 19.42L179.947 19.861L179.711 19.42ZM181.071 21.2L181.345 21.6185L181.348 21.616L181.071 21.2ZM180.271 22.24L179.807 22.0543L180.271 22.24ZM180.271 25.76L179.807 25.9457L180.271 25.76ZM181.071 26.82L180.786 27.2311L180.795 27.2373L180.805 27.2431L181.071 26.82ZM183.631 26.82L183.905 27.2385L183.908 27.236L183.631 26.82ZM184.451 25.76L184.915 25.9457L184.451 25.76ZM184.451 22.24L184.915 22.0543L184.451 22.24ZM183.631 21.2L183.346 21.6111L183.355 21.6173L183.365 21.6231L183.631 21.2ZM182.371 19.3C183.315 19.3 184.117 19.4921 184.792 19.8592L185.27 18.9808C184.425 18.5212 183.454 18.3 182.371 18.3V19.3ZM184.795 19.861C185.483 20.2284 186.013 20.7522 186.393 21.4415L187.269 20.9585C186.796 20.1012 186.126 19.4383 185.267 18.979L184.795 19.861ZM186.397 21.4473C186.785 22.1298 186.991 22.9737 186.991 24H187.991C187.991 22.8397 187.757 21.8169 187.266 20.9527L186.397 21.4473ZM186.991 24C186.991 25.0115 186.785 25.8573 186.395 26.5559L187.267 27.0441C187.757 26.1693 187.991 25.1485 187.991 24H186.991ZM186.393 26.5585C186.013 27.2478 185.483 27.7716 184.795 28.139L185.267 29.021C186.126 28.5617 186.796 27.8988 187.269 27.0415L186.393 26.5585ZM184.792 28.1408C184.117 28.5079 183.315 28.7 182.371 28.7V29.7C183.454 29.7 184.425 29.4788 185.27 29.0192L184.792 28.1408ZM182.371 28.7C181.442 28.7 180.638 28.5085 179.947 28.139L179.475 29.021C180.331 29.4782 181.301 29.7 182.371 29.7V28.7ZM179.947 28.139C179.258 27.7709 178.72 27.2453 178.326 26.5527L177.457 27.0473C177.942 27.9014 178.618 28.5624 179.475 29.021L179.947 28.139ZM178.331 26.5616C177.951 25.8618 177.751 25.0139 177.751 24H176.751C176.751 25.1461 176.978 26.1648 177.452 27.0384L178.331 26.5616ZM177.751 24C177.751 22.9713 177.952 22.1253 178.329 21.4415L177.453 20.9585C176.977 21.8214 176.751 22.842 176.751 24H177.751ZM178.326 21.4473C178.72 20.7547 179.258 20.2291 179.947 19.861L179.475 18.979C178.618 19.4376 177.942 20.0986 177.457 20.9527L178.326 21.4473ZM179.947 19.861C180.638 19.4915 181.442 19.3 182.371 19.3V18.3C181.301 18.3 180.331 18.5218 179.475 18.979L179.947 19.861ZM182.371 20.34C181.783 20.34 181.249 20.4804 180.794 20.784L181.348 21.616C181.613 21.4396 181.946 21.34 182.371 21.34V20.34ZM180.797 20.7815C180.348 21.0754 180.023 21.513 179.807 22.0543L180.735 22.4257C180.892 22.0337 181.101 21.7779 181.345 21.6185L180.797 20.7815ZM179.807 22.0543C179.589 22.5988 179.491 23.2536 179.491 24H180.491C180.491 23.333 180.58 22.8146 180.735 22.4257L179.807 22.0543ZM179.491 24C179.491 24.7464 179.589 25.4012 179.807 25.9457L180.735 25.5743C180.58 25.1854 180.491 24.667 180.491 24H179.491ZM179.807 25.9457C180.023 26.4857 180.345 26.9252 180.786 27.2311L181.356 26.4089C181.104 26.2348 180.893 25.9676 180.735 25.5743L179.807 25.9457ZM180.805 27.2431C181.259 27.5289 181.788 27.66 182.371 27.66V26.66C181.94 26.66 181.604 26.5644 181.337 26.3969L180.805 27.2431ZM182.371 27.66C182.943 27.66 183.462 27.5278 183.905 27.2385L183.357 26.4015C183.107 26.5655 182.786 26.66 182.371 26.66V27.66ZM183.908 27.236C184.366 26.9313 184.697 26.4907 184.915 25.9457L183.987 25.5743C183.832 25.9627 183.617 26.2287 183.354 26.404L183.908 27.236ZM184.915 25.9457C185.133 25.4012 185.231 24.7464 185.231 24H184.231C184.231 24.667 184.142 25.1854 183.987 25.5743L184.915 25.9457ZM185.231 24C185.231 23.2536 185.133 22.5988 184.915 22.0543L183.987 22.4257C184.142 22.8146 184.231 23.333 184.231 24H185.231ZM184.915 22.0543C184.697 21.5079 184.362 21.0695 183.898 20.7769L183.365 21.6231C183.62 21.7838 183.832 22.0388 183.987 22.4257L184.915 22.0543ZM183.916 20.7889C183.472 20.4817 182.948 20.34 182.371 20.34V21.34C182.78 21.34 183.097 21.4383 183.346 21.6111L183.916 20.7889ZM192.484 14.62H192.984V14.12H192.484V14.62ZM194.084 27.14L194.173 27.6319L194.194 27.6281L194.215 27.6224L194.084 27.14ZM194.644 26.98L195.139 27.0461L195.241 26.2831L194.503 26.5003L194.644 26.98ZM194.404 28.78L194.657 29.211L194.867 29.0875L194.899 28.8461L194.404 28.78ZM193.544 29.08L193.449 28.589L193.438 28.5911L193.427 28.5938L193.544 29.08ZM190.404 28.5L190.035 28.8379L190.04 28.8432L190.045 28.8484L190.404 28.5ZM189.744 14.62V14.12H189.244V14.62H189.744ZM191.984 14.62V25.92H192.984V14.62H191.984ZM191.984 25.92C191.984 26.4126 192.062 26.8961 192.344 27.2254L193.103 26.5746C193.066 26.5305 192.984 26.3608 192.984 25.92H191.984ZM192.344 27.2254C192.64 27.57 193.081 27.68 193.524 27.68V26.68C193.22 26.68 193.128 26.6033 193.103 26.5746L192.344 27.2254ZM193.524 27.68C193.767 27.68 193.986 27.666 194.173 27.6319L193.994 26.6481C193.888 26.6674 193.734 26.68 193.524 26.68V27.68ZM194.215 27.6224C194.366 27.5812 194.557 27.5268 194.785 27.4597L194.503 26.5003C194.278 26.5665 194.094 26.6188 193.952 26.6576L194.215 27.6224ZM194.148 26.9139L193.908 28.7139L194.899 28.8461L195.139 27.0461L194.148 26.9139ZM194.15 28.349C193.986 28.4454 193.758 28.5297 193.449 28.589L193.638 29.571C194.023 29.497 194.368 29.3813 194.657 29.211L194.15 28.349ZM193.427 28.5938C193.131 28.6649 192.837 28.7 192.544 28.7V29.7C192.917 29.7 193.29 29.6551 193.66 29.5662L193.427 28.5938ZM192.544 28.7C191.639 28.7 191.084 28.4822 190.762 28.1516L190.045 28.8484C190.631 29.4511 191.502 29.7 192.544 29.7V28.7ZM190.772 28.1621C190.455 27.8159 190.244 27.2059 190.244 26.22H189.244C189.244 27.3141 189.473 28.2241 190.035 28.8379L190.772 28.1621ZM190.244 26.22V14.62H189.244V26.22H190.244ZM189.744 15.12H192.484V14.12H189.744V15.12ZM203.39 19.42L203.152 19.8593L203.155 19.861L203.39 19.42ZM205.19 21.2L204.753 21.4416L204.756 21.4473L205.19 21.2ZM205.19 26.8L204.754 26.5559L204.753 26.5585L205.19 26.8ZM203.39 28.58L203.155 28.139L203.152 28.1408L203.39 28.58ZM198.07 28.58L198.306 28.139L198.07 28.58ZM196.25 26.8L195.811 27.0384L195.816 27.0473L196.25 26.8ZM196.25 21.2L195.816 20.9527L195.813 20.9585L196.25 21.2ZM198.07 19.42L198.306 19.861L198.07 19.42ZM199.43 21.2L199.704 21.6185L199.708 21.616L199.43 21.2ZM198.63 22.24L198.166 22.0543L198.63 22.24ZM198.63 25.76L198.166 25.9457L198.63 25.76ZM199.43 26.82L199.146 27.2311L199.155 27.2373L199.164 27.2431L199.43 26.82ZM201.99 26.82L202.264 27.2385L202.268 27.236L201.99 26.82ZM202.81 25.76L203.275 25.9457L202.81 25.76ZM202.81 22.24L203.275 22.0543L202.81 22.24ZM201.99 21.2L201.706 21.6111L201.715 21.6173L201.724 21.6231L201.99 21.2ZM200.73 19.3C201.675 19.3 202.477 19.4921 203.152 19.8592L203.629 18.9808C202.784 18.5212 201.813 18.3 200.73 18.3V19.3ZM203.155 19.861C203.842 20.2284 204.372 20.7522 204.753 21.4415L205.628 20.9585C205.155 20.1012 204.485 19.4383 203.626 18.979L203.155 19.861ZM204.756 21.4473C205.144 22.1298 205.35 22.9737 205.35 24H206.35C206.35 22.8397 206.117 21.8169 205.625 20.9527L204.756 21.4473ZM205.35 24C205.35 25.0115 205.145 25.8573 204.754 26.5559L205.627 27.0441C206.116 26.1693 206.35 25.1485 206.35 24H205.35ZM204.753 26.5585C204.372 27.2478 203.842 27.7716 203.155 28.139L203.626 29.021C204.485 28.5617 205.155 27.8988 205.628 27.0415L204.753 26.5585ZM203.152 28.1408C202.477 28.5079 201.675 28.7 200.73 28.7V29.7C201.813 29.7 202.784 29.4788 203.629 29.0192L203.152 28.1408ZM200.73 28.7C199.801 28.7 198.997 28.5085 198.306 28.139L197.835 29.021C198.69 29.4782 199.66 29.7 200.73 29.7V28.7ZM198.306 28.139C197.617 27.7709 197.079 27.2453 196.685 26.5527L195.816 27.0473C196.302 27.9014 196.977 28.5624 197.835 29.021L198.306 28.139ZM196.69 26.5616C196.31 25.8618 196.11 25.0139 196.11 24H195.11C195.11 25.1461 195.337 26.1648 195.811 27.0384L196.69 26.5616ZM196.11 24C196.11 22.9713 196.311 22.1253 196.688 21.4415L195.813 20.9585C195.337 21.8214 195.11 22.842 195.11 24H196.11ZM196.685 21.4473C197.079 20.7547 197.617 20.2291 198.306 19.861L197.835 18.979C196.977 19.4376 196.302 20.0986 195.816 20.9527L196.685 21.4473ZM198.306 19.861C198.997 19.4915 199.801 19.3 200.73 19.3V18.3C199.66 18.3 198.69 18.5218 197.835 18.979L198.306 19.861ZM200.73 20.34C200.142 20.34 199.609 20.4804 199.153 20.784L199.708 21.616C199.972 21.4396 200.305 21.34 200.73 21.34V20.34ZM199.157 20.7815C198.707 21.0754 198.383 21.513 198.166 22.0543L199.095 22.4257C199.252 22.0337 199.46 21.7779 199.704 21.6185L199.157 20.7815ZM198.166 22.0543C197.948 22.5988 197.85 23.2536 197.85 24H198.85C198.85 23.333 198.939 22.8146 199.095 22.4257L198.166 22.0543ZM197.85 24C197.85 24.7464 197.948 25.4012 198.166 25.9457L199.095 25.5743C198.939 25.1854 198.85 24.667 198.85 24H197.85ZM198.166 25.9457C198.382 26.4857 198.704 26.9252 199.146 27.2311L199.715 26.4089C199.464 26.2348 199.252 25.9676 199.095 25.5743L198.166 25.9457ZM199.164 27.2431C199.618 27.5289 200.148 27.66 200.73 27.66V26.66C200.3 26.66 199.963 26.5644 199.697 26.3969L199.164 27.2431ZM200.73 27.66C201.302 27.66 201.822 27.5278 202.264 27.2385L201.717 26.4015C201.466 26.5655 201.145 26.66 200.73 26.66V27.66ZM202.268 27.236C202.725 26.9313 203.057 26.4907 203.275 25.9457L202.346 25.5743C202.191 25.9627 201.976 26.2287 201.713 26.404L202.268 27.236ZM203.275 25.9457C203.492 25.4012 203.59 24.7464 203.59 24H202.59C202.59 24.667 202.502 25.1854 202.346 25.5743L203.275 25.9457ZM203.59 24C203.59 23.2536 203.492 22.5988 203.275 22.0543L202.346 22.4257C202.502 22.8146 202.59 23.333 202.59 24H203.59ZM203.275 22.0543C203.056 21.5079 202.722 21.0695 202.257 20.7769L201.724 21.6231C201.979 21.7838 202.191 22.0388 202.346 22.4257L203.275 22.0543ZM202.275 20.7889C201.831 20.4817 201.308 20.34 200.73 20.34V21.34C201.14 21.34 201.456 21.4383 201.706 21.6111L202.275 20.7889ZM209.363 28.66L209.163 29.1184L209.166 29.1196L209.363 28.66ZM207.343 27.14L206.987 26.7887L206.676 27.1043L206.952 27.4514L207.343 27.14ZM208.923 25.54L209.339 25.2626L208.999 24.7519L208.567 25.1887L208.923 25.54ZM210.203 26.72L210.452 26.2865L210.203 26.72ZM213.343 26.96L213.559 27.4111L213.567 27.4072L213.343 26.96ZM213.603 25.68L213.235 26.0179L213.242 26.0259L213.25 26.0336L213.603 25.68ZM212.723 25.3L212.827 24.8109L212.823 24.8101L212.723 25.3ZM210.963 24.94L210.862 25.4296L210.863 25.4299L210.963 24.94ZM208.483 23.86L208.125 24.2088L208.134 24.2184L208.483 23.86ZM208.243 20.42L207.832 20.1348L207.827 20.1426L208.243 20.42ZM209.723 19.26L209.928 19.7162L209.936 19.7126L209.723 19.26ZM214.763 19.28L214.563 19.7384L214.573 19.7425L214.763 19.28ZM216.523 20.66L216.872 21.0179L217.175 20.7221L216.934 20.3745L216.523 20.66ZM214.883 22.26L214.46 22.5261L214.789 23.0502L215.232 22.6179L214.883 22.26ZM213.723 21.2L213.485 21.6394L213.492 21.6434L213.5 21.6472L213.723 21.2ZM211.283 20.94L211.139 20.4611L211.283 20.94ZM210.683 21.28L211.037 21.6336L211.045 21.6251L211.053 21.6163L210.683 21.28ZM210.763 22.36L210.438 22.7396L210.446 22.7466L210.454 22.7532L210.763 22.36ZM211.783 22.74L211.677 23.2287L211.682 23.2297L211.783 22.74ZM213.823 23.16L213.722 23.6497L213.724 23.65L213.823 23.16ZM215.943 24.18L215.569 24.5122L215.574 24.5174L215.943 24.18ZM216.063 27.6L215.65 27.3177L215.649 27.3201L216.063 27.6ZM214.563 28.78L214.76 29.2396L214.764 29.2377L214.563 28.78ZM212.143 28.7C211.19 28.7 210.331 28.531 209.56 28.2004L209.166 29.1196C210.075 29.509 211.069 29.7 212.143 29.7V28.7ZM209.563 28.2016C208.805 27.8715 208.199 27.413 207.734 26.8286L206.952 27.4514C207.527 28.1737 208.268 28.7285 209.163 29.1184L209.563 28.2016ZM207.699 27.4913L209.279 25.8913L208.567 25.1887L206.987 26.7887L207.699 27.4913ZM208.507 25.8174C208.873 26.3658 209.358 26.8109 209.954 27.1535L210.452 26.2865C209.981 26.0157 209.614 25.6742 209.339 25.2626L208.507 25.8174ZM209.954 27.1535C210.576 27.5114 211.299 27.68 212.103 27.68V26.68C211.44 26.68 210.896 26.5419 210.452 26.2865L209.954 27.1535ZM212.103 27.68C212.662 27.68 213.159 27.6025 213.559 27.4111L213.127 26.5089C212.914 26.6109 212.584 26.68 212.103 26.68V27.68ZM213.567 27.4072C213.789 27.296 213.985 27.1399 214.123 26.9271C214.262 26.7123 214.323 26.4699 214.323 26.22H213.323C213.323 26.3034 213.304 26.3511 213.284 26.3829C213.262 26.4168 213.217 26.464 213.12 26.5128L213.567 27.4072ZM214.323 26.22C214.323 25.8783 214.2 25.5698 213.957 25.3264L213.25 26.0336C213.3 26.0835 213.323 26.135 213.323 26.22H214.323ZM213.972 25.3421C213.711 25.058 213.279 24.9069 212.827 24.8109L212.619 25.7891C213.047 25.8798 213.202 25.982 213.235 26.0179L213.972 25.3421ZM212.823 24.8101L211.063 24.4501L210.863 25.4299L212.623 25.7899L212.823 24.8101ZM211.064 24.4504C209.938 24.2174 209.224 23.8828 208.832 23.5016L208.134 24.2184C208.729 24.7972 209.668 25.1826 210.862 25.4296L211.064 24.4504ZM208.841 23.5113C208.464 23.1232 208.263 22.6206 208.263 21.96H207.263C207.263 22.8461 207.542 23.6102 208.125 24.2087L208.841 23.5113ZM208.263 21.96C208.263 21.5176 208.391 21.1 208.659 20.6973L207.827 20.1426C207.456 20.7 207.263 21.309 207.263 21.96H208.263ZM208.654 20.7052C208.925 20.315 209.339 19.9806 209.928 19.7161L209.518 18.8039C208.801 19.126 208.228 19.565 207.832 20.1348L208.654 20.7052ZM209.936 19.7126C210.503 19.446 211.239 19.3 212.163 19.3V18.3C211.141 18.3 210.249 18.4606 209.511 18.8074L209.936 19.7126ZM212.163 19.3C213.111 19.3 213.907 19.4518 214.563 19.7383L214.963 18.8217C214.153 18.4682 213.215 18.3 212.163 18.3V19.3ZM214.573 19.7425C215.238 20.0157 215.745 20.4175 216.113 20.9455L216.934 20.3745C216.448 19.6758 215.781 19.1576 214.953 18.8175L214.573 19.7425ZM216.174 20.3021L214.534 21.9021L215.232 22.6179L216.872 21.0179L216.174 20.3021ZM215.306 21.9939C214.966 21.4519 214.511 21.0349 213.947 20.7528L213.5 21.6472C213.895 21.8451 214.214 22.1347 214.46 22.5261L215.306 21.9939ZM213.962 20.7606C213.423 20.4684 212.848 20.32 212.243 20.32V21.32C212.678 21.32 213.09 21.425 213.485 21.6394L213.962 20.7606ZM212.243 20.32C211.837 20.32 211.466 20.3633 211.139 20.4611L211.427 21.4189C211.634 21.3567 211.903 21.32 212.243 21.32V20.32ZM211.139 20.4611C210.819 20.5571 210.527 20.7079 210.313 20.9437L211.053 21.6163C211.105 21.5587 211.214 21.4829 211.427 21.4189L211.139 20.4611ZM210.33 20.9264C210.09 21.1662 209.983 21.473 209.983 21.8H210.983C210.983 21.7003 211.01 21.6605 211.037 21.6336L210.33 20.9264ZM209.983 21.8C209.983 22.1823 210.159 22.5007 210.438 22.7396L211.089 21.9804C210.994 21.8993 210.983 21.8443 210.983 21.8H209.983ZM210.454 22.7532C210.737 22.9754 211.175 23.1201 211.677 23.2287L211.889 22.2513C211.404 22.1465 211.163 22.038 211.072 21.9668L210.454 22.7532ZM211.682 23.2297L213.722 23.6497L213.924 22.6703L211.884 22.2503L211.682 23.2297ZM213.724 23.65C214.661 23.8399 215.245 24.1475 215.569 24.5122L216.317 23.8478C215.788 23.2525 214.959 22.8801 213.922 22.67L213.724 23.65ZM215.574 24.5174C215.912 24.8865 216.083 25.3308 216.083 25.88H217.083C217.083 25.0959 216.828 24.4068 216.312 23.8426L215.574 24.5174ZM216.083 25.88C216.083 26.4238 215.938 26.8978 215.65 27.3177L216.476 27.8823C216.882 27.2888 217.083 26.6162 217.083 25.88H216.083ZM215.649 27.3201C215.379 27.7194 214.961 28.0585 214.362 28.3223L214.764 29.2377C215.498 28.9149 216.081 28.4672 216.477 27.8799L215.649 27.3201ZM214.366 28.3204C213.793 28.5662 213.058 28.7 212.143 28.7V29.7C213.148 29.7 214.027 29.5538 214.76 29.2396L214.366 28.3204Z" fill="#111827"/>
</svg>
