<svg width="273" height="44" viewBox="0 0 273 44" fill="none" xmlns="http://www.w3.org/2000/svg">
<path d="M45.5316 29H42.6716L41.5716 25.78H36.5116L35.4116 29H32.5916L37.4116 15.8H40.7116L45.5316 29ZM37.1316 23.74H40.9516L39.0316 17.98L37.1316 23.74ZM47.2095 29V19H49.5895L49.7695 20.96C50.0362 20.2667 50.4229 19.7333 50.9295 19.36C51.4495 18.9867 52.0962 18.8 52.8695 18.8C53.0962 18.8 53.3029 18.82 53.4895 18.86C53.6762 18.9 53.8295 18.9533 53.9495 19.02L53.6295 21.32C53.4962 21.2667 53.3295 21.2267 53.1295 21.2C52.9429 21.1733 52.6962 21.16 52.3895 21.16C51.9895 21.16 51.6029 21.26 51.2295 21.46C50.8562 21.6467 50.5495 21.94 50.3095 22.34C50.0695 22.7267 49.9495 23.22 49.9495 23.82V29H47.2095ZM58.8159 15.94V25.74C58.8159 26.22 58.9359 26.5733 59.1759 26.8C59.4293 27.0133 59.7693 27.12 60.1959 27.12C60.5293 27.12 60.8226 27.0733 61.0759 26.98C61.3293 26.8733 61.5559 26.7333 61.7559 26.56L62.1959 28.38C61.8759 28.6333 61.4759 28.8333 60.9959 28.98C60.5159 29.1267 60.0093 29.2 59.4759 29.2C58.8093 29.2 58.2159 29.1 57.6959 28.9C57.1893 28.7 56.7893 28.38 56.4959 27.94C56.2159 27.5 56.0759 26.9133 56.0759 26.18V16.7L58.8159 15.94ZM62.0159 19V21.04H54.2359V19H62.0159ZM65.2497 17.56C64.6764 17.56 64.2497 17.44 63.9697 17.2C63.6897 16.9467 63.5497 16.58 63.5497 16.1C63.5497 15.6067 63.6897 15.24 63.9697 15C64.2497 14.7467 64.6764 14.62 65.2497 14.62C65.823 14.62 66.2497 14.7467 66.5297 15C66.8097 15.24 66.9497 15.6067 66.9497 16.1C66.9497 16.58 66.8097 16.9467 66.5297 17.2C66.2497 17.44 65.823 17.56 65.2497 17.56ZM66.6097 19V29H63.8697V19H66.6097ZM73.5142 29.2C72.5009 29.2 71.5742 29.02 70.7342 28.66C69.9076 28.3 69.2342 27.7933 68.7142 27.14L70.2942 25.54C70.6142 26.02 71.0409 26.4133 71.5742 26.72C72.1076 27.0267 72.7409 27.18 73.4742 27.18C73.9942 27.18 74.4076 27.1067 74.7142 26.96C75.0342 26.8 75.1942 26.5533 75.1942 26.22C75.1942 26.0067 75.1209 25.8267 74.9742 25.68C74.8276 25.52 74.5342 25.3933 74.0942 25.3L72.3342 24.94C71.1742 24.7 70.3476 24.34 69.8542 23.86C69.3742 23.3667 69.1342 22.7333 69.1342 21.96C69.1342 21.4133 69.2942 20.9 69.6142 20.42C69.9476 19.94 70.4409 19.5533 71.0942 19.26C71.7476 18.9533 72.5609 18.8 73.5342 18.8C74.5342 18.8 75.4009 18.96 76.1342 19.28C76.8809 19.5867 77.4676 20.0467 77.8942 20.66L76.2542 22.26C75.9609 21.7933 75.5742 21.44 75.0942 21.2C74.6276 20.9467 74.1342 20.82 73.6142 20.82C73.2409 20.82 72.9209 20.86 72.6542 20.94C72.3876 21.02 72.1876 21.1333 72.0542 21.28C71.9209 21.4133 71.8542 21.5867 71.8542 21.8C71.8542 22.0133 71.9476 22.2 72.1342 22.36C72.3209 22.5067 72.6609 22.6333 73.1542 22.74L75.1942 23.16C76.1809 23.36 76.8876 23.7 77.3142 24.18C77.7409 24.6467 77.9542 25.2133 77.9542 25.88C77.9542 26.52 77.7809 27.0933 77.4342 27.6C77.1009 28.0933 76.6009 28.4867 75.9342 28.78C75.2809 29.06 74.4742 29.2 73.5142 29.2ZM83.6792 15.94V25.74C83.6792 26.22 83.7992 26.5733 84.0392 26.8C84.2926 27.0133 84.6326 27.12 85.0592 27.12C85.3926 27.12 85.6859 27.0733 85.9392 26.98C86.1926 26.8733 86.4192 26.7333 86.6192 26.56L87.0592 28.38C86.7392 28.6333 86.3392 28.8333 85.8592 28.98C85.3792 29.1267 84.8726 29.2 84.3392 29.2C83.6726 29.2 83.0792 29.1 82.5592 28.9C82.0526 28.7 81.6526 28.38 81.3592 27.94C81.0792 27.5 80.9392 26.9133 80.9392 26.18V16.7L83.6792 15.94ZM86.8792 19V21.04H79.0992V19H86.8792ZM93.373 29.2C92.3196 29.2 91.3996 28.9933 90.613 28.58C89.8396 28.1667 89.2396 27.5733 88.813 26.8C88.3863 26.0267 88.173 25.0933 88.173 24C88.173 22.9067 88.3863 21.9733 88.813 21.2C89.2396 20.4267 89.833 19.8333 90.593 19.42C91.3663 19.0067 92.2463 18.8 93.233 18.8C94.2463 18.8 95.1063 19.0067 95.813 19.42C96.5196 19.82 97.0596 20.3733 97.433 21.08C97.8063 21.7733 97.993 22.5667 97.993 23.46C97.993 23.7267 97.9863 23.98 97.973 24.22C97.9596 24.46 97.9396 24.6733 97.913 24.86H89.933V22.96H96.713L95.393 23.44C95.393 22.6 95.1996 21.9533 94.813 21.5C94.4396 21.0467 93.9063 20.82 93.213 20.82C92.7063 20.82 92.2663 20.94 91.893 21.18C91.533 21.42 91.2596 21.78 91.073 22.26C90.8863 22.7267 90.793 23.32 90.793 24.04C90.793 24.7467 90.893 25.3333 91.093 25.8C91.3063 26.2533 91.5996 26.5933 91.973 26.82C92.3596 27.0467 92.8196 27.16 93.353 27.16C93.9396 27.16 94.413 27.0467 94.773 26.82C95.133 26.5933 95.413 26.28 95.613 25.88L97.793 26.72C97.5796 27.24 97.253 27.6867 96.813 28.06C96.3863 28.4333 95.873 28.72 95.273 28.92C94.6863 29.1067 94.053 29.2 93.373 29.2ZM104.315 29.2C103.302 29.2 102.375 29.02 101.535 28.66C100.708 28.3 100.035 27.7933 99.515 27.14L101.095 25.54C101.415 26.02 101.842 26.4133 102.375 26.72C102.908 27.0267 103.542 27.18 104.275 27.18C104.795 27.18 105.208 27.1067 105.515 26.96C105.835 26.8 105.995 26.5533 105.995 26.22C105.995 26.0067 105.922 25.8267 105.775 25.68C105.628 25.52 105.335 25.3933 104.895 25.3L103.135 24.94C101.975 24.7 101.148 24.34 100.655 23.86C100.175 23.3667 99.935 22.7333 99.935 21.96C99.935 21.4133 100.095 20.9 100.415 20.42C100.748 19.94 101.242 19.5533 101.895 19.26C102.548 18.9533 103.362 18.8 104.335 18.8C105.335 18.8 106.202 18.96 106.935 19.28C107.682 19.5867 108.268 20.0467 108.695 20.66L107.055 22.26C106.762 21.7933 106.375 21.44 105.895 21.2C105.428 20.9467 104.935 20.82 104.415 20.82C104.042 20.82 103.722 20.86 103.455 20.94C103.188 21.02 102.988 21.1333 102.855 21.28C102.722 21.4133 102.655 21.5867 102.655 21.8C102.655 22.0133 102.748 22.2 102.935 22.36C103.122 22.5067 103.462 22.6333 103.955 22.74L105.995 23.16C106.982 23.36 107.688 23.7 108.115 24.18C108.542 24.6467 108.755 25.2133 108.755 25.88C108.755 26.52 108.582 27.0933 108.235 27.6C107.902 28.0933 107.402 28.4867 106.735 28.78C106.082 29.06 105.275 29.2 104.315 29.2Z" fill="white"/>
<path d="M45.5316 29V29.5H46.2464L46.0012 28.8285L45.5316 29ZM42.6716 29L42.1984 29.1616L42.314 29.5H42.6716V29ZM41.5716 25.78L42.0447 25.6184L41.9291 25.28H41.5716V25.78ZM36.5116 25.78V25.28H36.154L36.0384 25.6184L36.5116 25.78ZM35.4116 29V29.5H35.7691L35.8847 29.1616L35.4116 29ZM32.5916 29L32.1219 28.8285L31.8767 29.5H32.5916V29ZM37.4116 15.8V15.3H37.0618L36.9419 15.6285L37.4116 15.8ZM40.7116 15.8L41.1812 15.6285L41.0613 15.3H40.7116V15.8ZM37.1316 23.74L36.6567 23.5834L36.4401 24.24H37.1316V23.74ZM40.9516 23.74V24.24H41.6453L41.4259 23.5819L40.9516 23.74ZM39.0316 17.98L39.5059 17.8219L39.0291 16.3914L38.5567 17.8234L39.0316 17.98ZM45.5316 28.5H42.6716V29.5H45.5316V28.5ZM43.1447 28.8384L42.0447 25.6184L41.0984 25.9416L42.1984 29.1616L43.1447 28.8384ZM41.5716 25.28H36.5116V26.28H41.5716V25.28ZM36.0384 25.6184L34.9384 28.8384L35.8847 29.1616L36.9847 25.9416L36.0384 25.6184ZM35.4116 28.5H32.5916V29.5H35.4116V28.5ZM33.0612 29.1715L37.8812 15.9715L36.9419 15.6285L32.1219 28.8285L33.0612 29.1715ZM37.4116 16.3H40.7116V15.3H37.4116V16.3ZM40.2419 15.9715L45.0619 29.1715L46.0012 28.8285L41.1812 15.6285L40.2419 15.9715ZM37.1316 24.24H40.9516V23.24H37.1316V24.24ZM41.4259 23.5819L39.5059 17.8219L38.5572 18.1381L40.4772 23.8981L41.4259 23.5819ZM38.5567 17.8234L36.6567 23.5834L37.6064 23.8966L39.5064 18.1366L38.5567 17.8234ZM47.2095 29H46.7095V29.5H47.2095V29ZM47.2095 19V18.5H46.7095V19H47.2095ZM49.5895 19L50.0874 18.9543L50.0457 18.5H49.5895V19ZM49.7695 20.96L49.2716 21.0057L50.2362 21.1395L49.7695 20.96ZM50.9295 19.36L50.6379 18.9538L50.6329 18.9575L50.9295 19.36ZM53.9495 19.02L54.4448 19.0889L54.492 18.7494L54.1924 18.5829L53.9495 19.02ZM53.6295 21.32L53.4438 21.7842L54.0368 22.0214L54.1248 21.3889L53.6295 21.32ZM53.1295 21.2L53.0588 21.695L53.0634 21.6956L53.1295 21.2ZM51.2295 21.46L51.4532 21.9074L51.4656 21.9007L51.2295 21.46ZM50.3095 22.34L50.7344 22.6037L50.7383 22.5972L50.3095 22.34ZM49.9495 29V29.5H50.4495V29H49.9495ZM47.7095 29V19H46.7095V29H47.7095ZM47.2095 19.5H49.5895V18.5H47.2095V19.5ZM49.0916 19.0457L49.2716 21.0057L50.2674 20.9143L50.0874 18.9543L49.0916 19.0457ZM50.2362 21.1395C50.4749 20.5189 50.8092 20.0697 51.2261 19.7625L50.6329 18.9575C50.0365 19.3969 49.5975 20.0144 49.3029 20.7805L50.2362 21.1395ZM51.2211 19.7662C51.6397 19.4656 52.1786 19.3 52.8695 19.3V18.3C52.0138 18.3 51.2593 18.5077 50.6379 18.9538L51.2211 19.7662ZM52.8695 19.3C53.0673 19.3 53.2382 19.3175 53.3848 19.3489L53.5943 18.3711C53.3675 18.3225 53.1251 18.3 52.8695 18.3V19.3ZM53.3848 19.3489C53.5405 19.3823 53.6431 19.4217 53.7067 19.4571L54.1924 18.5829C54.016 18.4849 53.8119 18.4177 53.5943 18.3711L53.3848 19.3489ZM53.4543 18.9511L53.1343 21.2511L54.1248 21.3889L54.4448 19.0889L53.4543 18.9511ZM53.8152 20.8558C53.6315 20.7823 53.4215 20.7345 53.1956 20.7044L53.0634 21.6956C53.2376 21.7188 53.3609 21.7511 53.4438 21.7842L53.8152 20.8558ZM53.2002 20.705C52.9803 20.6736 52.7072 20.66 52.3895 20.66V21.66C52.6852 21.66 52.9055 21.6731 53.0588 21.695L53.2002 20.705ZM52.3895 20.66C51.9023 20.66 51.435 20.7827 50.9934 21.0193L51.4656 21.9007C51.7708 21.7373 52.0768 21.66 52.3895 21.66V20.66ZM51.0059 21.0128C50.5378 21.2469 50.1638 21.6111 49.8808 22.0828L50.7383 22.5972C50.9353 22.2689 51.1746 22.0465 51.4531 21.9072L51.0059 21.0128ZM49.8847 22.0763C49.5822 22.5636 49.4495 23.1558 49.4495 23.82H50.4495C50.4495 23.2842 50.5568 22.8897 50.7344 22.6037L49.8847 22.0763ZM49.4495 23.82V29H50.4495V23.82H49.4495ZM49.9495 28.5H47.2095V29.5H49.9495V28.5ZM58.8159 15.94H59.3159V15.2824L58.6823 15.4582L58.8159 15.94ZM59.1759 26.8L58.8326 27.1635L58.843 27.1733L58.8539 27.1825L59.1759 26.8ZM61.0759 26.98L61.2488 27.4492L61.2595 27.4452L61.27 27.4408L61.0759 26.98ZM61.7559 26.56L62.2419 26.4425L62.049 25.6444L61.4285 26.1822L61.7559 26.56ZM62.1959 28.38L62.5063 28.772L62.7571 28.5735L62.6819 28.2625L62.1959 28.38ZM60.9959 28.98L60.8498 28.5018L60.9959 28.98ZM57.6959 28.9L57.5123 29.3651L57.5164 29.3667L57.6959 28.9ZM56.4959 27.94L56.074 28.2085L56.0799 28.2174L56.4959 27.94ZM56.0759 16.7L55.9423 16.2182L55.5759 16.3198V16.7H56.0759ZM62.0159 19H62.5159V18.5H62.0159V19ZM62.0159 21.04V21.54H62.5159V21.04H62.0159ZM54.2359 21.04H53.7359V21.54H54.2359V21.04ZM54.2359 19V18.5H53.7359V19H54.2359ZM58.3159 15.94V25.74H59.3159V15.94H58.3159ZM58.3159 25.74C58.3159 26.2945 58.4545 26.8064 58.8326 27.1635L59.5192 26.4365C59.4173 26.3402 59.3159 26.1455 59.3159 25.74H58.3159ZM58.8539 27.1825C59.2207 27.4914 59.6861 27.62 60.1959 27.62V26.62C59.8525 26.62 59.6378 26.5353 59.498 26.4175L58.8539 27.1825ZM60.1959 27.62C60.5749 27.62 60.9288 27.567 61.2488 27.4492L60.9031 26.5108C60.7164 26.5796 60.4836 26.62 60.1959 26.62V27.62ZM61.27 27.4408C61.57 27.3145 61.8421 27.147 62.0834 26.9378L61.4285 26.1822C61.2698 26.3197 61.0886 26.4322 60.8819 26.5192L61.27 27.4408ZM61.2699 26.6775L61.7099 28.4975L62.6819 28.2625L62.2419 26.4425L61.2699 26.6775ZM61.8856 27.988C61.6243 28.1948 61.2835 28.3693 60.8498 28.5018L61.142 29.4582C61.6684 29.2973 62.1276 29.0718 62.5063 28.772L61.8856 27.988ZM60.8498 28.5018C60.4201 28.6331 59.9629 28.7 59.4759 28.7V29.7C60.0557 29.7 60.6118 29.6202 61.142 29.4582L60.8498 28.5018ZM59.4759 28.7C58.8589 28.7 58.3281 28.6074 57.8754 28.4333L57.5164 29.3667C58.1038 29.5926 58.7597 29.7 59.4759 29.7V28.7ZM57.8795 28.4349C57.4646 28.2711 57.147 28.0152 56.912 27.6626L56.0799 28.2174C56.4316 28.7448 56.9139 29.1289 57.5124 29.3651L57.8795 28.4349ZM56.9178 27.6716C56.7056 27.3381 56.5759 26.8552 56.5759 26.18H55.5759C55.5759 26.9715 55.7263 27.6619 56.0741 28.2084L56.9178 27.6716ZM56.5759 26.18V16.7H55.5759V26.18H56.5759ZM56.2096 17.1818L58.9496 16.4218L58.6823 15.4582L55.9423 16.2182L56.2096 17.1818ZM61.5159 19V21.04H62.5159V19H61.5159ZM62.0159 20.54H54.2359V21.54H62.0159V20.54ZM54.7359 21.04V19H53.7359V21.04H54.7359ZM54.2359 19.5H62.0159V18.5H54.2359V19.5ZM63.9697 17.2L63.6341 17.5709L63.6443 17.5796L63.9697 17.2ZM63.9697 15L64.2952 15.3798L64.3051 15.3708L63.9697 15ZM66.5297 15L66.1941 15.3709L66.2043 15.3796L66.5297 15ZM66.5297 17.2L66.8552 17.5798L66.8651 17.5708L66.5297 17.2ZM66.6097 19H67.1097V18.5H66.6097V19ZM66.6097 29V29.5H67.1097V29H66.6097ZM63.8697 29H63.3697V29.5H63.8697V29ZM63.8697 19V18.5H63.3697V19H63.8697ZM65.2497 17.06C64.7326 17.06 64.4459 16.9497 64.2951 16.8204L63.6443 17.5796C64.0534 17.9303 64.6201 18.06 65.2497 18.06V17.06ZM64.3051 16.8292C64.1568 16.695 64.0497 16.4796 64.0497 16.1H63.0497C63.0497 16.6804 63.2225 17.1983 63.6342 17.5708L64.3051 16.8292ZM64.0497 16.1C64.0497 15.7005 64.1602 15.4953 64.2951 15.3796L63.6443 14.6204C63.2192 14.9847 63.0497 15.5129 63.0497 16.1H64.0497ZM64.3051 15.3708C64.4556 15.2346 64.738 15.12 65.2497 15.12V14.12C64.6147 14.12 64.0437 14.2587 63.6342 14.6292L64.3051 15.3708ZM65.2497 15.12C65.7613 15.12 66.0437 15.2346 66.1942 15.3708L66.8651 14.6292C66.4556 14.2587 65.8847 14.12 65.2497 14.12V15.12ZM66.2043 15.3796C66.3392 15.4953 66.4497 15.7005 66.4497 16.1H67.4497C67.4497 15.5129 67.2802 14.9847 66.8551 14.6204L66.2043 15.3796ZM66.4497 16.1C66.4497 16.4796 66.3425 16.695 66.1942 16.8292L66.8651 17.5708C67.2768 17.1983 67.4497 16.6804 67.4497 16.1H66.4497ZM66.2043 16.8204C66.0534 16.9497 65.7667 17.06 65.2497 17.06V18.06C65.8793 18.06 66.4459 17.9303 66.8551 17.5796L66.2043 16.8204ZM66.1097 19V29H67.1097V19H66.1097ZM66.6097 28.5H63.8697V29.5H66.6097V28.5ZM64.3697 29V19H63.3697V29H64.3697ZM63.8697 19.5H66.6097V18.5H63.8697V19.5ZM70.7342 28.66L70.5346 29.1184L70.5373 29.1196L70.7342 28.66ZM68.7142 27.14L68.3584 26.7887L68.0468 27.1043L68.323 27.4514L68.7142 27.14ZM70.2942 25.54L70.7102 25.2626L70.3698 24.7519L69.9384 25.1887L70.2942 25.54ZM71.5742 26.72L71.8235 26.2865L71.5742 26.72ZM74.7142 26.96L74.93 27.4111L74.9378 27.4072L74.7142 26.96ZM74.9742 25.68L74.6056 26.0179L74.613 26.0259L74.6207 26.0336L74.9742 25.68ZM74.0942 25.3L74.198 24.8109L74.1944 24.8101L74.0942 25.3ZM72.3342 24.94L72.2329 25.4296L72.234 25.4299L72.3342 24.94ZM69.8542 23.86L69.4957 24.2088L69.5055 24.2184L69.8542 23.86ZM69.6142 20.42L69.2035 20.1348L69.1982 20.1426L69.6142 20.42ZM71.0942 19.26L71.299 19.7162L71.3067 19.7126L71.0942 19.26ZM76.1342 19.28L75.9342 19.7384L75.9443 19.7425L76.1342 19.28ZM77.8942 20.66L78.2434 21.0179L78.5465 20.7221L78.3047 20.3745L77.8942 20.66ZM76.2542 22.26L75.8309 22.5261L76.1603 23.0502L76.6034 22.6179L76.2542 22.26ZM75.0942 21.2L74.8557 21.6394L74.8631 21.6434L74.8706 21.6472L75.0942 21.2ZM72.6542 20.94L72.5105 20.4611L72.6542 20.94ZM72.0542 21.28L72.4078 21.6336L72.4162 21.6251L72.4242 21.6163L72.0542 21.28ZM72.1342 22.36L71.8088 22.7396L71.8169 22.7466L71.8253 22.7532L72.1342 22.36ZM73.1542 22.74L73.0485 23.2287L73.0534 23.2297L73.1542 22.74ZM75.1942 23.16L75.0934 23.6497L75.0949 23.65L75.1942 23.16ZM77.3142 24.18L76.9405 24.5122L76.9452 24.5174L77.3142 24.18ZM77.4342 27.6L77.0216 27.3177L77.0199 27.3201L77.4342 27.6ZM75.9342 28.78L76.1312 29.2396L76.1356 29.2377L75.9342 28.78ZM73.5142 28.7C72.5612 28.7 71.7025 28.531 70.9312 28.2004L70.5373 29.1196C71.4459 29.509 72.4406 29.7 73.5142 29.7V28.7ZM70.9339 28.2016C70.176 27.8715 69.5705 27.413 69.1054 26.8286L68.323 27.4514C68.8979 28.1737 69.6391 28.7285 70.5346 29.1184L70.9339 28.2016ZM69.07 27.4913L70.65 25.8913L69.9384 25.1887L68.3584 26.7887L69.07 27.4913ZM69.8782 25.8174C70.2438 26.3658 70.7293 26.8109 71.325 27.1535L71.8235 26.2865C71.3525 26.0157 70.9846 25.6742 70.7102 25.2626L69.8782 25.8174ZM71.325 27.1535C71.9475 27.5114 72.6703 27.68 73.4742 27.68V26.68C72.8115 26.68 72.2676 26.5419 71.8235 26.2865L71.325 27.1535ZM73.4742 27.68C74.0331 27.68 74.5297 27.6025 74.9299 27.4111L74.4985 26.5089C74.2854 26.6109 73.9554 26.68 73.4742 26.68V27.68ZM74.9378 27.4072C75.1603 27.296 75.3557 27.1399 75.4937 26.9271C75.633 26.7123 75.6942 26.4699 75.6942 26.22H74.6942C74.6942 26.3034 74.6754 26.3511 74.6547 26.3829C74.6328 26.4168 74.5881 26.464 74.4906 26.5128L74.9378 27.4072ZM75.6942 26.22C75.6942 25.8783 75.5712 25.5698 75.3278 25.3264L74.6207 26.0336C74.6706 26.0835 74.6942 26.135 74.6942 26.22H75.6942ZM75.3428 25.3421C75.0824 25.058 74.6506 24.9069 74.198 24.8109L73.9905 25.7891C74.4179 25.8798 74.5727 25.982 74.6056 26.0179L75.3428 25.3421ZM74.1944 24.8101L72.4344 24.4501L72.234 25.4299L73.994 25.7899L74.1944 24.8101ZM72.4355 24.4504C71.3095 24.2174 70.5947 23.8828 70.2029 23.5016L69.5055 24.2184C70.1004 24.7972 71.039 25.1826 72.2329 25.4296L72.4355 24.4504ZM70.2126 23.5113C69.8349 23.1232 69.6342 22.6206 69.6342 21.96H68.6342C68.6342 22.8461 68.9135 23.6102 69.4959 24.2087L70.2126 23.5113ZM69.6342 21.96C69.6342 21.5176 69.7618 21.1 70.0302 20.6973L69.1982 20.1426C68.8266 20.7 68.6342 21.309 68.6342 21.96H69.6342ZM70.0249 20.7052C70.2959 20.315 70.7099 19.9806 71.299 19.7161L70.8894 18.8039C70.1719 19.126 69.5992 19.565 69.2035 20.1348L70.0249 20.7052ZM71.3067 19.7126C71.8746 19.446 72.61 19.3 73.5342 19.3V18.3C72.5117 18.3 71.6205 18.4606 70.8818 18.8074L71.3067 19.7126ZM73.5342 19.3C74.4821 19.3 75.2776 19.4518 75.9342 19.7383L76.3342 18.8217C75.5241 18.4682 74.5864 18.3 73.5342 18.3V19.3ZM75.9443 19.7425C76.6094 20.0157 77.1165 20.4175 77.4838 20.9455L78.3047 20.3745C77.8186 19.6758 77.1524 19.1576 76.3242 18.8175L75.9443 19.7425ZM77.5451 20.3021L75.9051 21.9021L76.6034 22.6179L78.2434 21.0179L77.5451 20.3021ZM76.6775 21.9939C76.3369 21.4519 75.882 21.0349 75.3178 20.7528L74.8706 21.6472C75.2664 21.8451 75.5849 22.1347 75.8309 22.5261L76.6775 21.9939ZM75.3328 20.7606C74.7945 20.4684 74.2194 20.32 73.6142 20.32V21.32C74.0491 21.32 74.4606 21.425 74.8557 21.6394L75.3328 20.7606ZM73.6142 20.32C73.2077 20.32 72.8366 20.3633 72.5105 20.4611L72.7979 21.4189C73.0052 21.3567 73.2741 21.32 73.6142 21.32V20.32ZM72.5105 20.4611C72.1904 20.5571 71.8986 20.7079 71.6842 20.9437L72.4242 21.6163C72.4766 21.5587 72.5847 21.4829 72.7979 21.4189L72.5105 20.4611ZM71.7007 20.9264C71.4609 21.1662 71.3542 21.473 71.3542 21.8H72.3542C72.3542 21.7003 72.3808 21.6605 72.4078 21.6336L71.7007 20.9264ZM71.3542 21.8C71.3542 22.1823 71.5301 22.5007 71.8088 22.7396L72.4596 21.9804C72.365 21.8993 72.3542 21.8443 72.3542 21.8H71.3542ZM71.8253 22.7532C72.1081 22.9754 72.5464 23.1201 73.0486 23.2287L73.2599 22.2513C72.7754 22.1465 72.5337 22.038 72.4431 21.9668L71.8253 22.7532ZM73.0534 23.2297L75.0934 23.6497L75.295 22.6703L73.255 22.2503L73.0534 23.2297ZM75.0949 23.65C76.0317 23.8399 76.6164 24.1475 76.9405 24.5122L77.6879 23.8478C77.1588 23.2525 76.3301 22.8801 75.2935 22.67L75.0949 23.65ZM76.9452 24.5174C77.2827 24.8865 77.4542 25.3308 77.4542 25.88H78.4542C78.4542 25.0959 78.1991 24.4068 77.6832 23.8426L76.9452 24.5174ZM77.4542 25.88C77.4542 26.4238 77.3088 26.8978 77.0216 27.3177L77.8469 27.8823C78.253 27.2888 78.4542 26.6162 78.4542 25.88H77.4542ZM77.0199 27.3201C76.7501 27.7194 76.3325 28.0585 75.7328 28.3223L76.1356 29.2377C76.8692 28.9149 77.4517 28.4672 77.8485 27.8799L77.0199 27.3201ZM75.7373 28.3204C75.1639 28.5662 74.4289 28.7 73.5142 28.7V29.7C74.5196 29.7 75.3979 29.5538 76.1312 29.2396L75.7373 28.3204ZM83.6792 15.94H84.1792V15.2824L83.5456 15.4582L83.6792 15.94ZM84.0392 26.8L83.6959 27.1635L83.7063 27.1733L83.7171 27.1825L84.0392 26.8ZM85.9392 26.98L86.1121 27.4492L86.1228 27.4452L86.1332 27.4408L85.9392 26.98ZM86.6192 26.56L87.1052 26.4425L86.9123 25.6444L86.2918 26.1822L86.6192 26.56ZM87.0592 28.38L87.3696 28.772L87.6204 28.5735L87.5452 28.2625L87.0592 28.38ZM85.8592 28.98L85.7131 28.5018L85.8592 28.98ZM82.5592 28.9L82.3756 29.3651L82.3797 29.3667L82.5592 28.9ZM81.3592 27.94L80.9373 28.2085L80.9432 28.2174L81.3592 27.94ZM80.9392 16.7L80.8056 16.2182L80.4392 16.3198V16.7H80.9392ZM86.8792 19H87.3792V18.5H86.8792V19ZM86.8792 21.04V21.54H87.3792V21.04H86.8792ZM79.0992 21.04H78.5992V21.54H79.0992V21.04ZM79.0992 19V18.5H78.5992V19H79.0992ZM83.1792 15.94V25.74H84.1792V15.94H83.1792ZM83.1792 25.74C83.1792 26.2945 83.3178 26.8064 83.6959 27.1635L84.3825 26.4365C84.2806 26.3402 84.1792 26.1455 84.1792 25.74H83.1792ZM83.7171 27.1825C84.084 27.4914 84.5493 27.62 85.0592 27.62V26.62C84.7158 26.62 84.5011 26.5353 84.3613 26.4175L83.7171 27.1825ZM85.0592 27.62C85.4382 27.62 85.7921 27.567 86.1121 27.4492L85.7664 26.5108C85.5797 26.5796 85.3469 26.62 85.0592 26.62V27.62ZM86.1332 27.4408C86.4333 27.3145 86.7053 27.147 86.9467 26.9378L86.2918 26.1822C86.1331 26.3197 85.9518 26.4322 85.7452 26.5192L86.1332 27.4408ZM86.1332 26.6775L86.5732 28.4975L87.5452 28.2625L87.1052 26.4425L86.1332 26.6775ZM86.7489 27.988C86.4876 28.1948 86.1467 28.3693 85.7131 28.5018L86.0053 29.4582C86.5317 29.2973 86.9909 29.0718 87.3696 28.772L86.7489 27.988ZM85.7131 28.5018C85.2833 28.6331 84.8261 28.7 84.3392 28.7V29.7C84.919 29.7 85.4751 29.6202 86.0053 29.4582L85.7131 28.5018ZM84.3392 28.7C83.7222 28.7 83.1914 28.6074 82.7387 28.4333L82.3797 29.3667C82.967 29.5926 83.623 29.7 84.3392 29.7V28.7ZM82.7428 28.4349C82.3279 28.2711 82.0103 28.0152 81.7752 27.6626L80.9432 28.2174C81.2948 28.7448 81.7772 29.1289 82.3756 29.3651L82.7428 28.4349ZM81.7811 27.6716C81.5689 27.3381 81.4392 26.8552 81.4392 26.18H80.4392C80.4392 26.9715 80.5896 27.6619 80.9374 28.2084L81.7811 27.6716ZM81.4392 26.18V16.7H80.4392V26.18H81.4392ZM81.0729 17.1818L83.8129 16.4218L83.5456 15.4582L80.8056 16.2182L81.0729 17.1818ZM86.3792 19V21.04H87.3792V19H86.3792ZM86.8792 20.54H79.0992V21.54H86.8792V20.54ZM79.5992 21.04V19H78.5992V21.04H79.5992ZM79.0992 19.5H86.8792V18.5H79.0992V19.5ZM90.613 28.58L90.3773 29.021L90.3804 29.0226L90.613 28.58ZM88.813 26.8L89.2508 26.5585L88.813 26.8ZM88.813 21.2L89.2508 21.4415L88.813 21.2ZM90.593 19.42L90.3573 18.979L90.3541 18.9808L90.593 19.42ZM95.813 19.42L95.5605 19.8516L95.5667 19.8551L95.813 19.42ZM97.433 21.08L96.9909 21.3136L96.9927 21.317L97.433 21.08ZM97.913 24.86V25.36H98.3466L98.4079 24.9307L97.913 24.86ZM89.933 24.86H89.433V25.36H89.933V24.86ZM89.933 22.96V22.46H89.433V22.96H89.933ZM96.713 22.96L96.8838 23.4299L96.713 22.46V22.96ZM95.393 23.44H94.893V24.1538L95.5638 23.9099L95.393 23.44ZM94.813 21.5L94.4269 21.8179L94.4325 21.8245L94.813 21.5ZM91.893 21.18L91.6226 20.7594L91.6156 20.764L91.893 21.18ZM91.073 22.26L91.5372 22.4457L91.539 22.4412L91.073 22.26ZM91.093 25.8L90.6334 25.997L90.6368 26.005L90.6406 26.0129L91.093 25.8ZM91.973 26.82L91.7134 27.2474L91.7201 27.2513L91.973 26.82ZM95.613 25.88L95.7927 25.4134L95.3689 25.2501L95.1658 25.6564L95.613 25.88ZM97.793 26.72L98.2556 26.9098L98.4495 26.4371L97.9727 26.2534L97.793 26.72ZM96.813 28.06L96.4894 27.6787L96.4837 27.6837L96.813 28.06ZM95.273 28.92L95.4246 29.3965L95.4311 29.3943L95.273 28.92ZM93.373 28.7C92.3857 28.7 91.5483 28.5066 90.8455 28.1374L90.3804 29.0226C91.251 29.48 92.2536 29.7 93.373 29.7V28.7ZM90.8487 28.139C90.1612 27.7716 89.6311 27.2478 89.2508 26.5585L88.3752 27.0415C88.8482 27.8988 89.5181 28.5617 90.3773 29.021L90.8487 28.139ZM89.2508 26.5585C88.8735 25.8747 88.673 25.0287 88.673 24H87.673C87.673 25.158 87.8991 26.1786 88.3752 27.0415L89.2508 26.5585ZM88.673 24C88.673 22.9713 88.8735 22.1253 89.2508 21.4415L88.3752 20.9585C87.8991 21.8214 87.673 22.842 87.673 24H88.673ZM89.2508 21.4415C89.6324 20.7499 90.1575 20.226 90.8319 19.8592L90.3541 18.9808C89.5084 19.4407 88.8469 20.1035 88.3752 20.9585L89.2508 21.4415ZM90.8287 19.861C91.5208 19.491 92.3181 19.3 93.233 19.3V18.3C92.1745 18.3 91.2118 18.5223 90.3573 18.979L90.8287 19.861ZM93.233 19.3C94.1785 19.3 94.9467 19.4926 95.5605 19.8516L96.0654 18.9884C95.2659 18.5208 94.3141 18.3 93.233 18.3V19.3ZM95.5667 19.8551C96.1916 20.2088 96.6629 20.6928 96.9909 21.3136L97.8751 20.8464C97.4563 20.0538 96.8477 19.4312 96.0593 18.9849L95.5667 19.8551ZM96.9927 21.317C97.3218 21.9282 97.493 22.6381 97.493 23.46H98.493C98.493 22.4952 98.2908 21.6184 97.8732 20.8429L96.9927 21.317ZM97.493 23.46C97.493 23.7184 97.4865 23.9624 97.4737 24.1923L98.4722 24.2477C98.4861 23.9976 98.493 23.7349 98.493 23.46H97.493ZM97.4737 24.1923C97.461 24.4216 97.4422 24.6201 97.418 24.7893L98.4079 24.9307C98.4371 24.7265 98.4583 24.4984 98.4722 24.2477L97.4737 24.1923ZM97.913 24.36H89.933V25.36H97.913V24.36ZM90.433 24.86V22.96H89.433V24.86H90.433ZM89.933 23.46H96.713V22.46H89.933V23.46ZM96.5421 22.4901L95.2221 22.9701L95.5638 23.9099L96.8838 23.4299L96.5421 22.4901ZM95.893 23.44C95.893 22.5293 95.6836 21.7503 95.1934 21.1755L94.4325 21.8245C94.7156 22.1564 94.893 22.6707 94.893 23.44H95.893ZM95.1989 21.1821C94.7131 20.5922 94.0257 20.32 93.213 20.32V21.32C93.7869 21.32 94.1662 21.5012 94.427 21.8179L95.1989 21.1821ZM93.213 20.32C92.6244 20.32 92.0875 20.4605 91.6226 20.7594L92.1633 21.6006C92.4451 21.4195 92.7882 21.32 93.213 21.32V20.32ZM91.6156 20.764C91.1548 21.0712 90.8236 21.5216 90.607 22.0788L91.539 22.4412C91.6956 22.0384 91.9111 21.7688 92.1703 21.596L91.6156 20.764ZM90.6087 22.0743C90.3906 22.6197 90.293 23.2817 90.293 24.04H91.293C91.293 23.3583 91.382 22.8336 91.5372 22.4457L90.6087 22.0743ZM90.293 24.04C90.293 24.7896 90.3985 25.4488 90.6334 25.997L91.5525 25.603C91.3875 25.2179 91.293 24.7037 91.293 24.04H90.293ZM90.6406 26.0129C90.8894 26.5417 91.2443 26.9625 91.7135 27.2474L92.2325 26.3926C91.955 26.2241 91.7232 25.965 91.5454 25.5871L90.6406 26.0129ZM91.7201 27.2513C92.1969 27.5308 92.7477 27.66 93.353 27.66V26.66C92.8916 26.66 92.5224 26.5625 92.2258 26.3887L91.7201 27.2513ZM93.353 27.66C93.9995 27.66 94.5748 27.5356 95.0394 27.2431L94.5066 26.3969C94.2512 26.5577 93.8798 26.66 93.353 26.66V27.66ZM95.0394 27.2431C95.4808 26.9652 95.8215 26.581 96.0602 26.1036L95.1658 25.6564C95.0045 25.979 94.7851 26.2215 94.5066 26.3969L95.0394 27.2431ZM95.4332 26.3466L97.6132 27.1866L97.9727 26.2534L95.7927 25.4134L95.4332 26.3466ZM97.3304 26.5302C97.1483 26.9742 96.8701 27.3558 96.4895 27.6787L97.1365 28.4413C97.6358 28.0176 98.011 27.5058 98.2556 26.9098L97.3304 26.5302ZM96.4837 27.6837C96.1125 28.0085 95.6591 28.2642 95.1149 28.4457L95.4311 29.3943C96.0868 29.1758 96.6601 28.8581 97.1422 28.4363L96.4837 27.6837ZM95.1214 28.4435C94.5886 28.6131 94.0069 28.7 93.373 28.7V29.7C94.0991 29.7 94.784 29.6003 95.4246 29.3965L95.1214 28.4435ZM101.535 28.66L101.335 29.1184L101.338 29.1196L101.535 28.66ZM99.515 27.14L99.1592 26.7887L98.8475 27.1043L99.1238 27.4514L99.515 27.14ZM101.095 25.54L101.511 25.2626L101.171 24.7519L100.739 25.1887L101.095 25.54ZM102.375 26.72L102.624 26.2865L102.375 26.72ZM105.515 26.96L105.731 27.4111L105.739 27.4072L105.515 26.96ZM105.775 25.68L105.406 26.0179L105.414 26.0259L105.421 26.0336L105.775 25.68ZM104.895 25.3L104.999 24.8109L104.995 24.8101L104.895 25.3ZM103.135 24.94L103.034 25.4296L103.035 25.4299L103.135 24.94ZM100.655 23.86L100.297 24.2088L100.306 24.2184L100.655 23.86ZM100.415 20.42L100.004 20.1348L99.999 20.1426L100.415 20.42ZM101.895 19.26L102.1 19.7162L102.107 19.7126L101.895 19.26ZM106.935 19.28L106.735 19.7384L106.745 19.7425L106.935 19.28ZM108.695 20.66L109.044 21.0179L109.347 20.7221L109.105 20.3745L108.695 20.66ZM107.055 22.26L106.632 22.5261L106.961 23.0502L107.404 22.6179L107.055 22.26ZM105.895 21.2L105.656 21.6394L105.664 21.6434L105.671 21.6472L105.895 21.2ZM103.455 20.94L103.311 20.4611L103.455 20.94ZM102.855 21.28L103.209 21.6336L103.217 21.6251L103.225 21.6163L102.855 21.28ZM102.935 22.36L102.61 22.7396L102.618 22.7466L102.626 22.7532L102.935 22.36ZM103.955 22.74L103.849 23.2287L103.854 23.2297L103.955 22.74ZM105.995 23.16L105.894 23.6497L105.896 23.65L105.995 23.16ZM108.115 24.18L107.741 24.5122L107.746 24.5174L108.115 24.18ZM108.235 27.6L107.822 27.3177L107.821 27.3201L108.235 27.6ZM106.735 28.78L106.932 29.2396L106.936 29.2377L106.735 28.78ZM104.315 28.7C103.362 28.7 102.503 28.531 101.732 28.2004L101.338 29.1196C102.247 29.509 103.241 29.7 104.315 29.7V28.7ZM101.735 28.2016C100.977 27.8715 100.371 27.413 99.9062 26.8286L99.1238 27.4514C99.6987 28.1737 100.44 28.7285 101.335 29.1184L101.735 28.2016ZM99.8708 27.4913L101.451 25.8913L100.739 25.1887L99.1592 26.7887L99.8708 27.4913ZM100.679 25.8174C101.045 26.3658 101.53 26.8109 102.126 27.1535L102.624 26.2865C102.153 26.0157 101.785 25.6742 101.511 25.2626L100.679 25.8174ZM102.126 27.1535C102.748 27.5114 103.471 27.68 104.275 27.68V26.68C103.612 26.68 103.068 26.5419 102.624 26.2865L102.126 27.1535ZM104.275 27.68C104.834 27.68 105.331 27.6025 105.731 27.4111L105.299 26.5089C105.086 26.6109 104.756 26.68 104.275 26.68V27.68ZM105.739 27.4072C105.961 27.296 106.156 27.1399 106.294 26.9271C106.434 26.7123 106.495 26.4699 106.495 26.22H105.495C105.495 26.3034 105.476 26.3511 105.456 26.3829C105.434 26.4168 105.389 26.464 105.291 26.5128L105.739 27.4072ZM106.495 26.22C106.495 25.8783 106.372 25.5698 106.129 25.3264L105.421 26.0336C105.471 26.0835 105.495 26.135 105.495 26.22H106.495ZM106.144 25.3421C105.883 25.058 105.451 24.9069 104.999 24.8109L104.791 25.7891C105.219 25.8798 105.374 25.982 105.406 26.0179L106.144 25.3421ZM104.995 24.8101L103.235 24.4501L103.035 25.4299L104.795 25.7899L104.995 24.8101ZM103.236 24.4504C102.11 24.2174 101.395 23.8828 101.004 23.5016L100.306 24.2184C100.901 24.7972 101.84 25.1826 103.034 25.4296L103.236 24.4504ZM101.013 23.5113C100.636 23.1232 100.435 22.6206 100.435 21.96H99.435C99.435 22.8461 99.7143 23.6102 100.297 24.2087L101.013 23.5113ZM100.435 21.96C100.435 21.5176 100.563 21.1 100.831 20.6973L99.999 20.1426C99.6274 20.7 99.435 21.309 99.435 21.96H100.435ZM100.826 20.7052C101.097 20.315 101.511 19.9806 102.1 19.7161L101.69 18.8039C100.973 19.126 100.4 19.565 100.004 20.1348L100.826 20.7052ZM102.107 19.7126C102.675 19.446 103.411 19.3 104.335 19.3V18.3C103.313 18.3 102.421 18.4606 101.683 18.8074L102.107 19.7126ZM104.335 19.3C105.283 19.3 106.078 19.4518 106.735 19.7383L107.135 18.8217C106.325 18.4682 105.387 18.3 104.335 18.3V19.3ZM106.745 19.7425C107.41 20.0157 107.917 20.4175 108.285 20.9455L109.105 20.3745C108.619 19.6758 107.953 19.1576 107.125 18.8175L106.745 19.7425ZM108.346 20.3021L106.706 21.9021L107.404 22.6179L109.044 21.0179L108.346 20.3021ZM107.478 21.9939C107.138 21.4519 106.683 21.0349 106.119 20.7528L105.671 21.6472C106.067 21.8451 106.386 22.1347 106.632 22.5261L107.478 21.9939ZM106.134 20.7606C105.595 20.4684 105.02 20.32 104.415 20.32V21.32C104.85 21.32 105.261 21.425 105.656 21.6394L106.134 20.7606ZM104.415 20.32C104.008 20.32 103.637 20.3633 103.311 20.4611L103.599 21.4189C103.806 21.3567 104.075 21.32 104.415 21.32V20.32ZM103.311 20.4611C102.991 20.5571 102.699 20.7079 102.485 20.9437L103.225 21.6163C103.277 21.5587 103.385 21.4829 103.599 21.4189L103.311 20.4611ZM102.501 20.9264C102.262 21.1662 102.155 21.473 102.155 21.8H103.155C103.155 21.7003 103.182 21.6605 103.209 21.6336L102.501 20.9264ZM102.155 21.8C102.155 22.1823 102.331 22.5007 102.61 22.7396L103.26 21.9804C103.166 21.8993 103.155 21.8443 103.155 21.8H102.155ZM102.626 22.7532C102.909 22.9754 103.347 23.1201 103.849 23.2287L104.061 22.2513C103.576 22.1465 103.334 22.038 103.244 21.9668L102.626 22.7532ZM103.854 23.2297L105.894 23.6497L106.096 22.6703L104.056 22.2503L103.854 23.2297ZM105.896 23.65C106.832 23.8399 107.417 24.1475 107.741 24.5122L108.489 23.8478C107.96 23.2525 107.131 22.8801 106.094 22.67L105.896 23.65ZM107.746 24.5174C108.084 24.8865 108.255 25.3308 108.255 25.88H109.255C109.255 25.0959 109 24.4068 108.484 23.8426L107.746 24.5174ZM108.255 25.88C108.255 26.4238 108.11 26.8978 107.822 27.3177L108.648 27.8823C109.054 27.2888 109.255 26.6162 109.255 25.88H108.255ZM107.821 27.3201C107.551 27.7194 107.133 28.0585 106.534 28.3223L106.936 29.2377C107.67 28.9149 108.252 28.4672 108.649 27.8799L107.821 27.3201ZM106.538 28.3204C105.965 28.5662 105.23 28.7 104.315 28.7V29.7C105.32 29.7 106.199 29.5538 106.932 29.2396L106.538 28.3204Z" fill="#111827"/>
<path d="M133.5 20L145.5 17M133.5 29V16L145.5 13V26L133.5 29ZM133.5 29C133.5 30.105 132.157 31 130.5 31C128.843 31 127.5 30.105 127.5 29C127.5 27.895 128.843 27 130.5 27C132.157 27 133.5 27.895 133.5 29ZM145.5 26C145.5 27.105 144.157 28 142.5 28C140.843 28 139.5 27.105 139.5 26C139.5 24.895 140.843 24 142.5 24C144.157 24 145.5 24.895 145.5 26Z" stroke="#111827" stroke-width="2" stroke-linecap="round" stroke-linejoin="round"/>
<path d="M170.64 29.2C169.427 29.2 168.36 28.9333 167.44 28.4C166.533 27.8667 165.827 27.0933 165.32 26.08C164.813 25.0667 164.56 23.8467 164.56 22.42C164.56 21.0067 164.827 19.7933 165.36 18.78C165.893 17.7533 166.647 16.9667 167.62 16.42C168.607 15.8733 169.747 15.6 171.04 15.6C172.467 15.6 173.62 15.8667 174.5 16.4C175.38 16.92 176.08 17.7333 176.6 18.84L174.04 19.94C173.827 19.2333 173.46 18.7133 172.94 18.38C172.433 18.0333 171.807 17.86 171.06 17.86C170.313 17.86 169.667 18.04 169.12 18.4C168.573 18.7467 168.153 19.26 167.86 19.94C167.567 20.6067 167.42 21.4267 167.42 22.4C167.42 23.4 167.56 24.2467 167.84 24.94C168.12 25.62 168.533 26.1333 169.08 26.48C169.64 26.8133 170.327 26.98 171.14 26.98C171.58 26.98 171.987 26.9267 172.36 26.82C172.747 26.7133 173.08 26.5533 173.36 26.34C173.64 26.1267 173.86 25.8533 174.02 25.52C174.18 25.1867 174.26 24.8 174.26 24.36V24.06H170.8V22.04H176.64V29H174.7L174.5 26.12L174.98 26.46C174.687 27.34 174.167 28.02 173.42 28.5C172.687 28.9667 171.76 29.2 170.64 29.2ZM179.393 29V19H181.773L181.953 20.96C182.22 20.2667 182.606 19.7333 183.113 19.36C183.633 18.9867 184.28 18.8 185.053 18.8C185.28 18.8 185.486 18.82 185.673 18.86C185.86 18.9 186.013 18.9533 186.133 19.02L185.813 21.32C185.68 21.2667 185.513 21.2267 185.313 21.2C185.126 21.1733 184.88 21.16 184.573 21.16C184.173 21.16 183.786 21.26 183.413 21.46C183.04 21.6467 182.733 21.94 182.493 22.34C182.253 22.7267 182.133 23.22 182.133 23.82V29H179.393ZM192.195 18.8C193.209 18.8 194.095 19.0067 194.855 19.42C195.629 19.8333 196.229 20.4267 196.655 21.2C197.095 21.9733 197.315 22.9067 197.315 24C197.315 25.08 197.095 26.0133 196.655 26.8C196.229 27.5733 195.629 28.1667 194.855 28.58C194.095 28.9933 193.209 29.2 192.195 29.2C191.195 29.2 190.309 28.9933 189.535 28.58C188.762 28.1667 188.155 27.5733 187.715 26.8C187.289 26.0133 187.075 25.08 187.075 24C187.075 22.9067 187.289 21.9733 187.715 21.2C188.155 20.4267 188.762 19.8333 189.535 19.42C190.309 19.0067 191.195 18.8 192.195 18.8ZM192.195 20.84C191.689 20.84 191.255 20.96 190.895 21.2C190.549 21.4267 190.282 21.7733 190.095 22.24C189.909 22.7067 189.815 23.2933 189.815 24C189.815 24.7067 189.909 25.2933 190.095 25.76C190.282 26.2267 190.549 26.58 190.895 26.82C191.255 27.0467 191.689 27.16 192.195 27.16C192.689 27.16 193.109 27.0467 193.455 26.82C193.815 26.58 194.089 26.2267 194.275 25.76C194.462 25.2933 194.555 24.7067 194.555 24C194.555 23.2933 194.462 22.7067 194.275 22.24C194.089 21.7733 193.815 21.4267 193.455 21.2C193.109 20.96 192.689 20.84 192.195 20.84ZM203.088 29.2C202.421 29.2 201.821 29.08 201.288 28.84C200.755 28.6 200.328 28.22 200.008 27.7C199.701 27.1667 199.548 26.48 199.548 25.64V19H202.288V24.98C202.288 25.7533 202.448 26.2933 202.768 26.6C203.088 26.8933 203.548 27.04 204.148 27.04C204.428 27.04 204.701 26.9933 204.968 26.9C205.235 26.7933 205.468 26.6333 205.668 26.42C205.881 26.2067 206.048 25.9333 206.168 25.6C206.288 25.2533 206.348 24.8467 206.348 24.38V19H209.088V29H206.648L206.548 27.26C206.215 27.9267 205.755 28.42 205.168 28.74C204.595 29.0467 203.901 29.2 203.088 29.2ZM211.971 33.2V19H214.431L214.611 22.18L214.271 21.82C214.391 21.2333 214.611 20.7133 214.931 20.26C215.265 19.8067 215.685 19.4533 216.191 19.2C216.698 18.9333 217.265 18.8 217.891 18.8C218.705 18.8 219.431 19.0067 220.071 19.42C220.711 19.8333 221.211 20.4267 221.571 21.2C221.945 21.96 222.131 22.8867 222.131 23.98C222.131 25.0733 221.945 26.0133 221.571 26.8C221.198 27.5733 220.685 28.1667 220.031 28.58C219.391 28.9933 218.658 29.2 217.831 29.2C216.951 29.2 216.218 28.9533 215.631 28.46C215.058 27.9667 214.665 27.3467 214.451 26.6L214.711 26.18V33.2H211.971ZM217.031 27.1C217.765 27.1 218.338 26.84 218.751 26.32C219.178 25.7867 219.391 25.0133 219.391 24C219.391 22.9867 219.185 22.22 218.771 21.7C218.371 21.1667 217.805 20.9 217.071 20.9C216.605 20.9 216.191 21.0267 215.831 21.28C215.485 21.52 215.211 21.8733 215.011 22.34C214.811 22.7933 214.711 23.3467 214.711 24C214.711 24.64 214.805 25.1933 214.991 25.66C215.178 26.1267 215.445 26.4867 215.791 26.74C216.151 26.98 216.565 27.1 217.031 27.1ZM229.15 29.2C228.097 29.2 227.177 28.9933 226.39 28.58C225.617 28.1667 225.017 27.5733 224.59 26.8C224.164 26.0267 223.95 25.0933 223.95 24C223.95 22.9067 224.164 21.9733 224.59 21.2C225.017 20.4267 225.61 19.8333 226.37 19.42C227.144 19.0067 228.024 18.8 229.01 18.8C230.024 18.8 230.884 19.0067 231.59 19.42C232.297 19.82 232.837 20.3733 233.21 21.08C233.584 21.7733 233.77 22.5667 233.77 23.46C233.77 23.7267 233.764 23.98 233.75 24.22C233.737 24.46 233.717 24.6733 233.69 24.86H225.71V22.96H232.49L231.17 23.44C231.17 22.6 230.977 21.9533 230.59 21.5C230.217 21.0467 229.684 20.82 228.99 20.82C228.484 20.82 228.044 20.94 227.67 21.18C227.31 21.42 227.037 21.78 226.85 22.26C226.664 22.7267 226.57 23.32 226.57 24.04C226.57 24.7467 226.67 25.3333 226.87 25.8C227.084 26.2533 227.377 26.5933 227.75 26.82C228.137 27.0467 228.597 27.16 229.13 27.16C229.717 27.16 230.19 27.0467 230.55 26.82C230.91 26.5933 231.19 26.28 231.39 25.88L233.57 26.72C233.357 27.24 233.03 27.6867 232.59 28.06C232.164 28.4333 231.65 28.72 231.05 28.92C230.464 29.1067 229.83 29.2 229.15 29.2ZM240.092 29.2C239.079 29.2 238.152 29.02 237.312 28.66C236.486 28.3 235.812 27.7933 235.292 27.14L236.872 25.54C237.192 26.02 237.619 26.4133 238.152 26.72C238.686 27.0267 239.319 27.18 240.052 27.18C240.572 27.18 240.986 27.1067 241.292 26.96C241.612 26.8 241.772 26.5533 241.772 26.22C241.772 26.0067 241.699 25.8267 241.552 25.68C241.406 25.52 241.112 25.3933 240.672 25.3L238.912 24.94C237.752 24.7 236.926 24.34 236.432 23.86C235.952 23.3667 235.712 22.7333 235.712 21.96C235.712 21.4133 235.872 20.9 236.192 20.42C236.526 19.94 237.019 19.5533 237.672 19.26C238.326 18.9533 239.139 18.8 240.112 18.8C241.112 18.8 241.979 18.96 242.712 19.28C243.459 19.5867 244.046 20.0467 244.472 20.66L242.832 22.26C242.539 21.7933 242.152 21.44 241.672 21.2C241.206 20.9467 240.712 20.82 240.192 20.82C239.819 20.82 239.499 20.86 239.232 20.94C238.966 21.02 238.766 21.1333 238.632 21.28C238.499 21.4133 238.432 21.5867 238.432 21.8C238.432 22.0133 238.526 22.2 238.712 22.36C238.899 22.5067 239.239 22.6333 239.732 22.74L241.772 23.16C242.759 23.36 243.466 23.7 243.892 24.18C244.319 24.6467 244.532 25.2133 244.532 25.88C244.532 26.52 244.359 27.0933 244.012 27.6C243.679 28.0933 243.179 28.4867 242.512 28.78C241.859 29.06 241.052 29.2 240.092 29.2Z" fill="white"/>
<path d="M167.44 28.4L167.186 28.831L167.189 28.8326L167.44 28.4ZM165.32 26.08L165.767 25.8564L165.32 26.08ZM165.36 18.78L165.802 19.0129L165.804 19.0105L165.36 18.78ZM167.62 16.42L167.378 15.9826L167.375 15.9841L167.62 16.42ZM174.5 16.4L174.241 16.8276L174.246 16.8305L174.5 16.4ZM176.6 18.84L176.797 19.2994L177.272 19.0953L177.053 18.6274L176.6 18.84ZM174.04 19.94L173.561 20.0845L173.723 20.6204L174.237 20.3994L174.04 19.94ZM172.94 18.38L172.658 18.7927L172.664 18.7969L172.67 18.8009L172.94 18.38ZM169.12 18.4L169.388 18.8223L169.395 18.8176L169.12 18.4ZM167.86 19.94L168.318 20.1414L168.319 20.138L167.86 19.94ZM167.84 24.94L167.376 25.1272L167.378 25.1304L167.84 24.94ZM169.08 26.48L168.812 26.9024L168.824 26.9096L169.08 26.48ZM172.36 26.82L172.227 26.338L172.223 26.3392L172.36 26.82ZM173.36 26.34L173.663 26.7377L173.663 26.7377L173.36 26.34ZM174.26 24.06H174.76V23.56H174.26V24.06ZM170.8 24.06H170.3V24.56H170.8V24.06ZM170.8 22.04V21.54H170.3V22.04H170.8ZM176.64 22.04H177.14V21.54H176.64V22.04ZM176.64 29V29.5H177.14V29H176.64ZM174.7 29L174.201 29.0346L174.234 29.5H174.7V29ZM174.5 26.12L174.789 25.712L173.928 25.1022L174.001 26.1546L174.5 26.12ZM174.98 26.46L175.454 26.6181L175.572 26.2663L175.269 26.052L174.98 26.46ZM173.42 28.5L173.688 28.9218L173.69 28.9206L173.42 28.5ZM170.64 28.7C169.502 28.7 168.524 28.4507 167.691 27.9674L167.189 28.8326C168.196 29.416 169.351 29.7 170.64 29.7V28.7ZM167.694 27.969C166.877 27.4885 166.234 26.7903 165.767 25.8564L164.873 26.3036C165.419 27.3964 166.19 28.2449 167.186 28.831L167.694 27.969ZM165.767 25.8564C165.303 24.9281 165.06 23.7887 165.06 22.42H164.06C164.06 23.9047 164.324 25.2052 164.873 26.3036L165.767 25.8564ZM165.06 22.42C165.06 21.0691 165.315 19.9395 165.802 19.0129L164.918 18.5471C164.339 19.6472 164.06 20.9442 164.06 22.42H165.06ZM165.804 19.0105C166.294 18.0669 166.98 17.3531 167.865 16.8559L167.375 15.9841C166.314 16.5802 165.493 17.4398 164.916 18.5495L165.804 19.0105ZM167.862 16.8574C168.765 16.3575 169.819 16.1 171.04 16.1V15.1C169.674 15.1 168.449 15.3892 167.378 15.9826L167.862 16.8574ZM171.04 16.1C172.409 16.1 173.464 16.3565 174.241 16.8276L174.759 15.9724C173.776 15.3768 172.524 15.1 171.04 15.1V16.1ZM174.246 16.8305C175.023 17.2901 175.662 18.0187 176.147 19.0526L177.053 18.6274C176.498 17.448 175.737 16.5499 174.754 15.9695L174.246 16.8305ZM176.403 18.3806L173.843 19.4806L174.237 20.3994L176.797 19.2994L176.403 18.3806ZM174.519 19.7955C174.278 18.9981 173.849 18.3687 173.21 17.9591L172.67 18.8009C173.071 19.0579 173.375 19.4686 173.561 20.0845L174.519 19.7955ZM173.222 17.9673C172.616 17.5525 171.885 17.36 171.06 17.36V18.36C171.728 18.36 172.251 18.5142 172.658 18.7927L173.222 17.9673ZM171.06 17.36C170.23 17.36 169.484 17.5614 168.845 17.9824L169.395 18.8176C169.849 18.5186 170.397 18.36 171.06 18.36V17.36ZM168.852 17.9777C168.209 18.3857 167.728 18.9834 167.401 19.742L168.319 20.138C168.579 19.5366 168.938 19.1076 169.388 18.8223L168.852 17.9777ZM167.402 19.7386C167.073 20.4863 166.92 21.3794 166.92 22.4H167.92C167.92 21.4739 168.06 20.7271 168.318 20.1414L167.402 19.7386ZM166.92 22.4C166.92 23.4438 167.066 24.358 167.376 25.1272L168.304 24.7528C168.054 24.1353 167.92 23.3562 167.92 22.4H166.92ZM167.378 25.1304C167.691 25.8924 168.167 26.4929 168.812 26.9023L169.348 26.0577C168.9 25.7737 168.549 25.3476 168.302 24.7496L167.378 25.1304ZM168.824 26.9096C169.479 27.2992 170.259 27.48 171.14 27.48V26.48C170.395 26.48 169.801 26.3275 169.336 26.0504L168.824 26.9096ZM171.14 27.48C171.62 27.48 172.074 27.4218 172.497 27.3008L172.223 26.3392C171.899 26.4316 171.54 26.48 171.14 26.48V27.48ZM172.493 27.302C172.933 27.1807 173.326 26.9948 173.663 26.7377L173.057 25.9423C172.834 26.1119 172.561 26.246 172.227 26.338L172.493 27.302ZM173.663 26.7377C174.009 26.474 174.278 26.1373 174.471 25.7364L173.569 25.3036C173.442 25.5694 173.271 25.7793 173.057 25.9423L173.663 26.7377ZM174.471 25.7364C174.669 25.3239 174.76 24.8608 174.76 24.36H173.76C173.76 24.7392 173.691 25.0495 173.569 25.3036L174.471 25.7364ZM174.76 24.36V24.06H173.76V24.36H174.76ZM174.26 23.56H170.8V24.56H174.26V23.56ZM171.3 24.06V22.04H170.3V24.06H171.3ZM170.8 22.54H176.64V21.54H170.8V22.54ZM176.14 22.04V29H177.14V22.04H176.14ZM176.64 28.5H174.7V29.5H176.64V28.5ZM175.199 28.9654L174.999 26.0854L174.001 26.1546L174.201 29.0346L175.199 28.9654ZM174.211 26.528L174.691 26.868L175.269 26.052L174.789 25.712L174.211 26.528ZM174.506 26.3019C174.247 27.079 173.796 27.664 173.15 28.0794L173.69 28.9206C174.538 28.376 175.127 27.601 175.454 26.6181L174.506 26.3019ZM173.152 28.0782C172.519 28.481 171.692 28.7 170.64 28.7V29.7C171.828 29.7 172.855 29.4524 173.688 28.9218L173.152 28.0782ZM179.393 29H178.893V29.5H179.393V29ZM179.393 19V18.5H178.893V19H179.393ZM181.773 19L182.271 18.9543L182.229 18.5H181.773V19ZM181.953 20.96L181.455 21.0057L182.42 21.1395L181.953 20.96ZM183.113 19.36L182.821 18.9538L182.817 18.9575L183.113 19.36ZM186.133 19.02L186.628 19.0889L186.676 18.7494L186.376 18.5829L186.133 19.02ZM185.813 21.32L185.627 21.7842L186.22 22.0214L186.308 21.3889L185.813 21.32ZM185.313 21.2L185.242 21.695L185.247 21.6956L185.313 21.2ZM183.413 21.46L183.637 21.9074L183.649 21.9007L183.413 21.46ZM182.493 22.34L182.918 22.6037L182.922 22.5972L182.493 22.34ZM182.133 29V29.5H182.633V29H182.133ZM179.893 29V19H178.893V29H179.893ZM179.393 19.5H181.773V18.5H179.393V19.5ZM181.275 19.0457L181.455 21.0057L182.451 20.9143L182.271 18.9543L181.275 19.0457ZM182.42 21.1395C182.658 20.5189 182.993 20.0697 183.41 19.7625L182.817 18.9575C182.22 19.3969 181.781 20.0144 181.486 20.7805L182.42 21.1395ZM183.405 19.7662C183.823 19.4656 184.362 19.3 185.053 19.3V18.3C184.197 18.3 183.443 18.5077 182.822 18.9538L183.405 19.7662ZM185.053 19.3C185.251 19.3 185.422 19.3175 185.568 19.3489L185.778 18.3711C185.551 18.3225 185.309 18.3 185.053 18.3V19.3ZM185.568 19.3489C185.724 19.3823 185.827 19.4217 185.89 19.4571L186.376 18.5829C186.2 18.4849 185.996 18.4177 185.778 18.3711L185.568 19.3489ZM185.638 18.9511L185.318 21.2511L186.308 21.3889L186.628 19.0889L185.638 18.9511ZM185.999 20.8558C185.815 20.7823 185.605 20.7345 185.379 20.7044L185.247 21.6956C185.421 21.7188 185.545 21.7511 185.627 21.7842L185.999 20.8558ZM185.384 20.705C185.164 20.6736 184.891 20.66 184.573 20.66V21.66C184.869 21.66 185.089 21.6731 185.242 21.695L185.384 20.705ZM184.573 20.66C184.086 20.66 183.619 20.7827 183.177 21.0193L183.649 21.9007C183.954 21.7373 184.26 21.66 184.573 21.66V20.66ZM183.19 21.0128C182.721 21.2469 182.347 21.6111 182.064 22.0828L182.922 22.5972C183.119 22.2689 183.358 22.0465 183.637 21.9072L183.19 21.0128ZM182.068 22.0763C181.766 22.5636 181.633 23.1558 181.633 23.82H182.633C182.633 23.2842 182.74 22.8897 182.918 22.6037L182.068 22.0763ZM181.633 23.82V29H182.633V23.82H181.633ZM182.133 28.5H179.393V29.5H182.133V28.5ZM194.855 19.42L194.616 19.8593L194.62 19.861L194.855 19.42ZM196.655 21.2L196.217 21.4416L196.221 21.4473L196.655 21.2ZM196.655 26.8L196.219 26.5559L196.218 26.5585L196.655 26.8ZM194.855 28.58L194.62 28.139L194.616 28.1408L194.855 28.58ZM189.535 28.58L189.771 28.139L189.535 28.58ZM187.715 26.8L187.276 27.0384L187.281 27.0473L187.715 26.8ZM187.715 21.2L187.281 20.9527L187.278 20.9585L187.715 21.2ZM189.535 19.42L189.771 19.861L189.535 19.42ZM190.895 21.2L191.169 21.6185L191.173 21.616L190.895 21.2ZM190.095 22.24L189.631 22.0543L190.095 22.24ZM190.095 25.76L189.631 25.9457L190.095 25.76ZM190.895 26.82L190.611 27.2311L190.62 27.2373L190.629 27.2431L190.895 26.82ZM193.455 26.82L193.729 27.2385L193.733 27.236L193.455 26.82ZM194.275 25.76L194.74 25.9457L194.275 25.76ZM194.275 22.24L194.74 22.0543L194.275 22.24ZM193.455 21.2L193.171 21.6111L193.18 21.6173L193.189 21.6231L193.455 21.2ZM192.195 19.3C193.14 19.3 193.941 19.4921 194.616 19.8592L195.094 18.9808C194.249 18.5212 193.278 18.3 192.195 18.3V19.3ZM194.62 19.861C195.307 20.2284 195.837 20.7522 196.218 21.4415L197.093 20.9585C196.62 20.1012 195.95 19.4383 195.091 18.979L194.62 19.861ZM196.221 21.4473C196.609 22.1298 196.815 22.9737 196.815 24H197.815C197.815 22.8397 197.582 21.8169 197.09 20.9527L196.221 21.4473ZM196.815 24C196.815 25.0115 196.61 25.8573 196.219 26.5559L197.092 27.0441C197.581 26.1693 197.815 25.1485 197.815 24H196.815ZM196.218 26.5585C195.837 27.2478 195.307 27.7716 194.62 28.139L195.091 29.021C195.95 28.5617 196.62 27.8988 197.093 27.0415L196.218 26.5585ZM194.616 28.1408C193.941 28.5079 193.14 28.7 192.195 28.7V29.7C193.278 29.7 194.249 29.4788 195.094 29.0192L194.616 28.1408ZM192.195 28.7C191.266 28.7 190.462 28.5085 189.771 28.139L189.3 29.021C190.155 29.4782 191.125 29.7 192.195 29.7V28.7ZM189.771 28.139C189.082 27.7709 188.544 27.2453 188.15 26.5527L187.281 27.0473C187.767 27.9014 188.442 28.5624 189.3 29.021L189.771 28.139ZM188.155 26.5616C187.775 25.8618 187.575 25.0139 187.575 24H186.575C186.575 25.1461 186.802 26.1648 187.276 27.0384L188.155 26.5616ZM187.575 24C187.575 22.9713 187.776 22.1253 188.153 21.4415L187.278 20.9585C186.801 21.8214 186.575 22.842 186.575 24H187.575ZM188.15 21.4473C188.544 20.7547 189.082 20.2291 189.771 19.861L189.3 18.979C188.442 19.4376 187.767 20.0986 187.281 20.9527L188.15 21.4473ZM189.771 19.861C190.462 19.4915 191.266 19.3 192.195 19.3V18.3C191.125 18.3 190.155 18.5218 189.3 18.979L189.771 19.861ZM192.195 20.34C191.607 20.34 191.073 20.4804 190.618 20.784L191.173 21.616C191.437 21.4396 191.77 21.34 192.195 21.34V20.34ZM190.622 20.7815C190.172 21.0754 189.848 21.513 189.631 22.0543L190.56 22.4257C190.716 22.0337 190.925 21.7779 191.169 21.6185L190.622 20.7815ZM189.631 22.0543C189.413 22.5988 189.315 23.2536 189.315 24H190.315C190.315 23.333 190.404 22.8146 190.56 22.4257L189.631 22.0543ZM189.315 24C189.315 24.7464 189.413 25.4012 189.631 25.9457L190.56 25.5743C190.404 25.1854 190.315 24.667 190.315 24H189.315ZM189.631 25.9457C189.847 26.4857 190.169 26.9252 190.611 27.2311L191.18 26.4089C190.928 26.2348 190.717 25.9676 190.56 25.5743L189.631 25.9457ZM190.629 27.2431C191.083 27.5289 191.613 27.66 192.195 27.66V26.66C191.765 26.66 191.428 26.5644 191.162 26.3969L190.629 27.2431ZM192.195 27.66C192.767 27.66 193.286 27.5278 193.729 27.2385L193.182 26.4015C192.931 26.5655 192.61 26.66 192.195 26.66V27.66ZM193.733 27.236C194.19 26.9313 194.522 26.4907 194.74 25.9457L193.811 25.5743C193.656 25.9627 193.441 26.2287 193.178 26.404L193.733 27.236ZM194.74 25.9457C194.957 25.4012 195.055 24.7464 195.055 24H194.055C194.055 24.667 193.967 25.1854 193.811 25.5743L194.74 25.9457ZM195.055 24C195.055 23.2536 194.957 22.5988 194.74 22.0543L193.811 22.4257C193.967 22.8146 194.055 23.333 194.055 24H195.055ZM194.74 22.0543C194.521 21.5079 194.186 21.0695 193.722 20.7769L193.189 21.6231C193.444 21.7838 193.656 22.0388 193.811 22.4257L194.74 22.0543ZM193.74 20.7889C193.296 20.4817 192.773 20.34 192.195 20.34V21.34C192.605 21.34 192.921 21.4383 193.171 21.6111L193.74 20.7889ZM201.288 28.84L201.083 29.296L201.288 28.84ZM200.008 27.7L199.575 27.9492L199.578 27.9557L199.582 27.962L200.008 27.7ZM199.548 19V18.5H199.048V19H199.548ZM202.288 19H202.788V18.5H202.288V19ZM202.768 26.6L202.422 26.9611L202.43 26.9686L202.768 26.6ZM204.968 26.9L205.133 27.3719L205.143 27.3683L205.154 27.3642L204.968 26.9ZM205.668 26.42L205.314 26.0664L205.309 26.0721L205.303 26.078L205.668 26.42ZM206.168 25.6L206.638 25.7694L206.64 25.7636L206.168 25.6ZM206.348 19V18.5H205.848V19H206.348ZM209.088 19H209.588V18.5H209.088V19ZM209.088 29V29.5H209.588V29H209.088ZM206.648 29L206.149 29.0287L206.176 29.5H206.648V29ZM206.548 27.26L207.047 27.2313L206.94 25.3588L206.101 27.0364L206.548 27.26ZM205.168 28.74L205.404 29.1809L205.407 29.1789L205.168 28.74ZM203.088 28.7C202.482 28.7 201.954 28.5912 201.493 28.384L201.083 29.296C201.689 29.5688 202.36 29.7 203.088 29.7V28.7ZM201.493 28.384C201.055 28.187 200.704 27.8766 200.434 27.438L199.582 27.962C199.952 28.5633 200.454 29.013 201.083 29.296L201.493 28.384ZM200.441 27.4508C200.191 27.016 200.048 26.4232 200.048 25.64H199.048C199.048 26.5368 199.211 27.3173 199.575 27.9492L200.441 27.4508ZM200.048 25.64V19H199.048V25.64H200.048ZM199.548 19.5H202.288V18.5H199.548V19.5ZM201.788 19V24.98H202.788V19H201.788ZM201.788 24.98C201.788 25.795 201.952 26.5101 202.422 26.961L203.114 26.239C202.944 26.0765 202.788 25.7117 202.788 24.98H201.788ZM202.43 26.9686C202.873 27.3741 203.471 27.54 204.148 27.54V26.54C203.625 26.54 203.303 26.4125 203.106 26.2314L202.43 26.9686ZM204.148 27.54C204.485 27.54 204.814 27.4837 205.133 27.3719L204.803 26.4281C204.589 26.503 204.371 26.54 204.148 26.54V27.54ZM205.154 27.3642C205.49 27.2299 205.784 27.0277 206.033 26.762L205.303 26.078C205.152 26.239 204.98 26.3568 204.782 26.4358L205.154 27.3642ZM206.022 26.7736C206.295 26.4999 206.498 26.16 206.638 25.7694L205.698 25.4306C205.598 25.7067 205.467 25.9135 205.314 26.0664L206.022 26.7736ZM206.64 25.7636C206.783 25.3522 206.848 24.8879 206.848 24.38H205.848C205.848 24.8054 205.793 25.1545 205.695 25.4364L206.64 25.7636ZM206.848 24.38V19H205.848V24.38H206.848ZM206.348 19.5H209.088V18.5H206.348V19.5ZM208.588 19V29H209.588V19H208.588ZM209.088 28.5H206.648V29.5H209.088V28.5ZM207.147 28.9713L207.047 27.2313L206.049 27.2887L206.149 29.0287L207.147 28.9713ZM206.101 27.0364C205.808 27.6227 205.415 28.0355 204.929 28.3011L205.407 29.1789C206.094 28.8045 206.622 28.2306 206.995 27.4836L206.101 27.0364ZM204.932 28.2991C204.447 28.5584 203.839 28.7 203.088 28.7V29.7C203.963 29.7 204.742 29.5349 205.404 29.1809L204.932 28.2991ZM211.971 33.2H211.471V33.7H211.971V33.2ZM211.971 19V18.5H211.471V19H211.971ZM214.431 19L214.93 18.9717L214.904 18.5H214.431V19ZM214.611 22.18L214.248 22.5233L215.188 23.5187L215.11 22.1517L214.611 22.18ZM214.271 21.82L213.781 21.7198L213.729 21.9744L213.908 22.1633L214.271 21.82ZM214.931 20.26L214.528 19.9637L214.523 19.9717L214.931 20.26ZM216.191 19.2L216.415 19.6473L216.424 19.6425L216.191 19.2ZM221.571 21.2L221.118 21.4111L221.122 21.4205L221.571 21.2ZM221.571 26.8L222.022 27.0174L222.023 27.0144L221.571 26.8ZM220.031 28.58L219.764 28.1574L219.76 28.16L220.031 28.58ZM215.631 28.46L215.305 28.839L215.309 28.8427L215.631 28.46ZM214.451 26.6L214.026 26.3368L213.91 26.5248L213.97 26.7374L214.451 26.6ZM214.711 26.18H215.211V24.4224L214.286 25.9168L214.711 26.18ZM214.711 33.2V33.7H215.211V33.2H214.711ZM218.751 26.32L218.361 26.0077L218.36 26.0089L218.751 26.32ZM218.771 21.7L218.371 22.0001L218.38 22.0111L218.771 21.7ZM215.831 21.28L216.116 21.6911L216.119 21.6889L215.831 21.28ZM215.011 22.34L215.469 22.5418L215.471 22.537L215.011 22.34ZM214.991 25.66L214.527 25.8457L214.991 25.66ZM215.791 26.74L215.496 27.1437L215.505 27.1501L215.514 27.156L215.791 26.74ZM212.471 33.2V19H211.471V33.2H212.471ZM211.971 19.5H214.431V18.5H211.971V19.5ZM213.932 19.0283L214.112 22.2083L215.11 22.1517L214.93 18.9717L213.932 19.0283ZM214.975 21.8367L214.635 21.4767L213.908 22.1633L214.248 22.5233L214.975 21.8367ZM214.761 21.9202C214.868 21.3958 215.063 20.9409 215.34 20.5483L214.523 19.9717C214.16 20.4858 213.914 21.0709 213.781 21.7198L214.761 21.9202ZM215.334 20.5562C215.62 20.1671 215.979 19.8654 216.415 19.6472L215.968 18.7528C215.391 19.0413 214.909 19.4462 214.528 19.9638L215.334 20.5562ZM216.424 19.6425C216.852 19.4171 217.338 19.3 217.891 19.3V18.3C217.191 18.3 216.543 18.4496 215.958 18.7575L216.424 19.6425ZM217.891 19.3C218.615 19.3 219.246 19.4825 219.8 19.84L220.343 19C219.616 18.5309 218.794 18.3 217.891 18.3V19.3ZM219.8 19.84C220.352 20.1963 220.793 20.7126 221.118 21.411L222.025 20.989C221.63 20.1408 221.071 19.4704 220.343 19L219.8 19.84ZM221.122 21.4205C221.454 22.0949 221.631 22.9416 221.631 23.98H222.631C222.631 22.8317 222.435 21.8251 222.02 20.9795L221.122 21.4205ZM221.631 23.98C221.631 25.0176 221.454 25.8808 221.12 26.5856L222.023 27.0144C222.435 26.1459 222.631 25.1291 222.631 23.98H221.631ZM221.121 26.5826C220.784 27.2814 220.33 27.7995 219.764 28.1575L220.299 29.0025C221.039 28.5338 221.612 27.8652 222.022 27.0174L221.121 26.5826ZM219.76 28.16C219.208 28.5167 218.57 28.7 217.831 28.7V29.7C218.746 29.7 219.575 29.47 220.303 29L219.76 28.16ZM217.831 28.7C217.051 28.7 216.436 28.4838 215.953 28.0773L215.309 28.8427C215.999 29.4229 216.852 29.7 217.831 29.7V28.7ZM215.957 28.081C215.46 27.6532 215.119 27.118 214.932 26.4626L213.97 26.7374C214.21 27.5753 214.656 28.2802 215.305 28.839L215.957 28.081ZM214.876 26.8632L215.136 26.4432L214.286 25.9168L214.026 26.3368L214.876 26.8632ZM214.211 26.18V33.2H215.211V26.18H214.211ZM214.711 32.7H211.971V33.7H214.711V32.7ZM217.031 27.6C217.899 27.6 218.624 27.2839 219.143 26.6311L218.36 26.0089C218.052 26.3961 217.63 26.6 217.031 26.6V27.6ZM219.142 26.6323C219.666 25.9764 219.891 25.074 219.891 24H218.891C218.891 24.9526 218.689 25.5969 218.361 26.0077L219.142 26.6323ZM219.891 24C219.891 22.9301 219.675 22.0332 219.163 21.3889L218.38 22.0111C218.694 22.4068 218.891 23.0432 218.891 24H219.891ZM219.171 21.4C218.666 20.7269 217.944 20.4 217.071 20.4V21.4C217.665 21.4 218.076 21.6064 218.371 22L219.171 21.4ZM217.071 20.4C216.508 20.4 215.993 20.5548 215.544 20.8711L216.119 21.6889C216.39 21.4985 216.701 21.4 217.071 21.4V20.4ZM215.547 20.8689C215.108 21.1724 214.781 21.6077 214.552 22.143L215.471 22.537C215.641 22.1389 215.861 21.8676 216.116 21.6911L215.547 20.8689ZM214.554 22.1382C214.318 22.6719 214.211 23.2982 214.211 24H215.211C215.211 23.3951 215.304 22.9148 215.469 22.5418L214.554 22.1382ZM214.211 24C214.211 24.6869 214.311 25.3063 214.527 25.8457L215.455 25.4743C215.298 25.0804 215.211 24.5931 215.211 24H214.211ZM214.527 25.8457C214.742 26.3844 215.062 26.8261 215.496 27.1437L216.086 26.3363C215.827 26.1472 215.613 25.869 215.455 25.4743L214.527 25.8457ZM215.514 27.156C215.963 27.4551 216.474 27.6 217.031 27.6V26.6C216.655 26.6 216.34 26.5049 216.069 26.324L215.514 27.156ZM226.39 28.58L226.155 29.021L226.158 29.0226L226.39 28.58ZM224.59 26.8L225.028 26.5585L224.59 26.8ZM224.59 21.2L225.028 21.4415L224.59 21.2ZM226.37 19.42L226.135 18.979L226.131 18.9808L226.37 19.42ZM231.59 19.42L231.338 19.8516L231.344 19.8551L231.59 19.42ZM233.21 21.08L232.768 21.3136L232.77 21.317L233.21 21.08ZM233.69 24.86V25.36H234.124L234.185 24.9307L233.69 24.86ZM225.71 24.86H225.21V25.36H225.71V24.86ZM225.71 22.96V22.46H225.21V22.96H225.71ZM232.49 22.96L232.661 23.4299L232.49 22.46V22.96ZM231.17 23.44H230.67V24.1538L231.341 23.9099L231.17 23.44ZM230.59 21.5L230.204 21.8179L230.21 21.8245L230.59 21.5ZM227.67 21.18L227.4 20.7594L227.393 20.764L227.67 21.18ZM226.85 22.26L227.315 22.4457L227.316 22.4412L226.85 22.26ZM226.87 25.8L226.411 25.997L226.414 26.005L226.418 26.0129L226.87 25.8ZM227.75 26.82L227.491 27.2474L227.497 27.2513L227.75 26.82ZM231.39 25.88L231.57 25.4134L231.146 25.2501L230.943 25.6564L231.39 25.88ZM233.57 26.72L234.033 26.9098L234.227 26.4371L233.75 26.2534L233.57 26.72ZM232.59 28.06L232.267 27.6787L232.261 27.6837L232.59 28.06ZM231.05 28.92L231.202 29.3965L231.208 29.3943L231.05 28.92ZM229.15 28.7C228.163 28.7 227.326 28.5066 226.623 28.1374L226.158 29.0226C227.028 29.48 228.031 29.7 229.15 29.7V28.7ZM226.626 28.139C225.939 27.7716 225.408 27.2478 225.028 26.5585L224.153 27.0415C224.626 27.8988 225.295 28.5617 226.155 29.021L226.626 28.139ZM225.028 26.5585C224.651 25.8747 224.45 25.0287 224.45 24H223.45C223.45 25.158 223.676 26.1786 224.153 27.0415L225.028 26.5585ZM224.45 24C224.45 22.9713 224.651 22.1253 225.028 21.4415L224.153 20.9585C223.676 21.8214 223.45 22.842 223.45 24H224.45ZM225.028 21.4415C225.41 20.7499 225.935 20.226 226.609 19.8592L226.131 18.9808C225.286 19.4407 224.624 20.1035 224.153 20.9585L225.028 21.4415ZM226.606 19.861C227.298 19.491 228.095 19.3 229.01 19.3V18.3C227.952 18.3 226.989 18.5223 226.135 18.979L226.606 19.861ZM229.01 19.3C229.956 19.3 230.724 19.4926 231.338 19.8516L231.843 18.9884C231.043 18.5208 230.091 18.3 229.01 18.3V19.3ZM231.344 19.8551C231.969 20.2088 232.44 20.6928 232.768 21.3136L233.652 20.8464C233.234 20.0538 232.625 19.4312 231.837 18.9849L231.344 19.8551ZM232.77 21.317C233.099 21.9282 233.27 22.6381 233.27 23.46H234.27C234.27 22.4952 234.068 21.6184 233.651 20.8429L232.77 21.317ZM233.27 23.46C233.27 23.7184 233.264 23.9624 233.251 24.1923L234.25 24.2477C234.263 23.9976 234.27 23.7349 234.27 23.46H233.27ZM233.251 24.1923C233.238 24.4216 233.22 24.6201 233.195 24.7893L234.185 24.9307C234.214 24.7265 234.236 24.4984 234.25 24.2477L233.251 24.1923ZM233.69 24.36H225.71V25.36H233.69V24.36ZM226.21 24.86V22.96H225.21V24.86H226.21ZM225.71 23.46H232.49V22.46H225.71V23.46ZM232.319 22.4901L230.999 22.9701L231.341 23.9099L232.661 23.4299L232.319 22.4901ZM231.67 23.44C231.67 22.5293 231.461 21.7503 230.971 21.1755L230.21 21.8245C230.493 22.1564 230.67 22.6707 230.67 23.44H231.67ZM230.976 21.1821C230.49 20.5922 229.803 20.32 228.99 20.32V21.32C229.564 21.32 229.944 21.5012 230.204 21.8179L230.976 21.1821ZM228.99 20.32C228.402 20.32 227.865 20.4605 227.4 20.7594L227.941 21.6006C228.222 21.4195 228.566 21.32 228.99 21.32V20.32ZM227.393 20.764C226.932 21.0712 226.601 21.5216 226.384 22.0788L227.316 22.4412C227.473 22.0384 227.688 21.7688 227.948 21.596L227.393 20.764ZM226.386 22.0743C226.168 22.6197 226.07 23.2817 226.07 24.04H227.07C227.07 23.3583 227.159 22.8336 227.315 22.4457L226.386 22.0743ZM226.07 24.04C226.07 24.7896 226.176 25.4488 226.411 25.997L227.33 25.603C227.165 25.2179 227.07 24.7037 227.07 24.04H226.07ZM226.418 26.0129C226.667 26.5417 227.022 26.9625 227.491 27.2474L228.01 26.3926C227.732 26.2241 227.501 25.965 227.323 25.5871L226.418 26.0129ZM227.497 27.2513C227.974 27.5308 228.525 27.66 229.13 27.66V26.66C228.669 26.66 228.3 26.5625 228.003 26.3887L227.497 27.2513ZM229.13 27.66C229.777 27.66 230.352 27.5356 230.817 27.2431L230.284 26.3969C230.029 26.5577 229.657 26.66 229.13 26.66V27.66ZM230.817 27.2431C231.258 26.9652 231.599 26.581 231.838 26.1036L230.943 25.6564C230.782 25.979 230.562 26.2215 230.284 26.3969L230.817 27.2431ZM231.211 26.3466L233.391 27.1866L233.75 26.2534L231.57 25.4134L231.211 26.3466ZM233.108 26.5302C232.926 26.9742 232.647 27.3558 232.267 27.6787L232.914 28.4413C233.413 28.0176 233.788 27.5058 234.033 26.9098L233.108 26.5302ZM232.261 27.6837C231.89 28.0085 231.436 28.2642 230.892 28.4457L231.208 29.3943C231.864 29.1758 232.437 28.8581 232.92 28.4363L232.261 27.6837ZM230.899 28.4435C230.366 28.6131 229.784 28.7 229.15 28.7V29.7C229.876 29.7 230.561 29.6003 231.202 29.3965L230.899 28.4435ZM237.312 28.66L237.113 29.1184L237.115 29.1196L237.312 28.66ZM235.292 27.14L234.937 26.7887L234.625 27.1043L234.901 27.4514L235.292 27.14ZM236.872 25.54L237.288 25.2626L236.948 24.7519L236.517 25.1887L236.872 25.54ZM238.152 26.72L238.402 26.2865L238.152 26.72ZM241.292 26.96L241.508 27.4111L241.516 27.4072L241.292 26.96ZM241.552 25.68L241.184 26.0179L241.191 26.0259L241.199 26.0336L241.552 25.68ZM240.672 25.3L240.776 24.8109L240.773 24.8101L240.672 25.3ZM238.912 24.94L238.811 25.4296L238.812 25.4299L238.912 24.94ZM236.432 23.86L236.074 24.2088L236.084 24.2184L236.432 23.86ZM236.192 20.42L235.782 20.1348L235.776 20.1426L236.192 20.42ZM237.672 19.26L237.877 19.7162L237.885 19.7126L237.672 19.26ZM242.712 19.28L242.512 19.7384L242.522 19.7425L242.712 19.28ZM244.472 20.66L244.822 21.0179L245.125 20.7221L244.883 20.3745L244.472 20.66ZM242.832 22.26L242.409 22.5261L242.738 23.0502L243.182 22.6179L242.832 22.26ZM241.672 21.2L241.434 21.6394L241.441 21.6434L241.449 21.6472L241.672 21.2ZM239.232 20.94L239.089 20.4611L239.232 20.94ZM238.632 21.28L238.986 21.6336L238.994 21.6251L239.002 21.6163L238.632 21.28ZM238.712 22.36L238.387 22.7396L238.395 22.7466L238.403 22.7532L238.712 22.36ZM239.732 22.74L239.627 23.2287L239.632 23.2297L239.732 22.74ZM241.772 23.16L241.672 23.6497L241.673 23.65L241.772 23.16ZM243.892 24.18L243.519 24.5122L243.523 24.5174L243.892 24.18ZM244.012 27.6L243.6 27.3177L243.598 27.3201L244.012 27.6ZM242.512 28.78L242.709 29.2396L242.714 29.2377L242.512 28.78ZM240.092 28.7C239.139 28.7 238.281 28.531 237.509 28.2004L237.115 29.1196C238.024 29.509 239.019 29.7 240.092 29.7V28.7ZM237.512 28.2016C236.754 27.8715 236.149 27.413 235.684 26.8286L234.901 27.4514C235.476 28.1737 236.217 28.7285 237.113 29.1184L237.512 28.2016ZM235.648 27.4913L237.228 25.8913L236.517 25.1887L234.937 26.7887L235.648 27.4913ZM236.456 25.8174C236.822 26.3658 237.307 26.8109 237.903 27.1535L238.402 26.2865C237.931 26.0157 237.563 25.6742 237.288 25.2626L236.456 25.8174ZM237.903 27.1535C238.526 27.5114 239.248 27.68 240.052 27.68V26.68C239.39 26.68 238.846 26.5419 238.402 26.2865L237.903 27.1535ZM240.052 27.68C240.611 27.68 241.108 27.6025 241.508 27.4111L241.077 26.5089C240.864 26.6109 240.534 26.68 240.052 26.68V27.68ZM241.516 27.4072C241.738 27.296 241.934 27.1399 242.072 26.9271C242.211 26.7123 242.272 26.4699 242.272 26.22H241.272C241.272 26.3034 241.254 26.3511 241.233 26.3829C241.211 26.4168 241.166 26.464 241.069 26.5128L241.516 27.4072ZM242.272 26.22C242.272 25.8783 242.149 25.5698 241.906 25.3264L241.199 26.0336C241.249 26.0835 241.272 26.135 241.272 26.22H242.272ZM241.921 25.3421C241.66 25.058 241.229 24.9069 240.776 24.8109L240.569 25.7891C240.996 25.8798 241.151 25.982 241.184 26.0179L241.921 25.3421ZM240.773 24.8101L239.013 24.4501L238.812 25.4299L240.572 25.7899L240.773 24.8101ZM239.014 24.4504C237.888 24.2174 237.173 23.8828 236.781 23.5016L236.084 24.2184C236.679 24.7972 237.617 25.1826 238.811 25.4296L239.014 24.4504ZM236.791 23.5113C236.413 23.1232 236.212 22.6206 236.212 21.96H235.212C235.212 22.8461 235.492 23.6102 236.074 24.2087L236.791 23.5113ZM236.212 21.96C236.212 21.5176 236.34 21.1 236.608 20.6973L235.776 20.1426C235.405 20.7 235.212 21.309 235.212 21.96H236.212ZM236.603 20.7052C236.874 20.315 237.288 19.9806 237.877 19.7161L237.468 18.8039C236.75 19.126 236.177 19.565 235.782 20.1348L236.603 20.7052ZM237.885 19.7126C238.453 19.446 239.188 19.3 240.112 19.3V18.3C239.09 18.3 238.199 18.4606 237.46 18.8074L237.885 19.7126ZM240.112 19.3C241.06 19.3 241.856 19.4518 242.512 19.7383L242.912 18.8217C242.102 18.4682 241.165 18.3 240.112 18.3V19.3ZM242.522 19.7425C243.188 20.0157 243.695 20.4175 244.062 20.9455L244.883 20.3745C244.397 19.6758 243.73 19.1576 242.902 18.8175L242.522 19.7425ZM244.123 20.3021L242.483 21.9021L243.182 22.6179L244.822 21.0179L244.123 20.3021ZM243.256 21.9939C242.915 21.4519 242.46 21.0349 241.896 20.7528L241.449 21.6472C241.845 21.8451 242.163 22.1347 242.409 22.5261L243.256 21.9939ZM241.911 20.7606C241.373 20.4684 240.797 20.32 240.192 20.32V21.32C240.627 21.32 241.039 21.425 241.434 21.6394L241.911 20.7606ZM240.192 20.32C239.786 20.32 239.415 20.3633 239.089 20.4611L239.376 21.4189C239.583 21.3567 239.852 21.32 240.192 21.32V20.32ZM239.089 20.4611C238.769 20.5571 238.477 20.7079 238.262 20.9437L239.002 21.6163C239.055 21.5587 239.163 21.4829 239.376 21.4189L239.089 20.4611ZM238.279 20.9264C238.039 21.1662 237.932 21.473 237.932 21.8H238.932C238.932 21.7003 238.959 21.6605 238.986 21.6336L238.279 20.9264ZM237.932 21.8C237.932 22.1823 238.108 22.5007 238.387 22.7396L239.038 21.9804C238.943 21.8993 238.932 21.8443 238.932 21.8H237.932ZM238.403 22.7532C238.686 22.9754 239.125 23.1201 239.627 23.2287L239.838 22.2513C239.354 22.1465 239.112 22.038 239.021 21.9668L238.403 22.7532ZM239.632 23.2297L241.672 23.6497L241.873 22.6703L239.833 22.2503L239.632 23.2297ZM241.673 23.65C242.61 23.8399 243.194 24.1475 243.519 24.5122L244.266 23.8478C243.737 23.2525 242.908 22.8801 241.872 22.67L241.673 23.65ZM243.523 24.5174C243.861 24.8865 244.032 25.3308 244.032 25.88H245.032C245.032 25.0959 244.777 24.4068 244.261 23.8426L243.523 24.5174ZM244.032 25.88C244.032 26.4238 243.887 26.8978 243.6 27.3177L244.425 27.8823C244.831 27.2888 245.032 26.6162 245.032 25.88H244.032ZM243.598 27.3201C243.328 27.7194 242.911 28.0585 242.311 28.3223L242.714 29.2377C243.447 28.9149 244.03 28.4672 244.427 27.8799L243.598 27.3201ZM242.315 28.3204C241.742 28.5662 241.007 28.7 240.092 28.7V29.7C241.098 29.7 241.976 29.5538 242.709 29.2396L242.315 28.3204Z" fill="#111827"/>
</svg>
