<svg width="493" height="82" viewBox="0 0 493 82" fill="none" xmlns="http://www.w3.org/2000/svg">
<g clip-path="url(#clip0_1105_859)">
<path d="M63.937 20.0714C60.4806 17.1283 56.8188 14.921 52.9516 13.4494C49.1187 11.9778 45.0805 11.2421 40.8369 11.2421C32.6235 11.2421 25.9331 13.8772 20.7655 19.1474C15.6321 24.4177 13.0654 31.245 13.0654 39.6295C13.0654 47.7402 15.5637 54.4307 20.5601 59.7009C25.5908 64.9712 31.922 67.6063 39.5536 67.6063C44.0025 67.6063 48.2289 66.8192 52.233 65.245C56.2712 63.6707 60.1383 61.2923 63.8343 58.1096V71.9183C60.549 74.2797 56.9728 76.0421 53.1056 77.2057C49.2385 78.3693 45.0463 78.951 40.5289 78.951C34.7795 78.951 29.458 78.0099 24.5642 76.1277C19.7046 74.2455 15.4268 71.4734 11.7308 67.8117C8.06898 64.2183 5.24563 59.9918 3.26073 55.1323C1.31005 50.2385 0.334717 45.0367 0.334717 39.5269C0.334717 34.017 1.31005 28.8495 3.26073 24.0241C5.24563 19.1645 8.1032 14.9038 11.8334 11.2421C15.5637 7.54604 19.8415 4.75691 24.6668 2.87468C29.4922 0.958227 34.7111 0 40.3236 0C44.7383 0 48.9476 0.650225 52.9516 1.95068C56.9556 3.2169 60.8399 5.15047 64.6044 7.75137L63.937 20.0714Z" fill="white"/>
<path d="M143.401 39.5269C143.401 35.7282 142.7 32.1177 141.297 28.6955C139.928 25.2732 137.943 22.2274 135.342 19.5581C132.81 16.923 129.866 14.9038 126.513 13.5007C123.193 12.0634 119.685 11.3447 115.989 11.3447C112.293 11.3447 108.768 12.0463 105.415 13.4494C102.095 14.8525 99.1347 16.8887 96.5338 19.5581C93.9329 22.1932 91.948 25.2219 90.5791 28.6441C89.2102 32.0664 88.5258 35.6939 88.5258 39.5269C88.5258 43.3255 89.2102 46.9189 90.5791 50.3069C91.948 53.6949 93.9329 56.7236 96.5338 59.3929C99.1347 62.0623 102.095 64.0985 105.415 65.5016C108.734 66.9048 112.259 67.6063 115.989 67.6063C119.651 67.6063 123.125 66.9048 126.41 65.5016C129.73 64.0985 132.707 62.0623 135.342 59.3929C137.943 56.7236 139.928 53.6949 141.297 50.3069C142.7 46.8847 143.401 43.2913 143.401 39.5269ZM156.132 39.5269C156.132 44.8655 155.123 49.9133 153.103 54.6703C151.119 59.4272 148.21 63.6707 144.377 67.401C140.51 71.1312 136.146 73.9888 131.287 75.9737C126.427 77.9586 121.328 78.951 115.989 78.951C110.582 78.951 105.415 77.9586 100.487 75.9737C95.5927 73.9546 91.2636 71.097 87.4991 67.401C83.6662 63.6707 80.7573 59.4443 78.7724 54.7216C76.7875 49.9989 75.7951 44.934 75.7951 39.5269C75.7951 34.1539 76.7875 29.089 78.7724 24.3321C80.7573 19.5752 83.6662 15.3145 87.4991 11.5501C91.332 7.81981 95.6783 4.97936 100.538 3.02868C105.397 1.07801 110.548 0.102667 115.989 0.102667C121.396 0.102667 126.513 1.07801 131.338 3.02868C136.198 4.97936 140.544 7.81981 144.377 11.5501C148.21 15.3487 151.119 19.6436 153.103 24.4348C155.123 29.1917 156.132 34.2224 156.132 39.5269Z" fill="white"/>
<path d="M230.463 20.0714C227.007 17.1283 223.345 14.921 219.478 13.4494C215.645 11.9778 211.607 11.2421 207.363 11.2421C199.15 11.2421 192.459 13.8772 187.292 19.1474C182.158 24.4177 179.592 31.245 179.592 39.6295C179.592 47.7402 182.09 54.4307 187.086 59.7009C192.117 64.9712 198.448 67.6063 206.08 67.6063C210.529 67.6063 214.755 66.8192 218.759 65.245C222.797 63.6707 226.664 61.2923 230.36 58.1096V71.9183C227.075 74.2797 223.499 76.0421 219.632 77.2057C215.765 78.3693 211.572 78.951 207.055 78.951C201.306 78.951 195.984 78.0099 191.09 76.1277C186.231 74.2455 181.953 71.4734 178.257 67.8117C174.595 64.2183 171.772 59.9918 169.787 55.1323C167.836 50.2385 166.861 45.0367 166.861 39.5269C166.861 34.017 167.836 28.8495 169.787 24.0241C171.772 19.1645 174.629 14.9038 178.36 11.2421C182.09 7.54604 186.368 4.75691 191.193 2.87468C196.018 0.958227 201.237 0 206.85 0C211.264 0 215.474 0.650225 219.478 1.95068C223.482 3.2169 227.366 5.15047 231.13 7.75137L230.463 20.0714Z" fill="white"/>
<path d="M281.555 5C286.653 5 291.479 6.105 295.82 8.08414C305.2 14.1166 316.368 17.6157 328.338 17.6157C340.308 17.6157 351.476 14.1166 360.856 8.08414C365.197 6.10501 370.023 5 375.121 5C394.133 5 409.546 20.4122 409.546 39.4242C409.546 58.4361 394.133 73.8484 375.121 73.8484C370.023 73.8484 365.197 72.7434 360.856 70.7642C351.476 64.7317 340.308 61.2326 328.338 61.2326C316.368 61.2326 305.2 64.7317 295.82 70.7642C291.48 72.7434 286.653 73.8484 281.555 73.8484C262.543 73.8484 247.13 58.4361 247.13 39.4242C247.13 20.4122 262.543 5 281.555 5Z" stroke="url(#paint0_linear_1105_859)" stroke-width="10"/>
<path d="M425.546 78.1297V0L473.286 45.9435C474.586 47.244 475.904 48.63 477.238 50.1016C478.573 51.5731 479.976 53.2329 481.448 55.0809V2.97735H492.741V81.0557L444.026 34.2908C442.725 33.0246 441.459 31.6899 440.227 30.2868C439.029 28.8837 437.883 27.4121 436.788 25.8721V78.1297H425.546Z" fill="white"/>
</g>
<defs>
<linearGradient id="paint0_linear_1105_859" x1="328.338" y1="0" x2="328.338" y2="78.8484" gradientUnits="userSpaceOnUse">
<stop stop-color="#3615FF"/>
<stop offset="0.9995" stop-color="white"/>
<stop offset="0.9996" stop-color="#010004"/>
<stop offset="0.9997"/>
<stop offset="0.9998"/>
<stop offset="0.9999" stop-color="#020108" stop-opacity="0.03125"/>
<stop offset="1" stop-color="white" stop-opacity="0"/>
</linearGradient>
<clipPath id="clip0_1105_859">
<rect width="492.406" height="81.0557" fill="white" transform="translate(0.334717)"/>
</clipPath>
</defs>
</svg>
