<svg width="82" height="38" viewBox="0 0 82 38" fill="none" xmlns="http://www.w3.org/2000/svg">
<g clip-path="url(#clip0_1105_861)">
<path d="M18.6303 4C20.76 4 22.7738 4.45255 24.5891 5.2634C29.2568 8.23828 34.8022 9.9617 40.7383 9.9617C46.6745 9.9617 52.2199 8.23827 56.8876 5.26337C58.7029 4.45254 60.7167 4 62.8463 4C70.9264 4 77.4766 10.5502 77.4766 18.6303C77.4766 26.7104 70.9264 33.2607 62.8463 33.2607C60.7167 33.2607 58.7029 32.8081 56.8876 31.9973C52.2199 29.0224 46.6745 27.299 40.7383 27.299C34.8022 27.299 29.2568 29.0224 24.5891 31.9973C22.7737 32.8081 20.76 33.2607 18.6303 33.2607C10.5502 33.2607 4 26.7104 4 18.6303C4 10.5502 10.5502 4 18.6303 4Z" stroke="url(#paint0_linear_1105_861)" stroke-width="8"/>
</g>
<defs>
<linearGradient id="paint0_linear_1105_861" x1="40.7383" y1="0" x2="40.7383" y2="37.2607" gradientUnits="userSpaceOnUse">
<stop stop-color="#3615FF"/>
<stop offset="0.9997"/>
<stop offset="0.9998"/>
<stop offset="0.9999" stop-color="#020108" stop-opacity="0.03125"/>
<stop offset="1" stop-opacity="0"/>
</linearGradient>
<clipPath id="clip0_1105_861">
<rect width="81.4766" height="37.2607" fill="white"/>
</clipPath>
</defs>
</svg>
