<svg width="113" height="52" viewBox="0 0 113 52" fill="none" xmlns="http://www.w3.org/2000/svg">
<path d="M25.8384 4C29.0516 4 32.0934 4.69655 34.8317 5.9451C41.0843 9.97941 48.5256 12.32 56.5 12.32C64.4744 12.32 71.9157 9.9794 78.1683 5.94507C80.9066 4.69654 83.9484 4 87.1616 4C99.1991 4 109 13.8262 109 26C109 38.1738 99.1991 48 87.1616 48C83.9484 48 80.9067 47.3035 78.1684 46.055C71.9158 42.0206 64.4745 39.68 56.5 39.68C48.5256 39.68 41.0843 42.0206 34.8317 46.0549C32.0934 47.3035 29.0516 48 25.8384 48C13.8009 48 4 38.1738 4 26C4 13.8262 13.8009 4 25.8384 4Z" stroke="url(#paint0_linear_1160_1401)" stroke-width="8"/>
<defs>
<linearGradient id="paint0_linear_1160_1401" x1="56.5" y1="0" x2="56.5" y2="52" gradientUnits="userSpaceOnUse">
<stop stop-color="#3615FF"/>
<stop offset="0.9997"/>
<stop offset="0.9998"/>
<stop offset="0.9999" stop-color="#020108" stop-opacity="0.03125"/>
<stop offset="1" stop-opacity="0"/>
</linearGradient>
</defs>
</svg>
