<svg width="174" height="80" viewBox="0 0 174 80" fill="none" xmlns="http://www.w3.org/2000/svg">
<path d="M40.0167 5.47217C45.1148 5.47217 49.9415 6.57717 54.2817 8.5563C63.6623 14.5888 74.83 18.0879 86.8001 18.0879C98.7702 18.0879 109.938 14.5888 119.318 8.55632C123.659 6.57718 128.485 5.47217 133.583 5.47217C152.595 5.47217 168.008 20.8844 168.008 39.8963C168.008 58.9083 152.595 74.3205 133.583 74.3205C128.485 74.3205 123.659 73.2155 119.318 71.2364C109.938 65.2039 98.7701 61.7048 86.8001 61.7048C74.83 61.7048 63.6623 65.2039 54.2817 71.2364C49.9416 73.2155 45.1148 74.3205 40.0167 74.3205C21.0048 74.3205 5.59253 58.9083 5.59253 39.8963C5.59253 20.8844 21.0048 5.47217 40.0167 5.47217Z" stroke="url(#paint0_linear_1417_1483)" stroke-width="10"/>
<defs>
<linearGradient id="paint0_linear_1417_1483" x1="86.8001" y1="0.472168" x2="86.8001" y2="79.3205" gradientUnits="userSpaceOnUse">
<stop stop-color="#3615FF"/>
<stop offset="1" stop-color="#111827"/>
</linearGradient>
</defs>
</svg>
