<svg width="385" height="66" viewBox="0 0 385 66" fill="none" xmlns="http://www.w3.org/2000/svg">
<g clip-path="url(#clip0_1105_860)">
<path d="M213.765 5.81152C217.774 5.81152 221.568 6.67516 224.982 8.22217C232.778 13.2211 242.053 16.1195 251.99 16.1195C261.928 16.1195 271.203 13.2211 278.999 8.22217C282.413 6.67516 286.207 5.81152 290.216 5.81152C305.245 5.81152 317.428 17.9949 317.428 33.024C317.428 48.053 305.245 60.2364 290.216 60.2364C286.207 60.2364 282.413 59.3728 278.999 57.8258C271.203 52.8268 261.928 49.9284 251.99 49.9284C242.053 49.9284 232.778 52.8268 224.982 57.8258C221.568 59.3728 217.774 60.2364 213.765 60.2364C198.736 60.2364 186.552 48.053 186.552 33.024C186.552 17.9949 198.736 5.81152 213.765 5.81152Z" stroke="url(#paint0_linear_1105_860)" stroke-width="10"/>
<path d="M47.7017 18.6037C45.1094 16.3964 42.363 14.7409 39.4627 13.6372C36.588 12.5335 33.5593 11.9817 30.3766 11.9817C24.2166 11.9817 19.1988 13.9581 15.3231 17.9107C11.4731 21.8634 9.54804 26.9839 9.54804 33.2723C9.54804 39.3553 11.4217 44.3732 15.1691 48.3259C18.9421 52.2786 23.6904 54.2549 29.4141 54.2549C32.7508 54.2549 35.9207 53.6646 38.9237 52.4839C41.9524 51.3032 44.8527 49.5194 47.6247 47.1324V57.4889C45.1607 59.2599 42.4785 60.5818 39.5782 61.4544C36.6778 62.3271 33.5337 62.7635 30.1456 62.7635C25.8336 62.7635 21.8424 62.0576 18.1721 60.6459C14.5274 59.2343 11.3191 57.1553 8.54704 54.4089C5.80069 51.7139 3.68318 48.544 2.19451 44.8994C0.731503 41.229 0 37.3277 0 33.1953C0 29.063 0.731503 25.1873 2.19451 21.5683C3.68318 17.9236 5.82636 14.7281 8.62404 11.9817C11.4217 9.2097 14.6301 7.11785 18.2491 5.70618C21.8681 4.26884 25.7823 3.55017 29.9916 3.55017C33.3027 3.55017 36.4597 4.03784 39.4627 5.01318C42.4657 5.96285 45.3789 7.41302 48.2022 9.3637L47.7017 18.6037Z" fill="black"/>
<path d="M107.3 33.1953C107.3 30.3463 106.774 27.6385 105.721 25.0718C104.695 22.5051 103.206 20.2207 101.255 18.2187C99.3561 16.2424 97.1488 14.7281 94.6334 13.6757C92.1438 12.5977 89.5129 12.0587 86.7409 12.0587C83.9689 12.0587 81.3252 12.5849 78.8099 13.6372C76.3202 14.6896 74.1 16.2167 72.1493 18.2187C70.1987 20.1951 68.71 22.4666 67.6833 25.0333C66.6566 27.6 66.1433 30.3206 66.1433 33.1953C66.1433 36.0443 66.6566 38.7393 67.6833 41.2803C68.71 43.8214 70.1987 46.0929 72.1493 48.0949C74.1 50.0969 76.3202 51.6241 78.8099 52.6764C81.2995 53.7287 83.9432 54.2549 86.7409 54.2549C89.4872 54.2549 92.0924 53.7287 94.5564 52.6764C97.0461 51.6241 99.2791 50.0969 101.255 48.0949C103.206 46.0929 104.695 43.8214 105.721 41.2803C106.774 38.7137 107.3 36.0187 107.3 33.1953ZM116.848 33.1953C116.848 37.1993 116.091 40.9852 114.577 44.5529C113.088 48.1205 110.906 51.3032 108.031 54.1009C105.131 56.8986 101.859 59.0418 98.214 60.5304C94.5693 62.0191 90.7449 62.7635 86.7409 62.7635C82.6855 62.7635 78.8099 62.0191 75.1138 60.5304C71.4435 59.0161 68.1966 56.8729 65.3733 54.1009C62.4986 51.3032 60.3169 48.1334 58.8283 44.5914C57.3396 41.0493 56.5953 37.2507 56.5953 33.1953C56.5953 29.1656 57.3396 25.3669 58.8283 21.7993C60.3169 18.2316 62.4986 15.0361 65.3733 12.2127C68.248 9.41503 71.5077 7.28469 75.1523 5.82168C78.797 4.35867 82.6599 3.62717 86.7409 3.62717C90.7962 3.62717 94.6334 4.35867 98.2524 5.82168C101.897 7.28469 105.157 9.41503 108.031 12.2127C110.906 15.0617 113.088 18.2829 114.577 21.8763C116.091 25.4439 116.848 29.217 116.848 33.1953Z" fill="black"/>
<path d="M172.596 18.6037C170.004 16.3964 167.258 14.7409 164.357 13.6372C161.483 12.5335 158.454 11.9817 155.271 11.9817C149.111 11.9817 144.093 13.9581 140.218 17.9107C136.368 21.8634 134.443 26.9839 134.443 33.2723C134.443 39.3553 136.316 44.3732 140.064 48.3259C143.837 52.2786 148.585 54.2549 154.309 54.2549C157.645 54.2549 160.815 53.6646 163.818 52.4839C166.847 51.3032 169.747 49.5194 172.519 47.1324V57.4889C170.055 59.2599 167.373 60.5818 164.473 61.4544C161.572 62.3271 158.428 62.7635 155.04 62.7635C150.728 62.7635 146.737 62.0576 143.067 60.6459C139.422 59.2343 136.214 57.1553 133.442 54.4089C130.695 51.7139 128.578 48.544 127.089 44.8994C125.626 41.229 124.895 37.3277 124.895 33.1953C124.895 29.063 125.626 25.1873 127.089 21.5683C128.578 17.9236 130.721 14.7281 133.519 11.9817C136.316 9.2097 139.525 7.11785 143.144 5.70618C146.763 4.26884 150.677 3.55017 154.886 3.55017C158.197 3.55017 161.354 4.03784 164.357 5.01318C167.36 5.96285 170.273 7.41302 173.097 9.3637L172.596 18.6037Z" fill="black"/>
<path d="M333.627 62.3133V3.716L369.432 38.1737C370.408 39.149 371.396 40.1885 372.397 41.2922C373.398 42.3958 374.45 43.6407 375.554 45.0267V5.94901H384.024V64.5078L347.487 29.4341C346.512 28.4845 345.562 27.4834 344.638 26.4311C343.74 25.3788 342.88 24.2751 342.059 23.1201V62.3133H333.627Z" fill="black"/>
</g>
<defs>
<linearGradient id="paint0_linear_1105_860" x1="251.99" y1="0.811523" x2="251.99" y2="65.2364" gradientUnits="userSpaceOnUse">
<stop stop-color="#3615FF"/>
<stop offset="0.9997"/>
<stop offset="0.9998"/>
<stop offset="0.9999" stop-color="#020108" stop-opacity="0.03125"/>
<stop offset="1" stop-opacity="0"/>
</linearGradient>
<clipPath id="clip0_1105_860">
<rect width="384.024" height="64.4249" fill="white" transform="translate(0 0.811523)"/>
</clipPath>
</defs>
</svg>
