<svg width="273" height="44" viewBox="0 0 273 44" fill="none" xmlns="http://www.w3.org/2000/svg">
<path d="M42.7675 15.8H43.2675V15.3H42.7675V15.8ZM42.7675 29V29.5H43.2675V29H42.7675ZM40.2675 29H39.7675V29.5H40.2675V29ZM40.2675 22.12L39.7678 22.1019L39.7675 22.1109V22.12H40.2675ZM40.4075 18.26L40.9072 18.2781L40.926 17.76H40.4075V18.26ZM40.3675 18.26V17.76H40.0097L39.8942 18.0987L40.3675 18.26ZM36.7075 29V29.5H37.0653L37.1808 29.1613L36.7075 29ZM34.4475 29L33.974 29.1605L34.089 29.5H34.4475V29ZM30.8075 18.26L31.281 18.0995L31.166 17.76H30.8075V18.26ZM30.7675 18.26V17.76H30.249L30.2678 18.2781L30.7675 18.26ZM30.9075 22.12H31.4075V22.1109L31.4072 22.1019L30.9075 22.12ZM30.9075 29V29.5H31.4075V29H30.9075ZM28.4075 29H27.9075V29.5H28.4075V29ZM28.4075 15.8V15.3H27.9075V15.8H28.4075ZM32.4075 15.8L32.8822 15.6431L32.7688 15.3H32.4075V15.8ZM34.7875 23L35.2687 22.8643L35.2657 22.8536L35.2622 22.8431L34.7875 23ZM35.6275 25.98L35.1463 26.1157L35.249 26.48H35.6275V25.98ZM35.6675 25.98V26.48H36.0429L36.1476 26.1195L35.6675 25.98ZM36.5275 23.02L36.0522 22.8647L36.0497 22.8725L36.0474 22.8805L36.5275 23.02ZM38.8875 15.8V15.3H38.5249L38.4122 15.6447L38.8875 15.8ZM42.2675 15.8V29H43.2675V15.8H42.2675ZM42.7675 28.5H40.2675V29.5H42.7675V28.5ZM40.7675 29V22.12H39.7675V29H40.7675ZM40.7672 22.1381L40.9072 18.2781L39.9078 18.2419L39.7678 22.1019L40.7672 22.1381ZM40.4075 17.76H40.3675V18.76H40.4075V17.76ZM39.8942 18.0987L36.2342 28.8387L37.1808 29.1613L40.8408 18.4213L39.8942 18.0987ZM36.7075 28.5H34.4475V29.5H36.7075V28.5ZM34.921 28.8395L31.281 18.0995L30.334 18.4205L33.974 29.1605L34.921 28.8395ZM30.8075 17.76H30.7675V18.76H30.8075V17.76ZM30.2678 18.2781L30.4078 22.1381L31.4072 22.1019L31.2672 18.2419L30.2678 18.2781ZM30.4075 22.12V29H31.4075V22.12H30.4075ZM30.9075 28.5H28.4075V29.5H30.9075V28.5ZM28.9075 29V15.8H27.9075V29H28.9075ZM28.4075 16.3H32.4075V15.3H28.4075V16.3ZM31.9328 15.9569L34.3128 23.1569L35.2622 22.8431L32.8822 15.6431L31.9328 15.9569ZM34.3063 23.1357L35.1463 26.1157L36.1087 25.8443L35.2687 22.8643L34.3063 23.1357ZM35.6275 26.48H35.6675V25.48H35.6275V26.48ZM36.1476 26.1195L37.0076 23.1595L36.0474 22.8805L35.1874 25.8405L36.1476 26.1195ZM37.0028 23.1753L39.3628 15.9553L38.4122 15.6447L36.0522 22.8647L37.0028 23.1753ZM38.8875 16.3H42.7675V15.3H38.8875V16.3ZM47.5028 28.84L47.2976 29.296L47.2976 29.296L47.5028 28.84ZM46.2228 27.7L45.7894 27.9492L45.7931 27.9557L45.797 27.962L46.2228 27.7ZM45.7628 19V18.5H45.2628V19H45.7628ZM48.5028 19H49.0028V18.5H48.5028V19ZM48.9828 26.6L48.6368 26.9611L48.645 26.9686L48.9828 26.6ZM51.1828 26.9L51.348 27.3719L51.3583 27.3683L51.3685 27.3642L51.1828 26.9ZM51.8828 26.42L51.5293 26.0664L51.5236 26.0721L51.518 26.078L51.8828 26.42ZM52.3828 25.6L52.8533 25.7694L52.8553 25.7636L52.3828 25.6ZM52.5628 19V18.5H52.0628V19H52.5628ZM55.3028 19H55.8028V18.5H55.3028V19ZM55.3028 29V29.5H55.8028V29H55.3028ZM52.8628 29L52.3636 29.0287L52.3907 29.5H52.8628V29ZM52.7628 27.26L53.262 27.2313L53.1544 25.3588L52.3156 27.0364L52.7628 27.26ZM51.3828 28.74L51.6186 29.1809L51.6222 29.1789L51.3828 28.74ZM49.3028 28.7C48.697 28.7 48.1684 28.5912 47.708 28.384L47.2976 29.296C47.9039 29.5688 48.5753 29.7 49.3028 29.7V28.7ZM47.708 28.384C47.2701 28.187 46.9186 27.8767 46.6486 27.438L45.797 27.962C46.167 28.5633 46.6688 29.013 47.2976 29.296L47.708 28.384ZM46.6563 27.4508C46.4063 27.016 46.2628 26.4232 46.2628 25.64H45.2628C45.2628 26.5368 45.426 27.3173 45.7894 27.9492L46.6563 27.4508ZM46.2628 25.64V19H45.2628V25.64H46.2628ZM45.7628 19.5H48.5028V18.5H45.7628V19.5ZM48.0028 19V24.98H49.0028V19H48.0028ZM48.0028 24.98C48.0028 25.795 48.1664 26.5101 48.6369 26.961L49.3288 26.239C49.1592 26.0765 49.0028 25.7117 49.0028 24.98H48.0028ZM48.645 26.9686C49.0874 27.3741 49.6858 27.54 50.3628 27.54V26.54C49.8398 26.54 49.5182 26.4125 49.3207 26.2314L48.645 26.9686ZM50.3628 27.54C50.6996 27.54 51.0287 27.4837 51.348 27.3719L51.0176 26.4281C50.8036 26.503 50.5861 26.54 50.3628 26.54V27.54ZM51.3685 27.3642C51.7044 27.2299 51.9985 27.0277 52.2476 26.762L51.518 26.078C51.3671 26.239 51.1946 26.3568 50.9971 26.4358L51.3685 27.3642ZM52.2364 26.7736C52.5101 26.4999 52.7126 26.16 52.8533 25.7694L51.9124 25.4306C51.813 25.7067 51.6822 25.9135 51.5293 26.0664L52.2364 26.7736ZM52.8553 25.7636C52.9977 25.3522 53.0628 24.8879 53.0628 24.38H52.0628C52.0628 24.8054 52.0079 25.1545 51.9103 25.4364L52.8553 25.7636ZM53.0628 24.38V19H52.0628V24.38H53.0628ZM52.5628 19.5H55.3028V18.5H52.5628V19.5ZM54.8028 19V29H55.8028V19H54.8028ZM55.3028 28.5H52.8628V29.5H55.3028V28.5ZM53.362 28.9713L53.262 27.2313L52.2636 27.2887L52.3636 29.0287L53.362 28.9713ZM52.3156 27.0364C52.0224 27.6227 51.6302 28.0355 51.1434 28.3011L51.6222 29.1789C52.3087 28.8045 52.8365 28.2306 53.21 27.4836L52.3156 27.0364ZM51.147 28.2991C50.6622 28.5584 50.0541 28.7 49.3028 28.7V29.7C50.1782 29.7 50.9568 29.5349 51.6186 29.1809L51.147 28.2991ZM59.4061 28.66L59.2065 29.1184L59.2091 29.1196L59.4061 28.66ZM57.3861 27.14L57.0303 26.7887L56.7186 27.1043L56.9949 27.4514L57.3861 27.14ZM58.9661 25.54L59.3821 25.2626L59.0416 24.7519L58.6103 25.1887L58.9661 25.54ZM60.2461 26.72L60.4953 26.2865L60.4953 26.2865L60.2461 26.72ZM63.3861 26.96L63.6019 27.4111L63.6097 27.4072L63.3861 26.96ZM63.6461 25.68L63.2775 26.0179L63.2849 26.0259L63.2925 26.0336L63.6461 25.68ZM62.7661 25.3L62.8698 24.8109L62.8663 24.8101L62.7661 25.3ZM61.0061 24.94L60.9048 25.4296L60.9059 25.4299L61.0061 24.94ZM58.5261 23.86L58.1676 24.2088L58.1774 24.2184L58.5261 23.86ZM58.2861 20.42L57.8753 20.1348L57.8701 20.1426L58.2861 20.42ZM59.7661 19.26L59.9709 19.7162L59.9785 19.7126L59.7661 19.26ZM64.8061 19.28L64.6061 19.7384L64.6161 19.7425L64.8061 19.28ZM66.5661 20.66L66.9153 21.0179L67.2184 20.7221L66.9765 20.3745L66.5661 20.66ZM64.9261 22.26L64.5028 22.5261L64.8322 23.0502L65.2753 22.6179L64.9261 22.26ZM63.7661 21.2L63.5275 21.6394L63.535 21.6434L63.5425 21.6472L63.7661 21.2ZM61.3261 20.94L61.1824 20.4611L61.1824 20.4611L61.3261 20.94ZM60.7261 21.28L61.0796 21.6336L61.0881 21.6251L61.0961 21.6163L60.7261 21.28ZM60.8061 22.36L60.4807 22.7396L60.4888 22.7466L60.4972 22.7532L60.8061 22.36ZM61.8261 22.74L61.7204 23.2287L61.7253 23.2297L61.8261 22.74ZM63.8661 23.16L63.7653 23.6497L63.7668 23.65L63.8661 23.16ZM65.9861 24.18L65.6124 24.5122L65.6171 24.5174L65.9861 24.18ZM66.1061 27.6L65.6934 27.3177L65.6918 27.3201L66.1061 27.6ZM64.6061 28.78L64.8031 29.2396L64.8075 29.2377L64.6061 28.78ZM62.1861 28.7C61.2331 28.7 60.3744 28.531 59.6031 28.2004L59.2091 29.1196C60.1178 29.509 61.1124 29.7 62.1861 29.7V28.7ZM59.6057 28.2016C58.8478 27.8715 58.2424 27.413 57.7773 26.8286L56.9949 27.4514C57.5698 28.1737 58.311 28.7285 59.2065 29.1184L59.6057 28.2016ZM57.7419 27.4913L59.3219 25.8913L58.6103 25.1887L57.0303 26.7887L57.7419 27.4913ZM58.5501 25.8173C58.9157 26.3658 59.4012 26.8109 59.9969 27.1535L60.4953 26.2865C60.0243 26.0157 59.6565 25.6742 59.3821 25.2626L58.5501 25.8173ZM59.9969 27.1535C60.6194 27.5114 61.3421 27.68 62.1461 27.68V26.68C61.4834 26.68 60.9395 26.5419 60.4953 26.2865L59.9969 27.1535ZM62.1461 27.68C62.7049 27.68 63.2016 27.6025 63.6018 27.4111L63.1704 26.5089C62.9573 26.6109 62.6273 26.68 62.1461 26.68V27.68ZM63.6097 27.4072C63.8322 27.296 64.0275 27.1399 64.1656 26.9271C64.3049 26.7123 64.3661 26.4699 64.3661 26.22H63.3661C63.3661 26.3034 63.3473 26.3511 63.3266 26.3829C63.3046 26.4168 63.26 26.464 63.1625 26.5128L63.6097 27.4072ZM64.3661 26.22C64.3661 25.8783 64.243 25.5698 63.9996 25.3264L63.2925 26.0336C63.3425 26.0835 63.3661 26.135 63.3661 26.22H64.3661ZM64.0147 25.3421C63.7542 25.058 63.3224 24.9069 62.8698 24.8109L62.6623 25.7891C63.0898 25.8798 63.2446 25.982 63.2775 26.0179L64.0147 25.3421ZM62.8663 24.8101L61.1063 24.4501L60.9059 25.4299L62.6659 25.7899L62.8663 24.8101ZM61.1074 24.4504C59.9813 24.2174 59.2665 23.8828 58.8748 23.5016L58.1774 24.2184C58.7723 24.7972 59.7109 25.1826 60.9048 25.4296L61.1074 24.4504ZM58.8845 23.5113C58.5068 23.1232 58.3061 22.6206 58.3061 21.96H57.3061C57.3061 22.8461 57.5854 23.6102 58.1677 24.2087L58.8845 23.5113ZM58.3061 21.96C58.3061 21.5176 58.4337 21.1 58.7021 20.6973L57.8701 20.1426C57.4985 20.7 57.3061 21.309 57.3061 21.96H58.3061ZM58.6968 20.7052C58.9677 20.315 59.3818 19.9806 59.9709 19.7161L59.5613 18.8039C58.8437 19.126 58.2711 19.565 57.8754 20.1348L58.6968 20.7052ZM59.9785 19.7126C60.5465 19.446 61.2819 19.3 62.2061 19.3V18.3C61.1836 18.3 60.2924 18.4606 59.5536 18.8074L59.9785 19.7126ZM62.2061 19.3C63.1539 19.3 63.9495 19.4518 64.6061 19.7383L65.0061 18.8217C64.196 18.4682 63.2583 18.3 62.2061 18.3V19.3ZM64.6161 19.7425C65.2813 20.0157 65.7883 20.4175 66.1556 20.9455L66.9765 20.3745C66.4905 19.6758 65.8243 19.1576 64.9961 18.8175L64.6161 19.7425ZM66.2169 20.3021L64.5769 21.9021L65.2753 22.6179L66.9153 21.0179L66.2169 20.3021ZM65.3494 21.9939C65.0087 21.4519 64.5539 21.0349 63.9897 20.7528L63.5425 21.6472C63.9383 21.8451 64.2568 22.1347 64.5028 22.5261L65.3494 21.9939ZM64.0046 20.7606C63.4664 20.4684 62.8912 20.32 62.2861 20.32V21.32C62.721 21.32 63.1325 21.425 63.5275 21.6394L64.0046 20.7606ZM62.2861 20.32C61.8795 20.32 61.5085 20.3633 61.1824 20.4611L61.4698 21.4189C61.677 21.3567 61.946 21.32 62.2861 21.32V20.32ZM61.1824 20.4611C60.8623 20.5571 60.5704 20.7079 60.3561 20.9437L61.0961 21.6163C61.1484 21.5587 61.2566 21.4829 61.4698 21.4189L61.1824 20.4611ZM60.3725 20.9264C60.1328 21.1662 60.0261 21.473 60.0261 21.8H61.0261C61.0261 21.7003 61.0527 21.6605 61.0796 21.6336L60.3725 20.9264ZM60.0261 21.8C60.0261 22.1823 60.202 22.5007 60.4807 22.7396L61.1315 21.9804C61.0369 21.8993 61.0261 21.8443 61.0261 21.8H60.0261ZM60.4972 22.7532C60.78 22.9754 61.2183 23.1201 61.7204 23.2287L61.9318 22.2513C61.4473 22.1465 61.2055 22.038 61.115 21.9668L60.4972 22.7532ZM61.7253 23.2297L63.7653 23.6497L63.9669 22.6703L61.9269 22.2503L61.7253 23.2297ZM63.7668 23.65C64.7036 23.8399 65.2882 24.1475 65.6124 24.5122L66.3598 23.8478C65.8306 23.2525 65.002 22.8801 63.9654 22.67L63.7668 23.65ZM65.6171 24.5174C65.9546 24.8865 66.1261 25.3308 66.1261 25.88H67.1261C67.1261 25.0959 66.8709 24.4068 66.3551 23.8426L65.6171 24.5174ZM66.1261 25.88C66.1261 26.4238 65.9807 26.8978 65.6934 27.3177L66.5187 27.8823C66.9248 27.2888 67.1261 26.6162 67.1261 25.88H66.1261ZM65.6918 27.3201C65.422 27.7194 65.0044 28.0585 64.4047 28.3223L64.8075 29.2377C65.5411 28.9149 66.1236 28.4672 66.5204 27.8799L65.6918 27.3201ZM64.4091 28.3204C63.8358 28.5662 63.1008 28.7 62.1861 28.7V29.7C63.1914 29.7 64.0698 29.5538 64.8031 29.2396L64.4091 28.3204ZM68.9111 17.2L68.5755 17.5709L68.5857 17.5796L68.9111 17.2ZM68.9111 15L69.2366 15.3798L69.2466 15.3708L68.9111 15ZM71.4711 15L71.1355 15.3709L71.1457 15.3796L71.4711 15ZM71.4711 17.2L71.7966 17.5798L71.8066 17.5708L71.4711 17.2ZM71.5511 19H72.0511V18.5H71.5511V19ZM71.5511 29V29.5H72.0511V29H71.5511ZM68.8111 29H68.3111V29.5H68.8111V29ZM68.8111 19V18.5H68.3111V19H68.8111ZM70.1911 17.06C69.674 17.06 69.3873 16.9497 69.2365 16.8204L68.5857 17.5796C68.9948 17.9303 69.5615 18.06 70.1911 18.06V17.06ZM69.2466 16.8292C69.0982 16.695 68.9911 16.4796 68.9911 16.1H67.9911C67.9911 16.6804 68.164 17.1983 68.5756 17.5708L69.2466 16.8292ZM68.9911 16.1C68.9911 15.7005 69.1016 15.4953 69.2365 15.3796L68.5857 14.6204C68.1606 14.9847 67.9911 15.5129 67.9911 16.1H68.9911ZM69.2466 15.3708C69.397 15.2346 69.6795 15.12 70.1911 15.12V14.12C69.5561 14.12 68.9851 14.2587 68.5756 14.6292L69.2466 15.3708ZM70.1911 15.12C70.7027 15.12 70.9851 15.2346 71.1356 15.3708L71.8066 14.6292C71.397 14.2587 70.8261 14.12 70.1911 14.12V15.12ZM71.1457 15.3796C71.2806 15.4953 71.3911 15.7005 71.3911 16.1H72.3911C72.3911 15.5129 72.2216 14.9847 71.7965 14.6204L71.1457 15.3796ZM71.3911 16.1C71.3911 16.4796 71.284 16.695 71.1356 16.8292L71.8066 17.5708C72.2182 17.1983 72.3911 16.6804 72.3911 16.1H71.3911ZM71.1457 16.8204C70.9948 16.9497 70.7081 17.06 70.1911 17.06V18.06C70.8207 18.06 71.3873 17.9303 71.7965 17.5796L71.1457 16.8204ZM71.0511 19V29H72.0511V19H71.0511ZM71.5511 28.5H68.8111V29.5H71.5511V28.5ZM69.3111 29V19H68.3111V29H69.3111ZM68.8111 19.5H71.5511V18.5H68.8111V19.5ZM81.3756 33.2H80.8756V33.7H81.3756V33.2ZM81.3756 25.88L81.7493 25.5478L80.8756 24.5649V25.88H81.3756ZM81.6956 26.24L82.1897 26.3169L82.2259 26.084L82.0693 25.9078L81.6956 26.24ZM81.0756 27.8L81.48 28.0941L81.48 28.0941L81.0756 27.8ZM79.8556 28.84L80.0792 29.2872L80.084 29.2848L79.8556 28.84ZM76.0156 28.58L75.7444 29L75.7483 29.0025L76.0156 28.58ZM74.4956 26.8L74.0409 27.0081L74.0453 27.0174L74.4956 26.8ZM74.5156 21.18L74.0684 20.9564L74.0668 20.9595L74.5156 21.18ZM76.0956 19.42L76.3529 19.8488L76.3591 19.845L76.0956 19.42ZM79.9956 19.2L79.7578 19.64L79.7672 19.6448L79.9956 19.2ZM81.2156 20.3L80.7996 20.5774L80.8033 20.5828L81.2156 20.3ZM81.8356 21.92L82.0784 22.3571L82.3822 22.1883L82.3299 21.8448L81.8356 21.92ZM81.4756 22.12L80.9765 22.0912L80.9241 22.9984L81.7184 22.5571L81.4756 22.12ZM81.6556 19V18.5H81.1836L81.1565 18.9712L81.6556 19ZM84.1156 19H84.6156V18.5H84.1156V19ZM84.1156 33.2V33.7H84.6156V33.2H84.1156ZM80.2756 26.74L80.5603 27.1512L80.5706 27.1437L80.2756 26.74ZM81.0756 25.66L80.614 25.4677L80.6114 25.4743L81.0756 25.66ZM81.0756 22.28L80.6131 22.4704L80.6182 22.4818L81.0756 22.28ZM80.2756 21.26L79.9909 21.6712L80.002 21.6785L80.2756 21.26ZM77.3156 21.7L76.9252 21.3877L76.9242 21.3889L77.3156 21.7ZM77.3156 26.32L76.9204 26.6263L76.9242 26.6311L77.3156 26.32ZM81.8756 33.2V25.88H80.8756V33.2H81.8756ZM81.0019 26.2122L81.3219 26.5722L82.0693 25.9078L81.7493 25.5478L81.0019 26.2122ZM81.2016 26.1631C81.119 26.6939 80.9393 27.1373 80.6713 27.5059L81.48 28.0941C81.8519 27.5827 82.0856 26.9861 82.1897 26.3169L81.2016 26.1631ZM80.6713 27.5059C80.3982 27.8813 80.0523 28.1769 79.6272 28.3952L80.084 29.2848C80.6456 28.9964 81.113 28.5987 81.48 28.0941L80.6713 27.5059ZM79.632 28.3928C79.2293 28.5942 78.7673 28.7 78.2356 28.7V29.7C78.904 29.7 79.522 29.5658 80.0792 29.2872L79.632 28.3928ZM78.2356 28.7C77.4968 28.7 76.8507 28.5167 76.2829 28.1575L75.7483 29.0025C76.4872 29.47 77.3212 29.7 78.2356 29.7V28.7ZM76.2869 28.16C75.7335 27.8026 75.2845 27.284 74.9459 26.5826L74.0453 27.0174C74.4534 27.8626 75.0177 28.5307 75.7444 29L76.2869 28.16ZM74.9503 26.5919C74.6269 25.8854 74.4556 25.0199 74.4556 23.98H73.4556C73.4556 25.1268 73.6443 26.1413 74.041 27.0081L74.9503 26.5919ZM74.4556 23.98C74.4556 22.9272 74.6335 22.0741 74.9644 21.4005L74.0668 20.9595C73.6511 21.8059 73.4556 22.8195 73.4556 23.98H74.4556ZM74.9628 21.4036C75.3119 20.7055 75.7767 20.1944 76.3529 19.8487L75.8384 18.9913C75.0812 19.4456 74.4927 20.1079 74.0684 20.9564L74.9628 21.4036ZM76.3591 19.845C76.9423 19.4834 77.5968 19.3 78.3356 19.3V18.3C77.4211 18.3 76.5823 18.53 75.8322 18.995L76.3591 19.845ZM78.3356 19.3C78.8739 19.3 79.3443 19.4163 79.7579 19.6399L80.2334 18.7601C79.6603 18.4504 79.024 18.3 78.3356 18.3V19.3ZM79.7672 19.6448C80.1817 19.8576 80.5249 20.1653 80.7996 20.5773L81.6317 20.0226C81.2664 19.4747 80.7963 19.0491 80.224 18.7552L79.7672 19.6448ZM80.8033 20.5828C81.0767 20.9815 81.2582 21.4491 81.3413 21.9952L82.3299 21.8448C82.2264 21.1643 81.9946 20.5518 81.628 20.0172L80.8033 20.5828ZM81.5928 21.4829L81.2328 21.6829L81.7184 22.5571L82.0784 22.3571L81.5928 21.4829ZM81.9748 22.1488L82.1548 19.0288L81.1565 18.9712L80.9765 22.0912L81.9748 22.1488ZM81.6556 19.5H84.1156V18.5H81.6556V19.5ZM83.6156 19V33.2H84.6156V19H83.6156ZM84.1156 32.7H81.3756V33.7H84.1156V32.7ZM79.0356 27.6C79.6028 27.6 80.1187 27.4568 80.5602 27.1511L79.991 26.3289C79.7392 26.5032 79.4285 26.6 79.0356 26.6V27.6ZM80.5706 27.1437C81.0052 26.8261 81.3244 26.3844 81.5399 25.8457L80.6114 25.4743C80.4535 25.869 80.2394 26.1472 79.9806 26.3363L80.5706 27.1437ZM81.5372 25.8523C81.7682 25.2979 81.8756 24.663 81.8756 23.96H80.8756C80.8756 24.5636 80.7831 25.0621 80.6141 25.4677L81.5372 25.8523ZM81.8756 23.96C81.8756 23.2465 81.769 22.613 81.5331 22.0782L80.6182 22.4818C80.7822 22.8536 80.8756 23.3401 80.8756 23.96H81.8756ZM81.538 22.0896C81.3201 21.5605 80.995 21.133 80.5492 20.8415L80.002 21.6785C80.2496 21.8404 80.4578 22.0929 80.6133 22.4704L81.538 22.0896ZM80.5602 20.8489C80.1211 20.5449 79.6127 20.4 79.0556 20.4V21.4C79.4319 21.4 79.7368 21.4951 79.991 21.6711L80.5602 20.8489ZM79.0556 20.4C78.1833 20.4 77.4545 20.726 76.9252 21.3877L77.7061 22.0123C78.0301 21.6073 78.4613 21.4 79.0556 21.4V20.4ZM76.9242 21.3889C76.412 22.0332 76.1956 22.9301 76.1956 24H77.1956C77.1956 23.0432 77.3925 22.4068 77.707 22.0111L76.9242 21.3889ZM76.1956 24C76.1956 25.0712 76.4126 25.971 76.9204 26.6263L77.7108 26.0137C77.392 25.6023 77.1956 24.9555 77.1956 24H76.1956ZM76.9242 26.6311C77.4431 27.2839 78.1679 27.6 79.0356 27.6V26.6C78.4366 26.6 78.0148 26.3961 77.707 26.0089L76.9242 26.6311ZM88.6747 28.84L88.4695 29.296L88.4695 29.296L88.6747 28.84ZM87.3947 27.7L86.9612 27.9492L86.965 27.9557L86.9689 27.962L87.3947 27.7ZM86.9347 19V18.5H86.4347V19H86.9347ZM89.6747 19H90.1747V18.5H89.6747V19ZM90.1547 26.6L89.8086 26.9611L89.8168 26.9686L90.1547 26.6ZM92.3547 26.9L92.5199 27.3719L92.5302 27.3683L92.5404 27.3642L92.3547 26.9ZM93.0547 26.42L92.7011 26.0664L92.6954 26.0721L92.6899 26.078L93.0547 26.42ZM93.5547 25.6L94.0252 25.7694L94.0272 25.7636L93.5547 25.6ZM93.7347 19V18.5H93.2347V19H93.7347ZM96.4747 19H96.9747V18.5H96.4747V19ZM96.4747 29V29.5H96.9747V29H96.4747ZM94.0347 29L93.5355 29.0287L93.5626 29.5H94.0347V29ZM93.9347 27.26L94.4339 27.2313L94.3263 25.3588L93.4875 27.0364L93.9347 27.26ZM92.5547 28.74L92.7905 29.1809L92.7941 29.1789L92.5547 28.74ZM90.4747 28.7C89.8689 28.7 89.3403 28.5912 88.8799 28.384L88.4695 29.296C89.0758 29.5688 89.7472 29.7 90.4747 29.7V28.7ZM88.8799 28.384C88.442 28.187 88.0905 27.8767 87.8205 27.438L86.9689 27.962C87.3389 28.5633 87.8407 29.013 88.4695 29.296L88.8799 28.384ZM87.8281 27.4508C87.5782 27.016 87.4347 26.4232 87.4347 25.64H86.4347C86.4347 26.5368 86.5979 27.3173 86.9612 27.9492L87.8281 27.4508ZM87.4347 25.64V19H86.4347V25.64H87.4347ZM86.9347 19.5H89.6747V18.5H86.9347V19.5ZM89.1747 19V24.98H90.1747V19H89.1747ZM89.1747 24.98C89.1747 25.795 89.3383 26.5101 89.8087 26.961L90.5006 26.239C90.3311 26.0765 90.1747 25.7117 90.1747 24.98H89.1747ZM89.8168 26.9686C90.2593 27.3741 90.8577 27.54 91.5347 27.54V26.54C91.0117 26.54 90.6901 26.4125 90.4925 26.2314L89.8168 26.9686ZM91.5347 27.54C91.8714 27.54 92.2006 27.4837 92.5199 27.3719L92.1895 26.4281C91.9754 26.503 91.7579 26.54 91.5347 26.54V27.54ZM92.5404 27.3642C92.8762 27.2299 93.1704 27.0277 93.4195 26.762L92.6899 26.078C92.539 26.239 92.3665 26.3568 92.169 26.4358L92.5404 27.3642ZM93.4082 26.7736C93.6819 26.4999 93.8845 26.16 94.0251 25.7694L93.0842 25.4306C92.9849 25.7067 92.8541 25.9135 92.7011 26.0664L93.4082 26.7736ZM94.0272 25.7636C94.1696 25.3522 94.2347 24.8879 94.2347 24.38H93.2347C93.2347 24.8054 93.1798 25.1545 93.0822 25.4364L94.0272 25.7636ZM94.2347 24.38V19H93.2347V24.38H94.2347ZM93.7347 19.5H96.4747V18.5H93.7347V19.5ZM95.9747 19V29H96.9747V19H95.9747ZM96.4747 28.5H94.0347V29.5H96.4747V28.5ZM94.5339 28.9713L94.4339 27.2313L93.4355 27.2887L93.5355 29.0287L94.5339 28.9713ZM93.4875 27.0364C93.1943 27.6227 92.8021 28.0355 92.3153 28.3011L92.7941 29.1789C93.4806 28.8045 94.0084 28.2306 94.3819 27.4836L93.4875 27.0364ZM92.3189 28.2991C91.8341 28.5584 91.226 28.7 90.4747 28.7V29.7C91.35 29.7 92.1287 29.5349 92.7905 29.1809L92.3189 28.2991ZM101.238 28.58L101.002 29.021L101.005 29.0226L101.238 28.58ZM99.438 26.8L99.8758 26.5585L99.8758 26.5585L99.438 26.8ZM99.438 21.2L99.8758 21.4415L99.8758 21.4415L99.438 21.2ZM101.218 19.42L100.982 18.979L100.979 18.9808L101.218 19.42ZM106.438 19.42L106.186 19.8516L106.192 19.8551L106.438 19.42ZM108.058 21.08L107.616 21.3136L107.618 21.317L108.058 21.08ZM108.538 24.86V25.36H108.972L109.033 24.9307L108.538 24.86ZM100.558 24.86H100.058V25.36H100.558V24.86ZM100.558 22.96V22.46H100.058V22.96H100.558ZM107.338 22.96L107.509 23.4299L107.338 22.46V22.96ZM106.018 23.44H105.518V24.1538L106.189 23.9099L106.018 23.44ZM105.438 21.5L105.052 21.8179L105.058 21.8245L105.438 21.5ZM102.518 21.18L102.248 20.7594L102.241 20.764L102.518 21.18ZM101.698 22.26L102.162 22.4457L102.164 22.4412L101.698 22.26ZM101.718 25.8L101.258 25.997L101.262 26.005L101.266 26.0129L101.718 25.8ZM102.598 26.82L102.338 27.2474L102.345 27.2513L102.598 26.82ZM106.238 25.88L106.418 25.4134L105.994 25.2501L105.791 25.6564L106.238 25.88ZM108.418 26.72L108.881 26.9098L109.074 26.4371L108.598 26.2534L108.418 26.72ZM107.438 28.06L107.114 27.6787L107.109 27.6837L107.438 28.06ZM105.898 28.92L106.05 29.3965L106.056 29.3943L105.898 28.92ZM103.998 28.7C103.011 28.7 102.173 28.5066 101.471 28.1374L101.005 29.0226C101.876 29.48 102.879 29.7 103.998 29.7V28.7ZM101.474 28.139C100.786 27.7716 100.256 27.2478 99.8758 26.5585L99.0002 27.0415C99.4732 27.8988 100.143 28.5617 101.002 29.021L101.474 28.139ZM99.8758 26.5585C99.4985 25.8747 99.298 25.0287 99.298 24H98.298C98.298 25.158 98.5241 26.1786 99.0002 27.0415L99.8758 26.5585ZM99.298 24C99.298 22.9713 99.4985 22.1253 99.8758 21.4415L99.0002 20.9585C98.5241 21.8214 98.298 22.842 98.298 24H99.298ZM99.8758 21.4415C100.257 20.7499 100.782 20.226 101.457 19.8592L100.979 18.9808C100.133 19.4407 99.4719 20.1035 99.0002 20.9585L99.8758 21.4415ZM101.454 19.861C102.146 19.491 102.943 19.3 103.858 19.3V18.3C102.8 18.3 101.837 18.5223 100.982 18.979L101.454 19.861ZM103.858 19.3C104.804 19.3 105.572 19.4926 106.186 19.8516L106.69 18.9884C105.891 18.5208 104.939 18.3 103.858 18.3V19.3ZM106.192 19.8551C106.817 20.2088 107.288 20.6928 107.616 21.3136L108.5 20.8464C108.081 20.0538 107.473 19.4312 106.684 18.9849L106.192 19.8551ZM107.618 21.317C107.947 21.9282 108.118 22.6381 108.118 23.46H109.118C109.118 22.4952 108.916 21.6184 108.498 20.8429L107.618 21.317ZM108.118 23.46C108.118 23.7184 108.112 23.9624 108.099 24.1923L109.097 24.2477C109.111 23.9976 109.118 23.7349 109.118 23.46H108.118ZM108.099 24.1923C108.086 24.4216 108.067 24.6201 108.043 24.7893L109.033 24.9307C109.062 24.7265 109.083 24.4984 109.097 24.2477L108.099 24.1923ZM108.538 24.36H100.558V25.36H108.538V24.36ZM101.058 24.86V22.96H100.058V24.86H101.058ZM100.558 23.46H107.338V22.46H100.558V23.46ZM107.167 22.4901L105.847 22.9701L106.189 23.9099L107.509 23.4299L107.167 22.4901ZM106.518 23.44C106.518 22.5293 106.309 21.7503 105.818 21.1755L105.058 21.8245C105.341 22.1564 105.518 22.6707 105.518 23.44H106.518ZM105.824 21.1821C105.338 20.5922 104.651 20.32 103.838 20.32V21.32C104.412 21.32 104.791 21.5012 105.052 21.8179L105.824 21.1821ZM103.838 20.32C103.249 20.32 102.713 20.4605 102.248 20.7594L102.788 21.6006C103.07 21.4195 103.413 21.32 103.838 21.32V20.32ZM102.241 20.764C101.78 21.0712 101.449 21.5216 101.232 22.0788L102.164 22.4412C102.321 22.0384 102.536 21.7688 102.795 21.596L102.241 20.764ZM101.234 22.0743C101.016 22.6197 100.918 23.2817 100.918 24.04H101.918C101.918 23.3583 102.007 22.8336 102.162 22.4457L101.234 22.0743ZM100.918 24.04C100.918 24.7896 101.023 25.4488 101.258 25.997L102.178 25.603C102.012 25.2179 101.918 24.7037 101.918 24.04H100.918ZM101.266 26.0129C101.514 26.5417 101.869 26.9625 102.338 27.2474L102.857 26.3926C102.58 26.2241 102.348 25.965 102.17 25.5871L101.266 26.0129ZM102.345 27.2513C102.822 27.5308 103.373 27.66 103.978 27.66V26.66C103.517 26.66 103.147 26.5625 102.851 26.3887L102.345 27.2513ZM103.978 27.66C104.625 27.66 105.2 27.5356 105.664 27.2431L105.132 26.3969C104.876 26.5577 104.505 26.66 103.978 26.66V27.66ZM105.664 27.2431C106.106 26.9652 106.446 26.581 106.685 26.1036L105.791 25.6564C105.629 25.979 105.41 26.2215 105.132 26.3969L105.664 27.2431ZM106.058 26.3466L108.238 27.1866L108.598 26.2534L106.418 25.4134L106.058 26.3466ZM107.955 26.5302C107.773 26.9742 107.495 27.3558 107.114 27.6787L107.761 28.4413C108.261 28.0176 108.636 27.5058 108.881 26.9098L107.955 26.5302ZM107.109 27.6837C106.737 28.0085 106.284 28.2642 105.74 28.4457L106.056 29.3943C106.712 29.1758 107.285 28.8581 107.767 28.4363L107.109 27.6837ZM105.746 28.4435C105.214 28.6131 104.632 28.7 103.998 28.7V29.7C104.724 29.7 105.409 29.6003 106.05 29.3965L105.746 28.4435Z" fill="#111827"/>
<path d="M133.5 20L145.5 17M133.5 29V16L145.5 13V26L133.5 29ZM133.5 29C133.5 30.105 132.157 31 130.5 31C128.843 31 127.5 30.105 127.5 29C127.5 27.895 128.843 27 130.5 27C132.157 27 133.5 27.895 133.5 29ZM145.5 26C145.5 27.105 144.157 28 142.5 28C140.843 28 139.5 27.105 139.5 26C139.5 24.895 140.843 24 142.5 24C144.157 24 145.5 24.895 145.5 26Z" stroke="#111827" stroke-width="2" stroke-linecap="round" stroke-linejoin="round"/>
<path d="M173.36 16.32L173.143 16.7706L173.15 16.7737L173.36 16.32ZM175.02 17.78L174.592 18.0386L174.599 18.049L175.02 17.78ZM175.02 22.36L174.596 22.095L174.594 22.0974L175.02 22.36ZM173.36 23.82L173.57 24.2738L173.577 24.2705L173.36 23.82ZM167.98 24.32V23.82H167.48V24.32H167.98ZM167.98 29V29.5H168.48V29H167.98ZM165.22 29H164.72V29.5H165.22V29ZM165.22 15.8V15.3H164.72V15.8H165.22ZM172.2 21.62L172.521 22.0032L172.528 21.997L172.2 21.62ZM172.2 18.5L172.521 18.1169L172.521 18.1169L172.2 18.5ZM167.98 17.98V17.48H167.48V17.98H167.98ZM167.98 22.14H167.48V22.64H167.98V22.14ZM170.76 16.3C171.718 16.3 172.506 16.4639 173.143 16.7705L173.577 15.8695C172.774 15.4827 171.829 15.3 170.76 15.3V16.3ZM173.15 16.7737C173.785 17.0679 174.26 17.4892 174.592 18.0386L175.448 17.5214C175.007 16.7908 174.375 16.2388 173.57 15.8663L173.15 16.7737ZM174.599 18.049C174.938 18.5804 175.12 19.2426 175.12 20.06H176.12C176.12 19.0908 175.902 18.2329 175.441 17.511L174.599 18.049ZM175.12 20.06C175.12 20.8771 174.938 21.5481 174.596 22.095L175.444 22.625C175.902 21.8919 176.12 21.0296 176.12 20.06H175.12ZM174.594 22.0974C174.262 22.6359 173.785 23.0606 173.143 23.3695L173.577 24.2705C174.375 23.8861 175.004 23.3374 175.446 22.6226L174.594 22.0974ZM173.15 23.3663C172.511 23.6619 171.72 23.82 170.76 23.82V24.82C171.826 24.82 172.769 24.6448 173.57 24.2737L173.15 23.3663ZM170.76 23.82H167.98V24.82H170.76V23.82ZM167.48 24.32V29H168.48V24.32H167.48ZM167.98 28.5H165.22V29.5H167.98V28.5ZM165.72 29V15.8H164.72V29H165.72ZM165.22 16.3H170.76V15.3H165.22V16.3ZM170.34 22.64C171.224 22.64 171.981 22.4564 172.521 22.0031L171.879 21.2369C171.593 21.4769 171.109 21.64 170.34 21.64V22.64ZM172.528 21.997C173.076 21.5199 173.32 20.8469 173.32 20.06H172.32C172.32 20.6331 172.15 21.0001 171.872 21.243L172.528 21.997ZM173.32 20.06C173.32 19.2643 173.079 18.5843 172.521 18.1169L171.879 18.8831C172.148 19.109 172.32 19.4691 172.32 20.06H173.32ZM172.521 18.1169C171.981 17.6636 171.224 17.48 170.34 17.48V18.48C171.109 18.48 171.593 18.6431 171.879 18.8831L172.521 18.1169ZM170.34 17.48H167.98V18.48H170.34V17.48ZM167.48 17.98V22.14H168.48V17.98H167.48ZM167.98 22.64H170.34V21.64H167.98V22.64ZM184.836 19.42L184.597 19.8593L184.6 19.861L184.836 19.42ZM186.636 21.2L186.198 21.4416L186.201 21.4473L186.636 21.2ZM186.636 26.8L186.199 26.5559L186.198 26.5585L186.636 26.8ZM184.836 28.58L184.6 28.139L184.597 28.1408L184.836 28.58ZM179.516 28.58L179.751 28.139L179.751 28.139L179.516 28.58ZM177.696 26.8L177.256 27.0384L177.261 27.0473L177.696 26.8ZM177.696 21.2L177.261 20.9527L177.258 20.9585L177.696 21.2ZM179.516 19.42L179.751 19.861L179.751 19.861L179.516 19.42ZM180.876 21.2L181.149 21.6185L181.153 21.616L180.876 21.2ZM180.076 22.24L179.612 22.0543L179.612 22.0543L180.076 22.24ZM180.076 25.76L179.612 25.9457L179.612 25.9457L180.076 25.76ZM180.876 26.82L180.591 27.2311L180.6 27.2373L180.609 27.2431L180.876 26.82ZM183.436 26.82L183.709 27.2385L183.713 27.236L183.436 26.82ZM184.256 25.76L184.72 25.9457L184.72 25.9457L184.256 25.76ZM184.256 22.24L184.72 22.0543L184.72 22.0543L184.256 22.24ZM183.436 21.2L183.151 21.6111L183.16 21.6173L183.169 21.6231L183.436 21.2ZM182.176 19.3C183.12 19.3 183.922 19.4921 184.597 19.8592L185.075 18.9808C184.23 18.5212 183.258 18.3 182.176 18.3V19.3ZM184.6 19.861C185.288 20.2284 185.818 20.7522 186.198 21.4415L187.074 20.9585C186.601 20.1012 185.931 19.4383 185.071 18.979L184.6 19.861ZM186.201 21.4473C186.59 22.1298 186.796 22.9737 186.796 24H187.796C187.796 22.8397 187.562 21.8169 187.07 20.9527L186.201 21.4473ZM186.796 24C186.796 25.0115 186.59 25.8573 186.199 26.5559L187.072 27.0441C187.561 26.1693 187.796 25.1485 187.796 24H186.796ZM186.198 26.5585C185.818 27.2478 185.288 27.7716 184.6 28.139L185.071 29.021C185.931 28.5617 186.601 27.8988 187.074 27.0415L186.198 26.5585ZM184.597 28.1408C183.922 28.5079 183.12 28.7 182.176 28.7V29.7C183.258 29.7 184.23 29.4788 185.075 29.0192L184.597 28.1408ZM182.176 28.7C181.246 28.7 180.443 28.5085 179.751 28.139L179.28 29.021C180.136 29.4782 181.105 29.7 182.176 29.7V28.7ZM179.751 28.139C179.063 27.7709 178.524 27.2453 178.13 26.5527L177.261 27.0473C177.747 27.9014 178.422 28.5624 179.28 29.021L179.751 28.139ZM178.135 26.5616C177.756 25.8618 177.556 25.0139 177.556 24H176.556C176.556 25.1461 176.782 26.1648 177.256 27.0384L178.135 26.5616ZM177.556 24C177.556 22.9713 177.756 22.1253 178.134 21.4415L177.258 20.9585C176.782 21.8214 176.556 22.842 176.556 24H177.556ZM178.13 21.4473C178.524 20.7547 179.063 20.2291 179.751 19.861L179.28 18.979C178.422 19.4376 177.747 20.0986 177.261 20.9527L178.13 21.4473ZM179.751 19.861C180.443 19.4915 181.246 19.3 182.176 19.3V18.3C181.105 18.3 180.136 18.5218 179.28 18.979L179.751 19.861ZM182.176 20.34C181.588 20.34 181.054 20.4804 180.598 20.784L181.153 21.616C181.418 21.4396 181.751 21.34 182.176 21.34V20.34ZM180.602 20.7815C180.153 21.0754 179.828 21.513 179.612 22.0543L180.54 22.4257C180.697 22.0337 180.906 21.7779 181.149 21.6185L180.602 20.7815ZM179.612 22.0543C179.394 22.5988 179.296 23.2536 179.296 24H180.296C180.296 23.333 180.384 22.8146 180.54 22.4257L179.612 22.0543ZM179.296 24C179.296 24.7464 179.394 25.4012 179.612 25.9457L180.54 25.5743C180.384 25.1854 180.296 24.667 180.296 24H179.296ZM179.612 25.9457C179.828 26.4857 180.149 26.9252 180.591 27.2311L181.16 26.4089C180.909 26.2348 180.697 25.9676 180.54 25.5743L179.612 25.9457ZM180.609 27.2431C181.063 27.5289 181.593 27.66 182.176 27.66V26.66C181.745 26.66 181.408 26.5644 181.142 26.3969L180.609 27.2431ZM182.176 27.66C182.747 27.66 183.267 27.5278 183.709 27.2385L183.162 26.4015C182.911 26.5655 182.591 26.66 182.176 26.66V27.66ZM183.713 27.236C184.17 26.9313 184.502 26.4907 184.72 25.9457L183.792 25.5743C183.636 25.9627 183.421 26.2287 183.158 26.404L183.713 27.236ZM184.72 25.9457C184.938 25.4012 185.036 24.7464 185.036 24H184.036C184.036 24.667 183.947 25.1854 183.792 25.5743L184.72 25.9457ZM185.036 24C185.036 23.2536 184.938 22.5988 184.72 22.0543L183.792 22.4257C183.947 22.8146 184.036 23.333 184.036 24H185.036ZM184.72 22.0543C184.501 21.5079 184.167 21.0695 183.702 20.7769L183.169 21.6231C183.425 21.7838 183.637 22.0388 183.792 22.4257L184.72 22.0543ZM183.72 20.7889C183.277 20.4817 182.753 20.34 182.176 20.34V21.34C182.585 21.34 182.902 21.4383 183.151 21.6111L183.72 20.7889ZM189.588 33.2H189.088V33.7H189.588V33.2ZM189.588 19V18.5H189.088V19H189.588ZM192.048 19L192.548 18.9717L192.521 18.5H192.048V19ZM192.228 22.18L191.865 22.5233L192.805 23.5187L192.728 22.1517L192.228 22.18ZM191.888 21.82L191.399 21.7198L191.347 21.9744L191.525 22.1633L191.888 21.82ZM192.548 20.26L192.146 19.9637L192.14 19.9717L192.548 20.26ZM193.808 19.2L194.032 19.6473L194.041 19.6425L193.808 19.2ZM199.188 21.2L198.735 21.4111L198.74 21.4205L199.188 21.2ZM199.188 26.8L199.639 27.0174L199.64 27.0144L199.188 26.8ZM197.648 28.58L197.381 28.1574L197.377 28.16L197.648 28.58ZM193.248 28.46L192.922 28.839L192.927 28.8427L193.248 28.46ZM192.068 26.6L191.643 26.3368L191.527 26.5248L191.588 26.7374L192.068 26.6ZM192.328 26.18H192.828V24.4224L191.903 25.9168L192.328 26.18ZM192.328 33.2V33.7H192.828V33.2H192.328ZM196.368 26.32L195.978 26.0077L195.977 26.0089L196.368 26.32ZM196.388 21.7L195.988 22.0001L195.997 22.0111L196.388 21.7ZM193.448 21.28L193.733 21.6911L193.736 21.6889L193.448 21.28ZM192.628 22.34L193.086 22.5418L193.088 22.537L192.628 22.34ZM192.608 25.66L192.144 25.8457L192.144 25.8457L192.608 25.66ZM193.408 26.74L193.113 27.1437L193.122 27.1501L193.131 27.156L193.408 26.74ZM190.088 33.2V19H189.088V33.2H190.088ZM189.588 19.5H192.048V18.5H189.588V19.5ZM191.549 19.0283L191.729 22.2083L192.728 22.1517L192.548 18.9717L191.549 19.0283ZM192.592 21.8367L192.252 21.4767L191.525 22.1633L191.865 22.5233L192.592 21.8367ZM192.378 21.9202C192.486 21.3958 192.68 20.9409 192.957 20.5483L192.14 19.9717C191.777 20.4858 191.531 21.0709 191.399 21.7198L192.378 21.9202ZM192.951 20.5562C193.237 20.1671 193.596 19.8654 194.032 19.6472L193.585 18.7528C193.008 19.0413 192.526 19.4462 192.146 19.9638L192.951 20.5562ZM194.041 19.6425C194.47 19.4171 194.955 19.3 195.508 19.3V18.3C194.808 18.3 194.161 18.4496 193.576 18.7575L194.041 19.6425ZM195.508 19.3C196.232 19.3 196.864 19.4825 197.417 19.84L197.96 19C197.233 18.5309 196.411 18.3 195.508 18.3V19.3ZM197.417 19.84C197.969 20.1963 198.41 20.7126 198.735 21.411L199.642 20.989C199.247 20.1408 198.688 19.4704 197.96 19L197.417 19.84ZM198.74 21.4205C199.071 22.0949 199.248 22.9416 199.248 23.98H200.248C200.248 22.8317 200.053 21.8251 199.637 20.9795L198.74 21.4205ZM199.248 23.98C199.248 25.0176 199.071 25.8808 198.737 26.5856L199.64 27.0144C200.052 26.1459 200.248 25.1291 200.248 23.98H199.248ZM198.738 26.5826C198.401 27.2814 197.947 27.7995 197.381 28.1575L197.916 29.0025C198.657 28.5338 199.229 27.8652 199.639 27.0174L198.738 26.5826ZM197.377 28.16C196.825 28.5167 196.187 28.7 195.448 28.7V29.7C196.363 29.7 197.192 29.47 197.92 29L197.377 28.16ZM195.448 28.7C194.668 28.7 194.054 28.4838 193.57 28.0773L192.927 28.8427C193.617 29.4229 194.469 29.7 195.448 29.7V28.7ZM193.575 28.081C193.077 27.6532 192.736 27.118 192.549 26.4626L191.588 26.7374C191.827 27.5753 192.273 28.2802 192.922 28.839L193.575 28.081ZM192.494 26.8632L192.754 26.4432L191.903 25.9168L191.643 26.3368L192.494 26.8632ZM191.828 26.18V33.2H192.828V26.18H191.828ZM192.328 32.7H189.588V33.7H192.328V32.7ZM194.648 27.6C195.516 27.6 196.241 27.2839 196.76 26.6311L195.977 26.0089C195.669 26.3961 195.247 26.6 194.648 26.6V27.6ZM196.759 26.6323C197.284 25.9764 197.508 25.074 197.508 24H196.508C196.508 24.9526 196.307 25.5969 195.978 26.0077L196.759 26.6323ZM197.508 24C197.508 22.9301 197.292 22.0332 196.78 21.3889L195.997 22.0111C196.312 22.4068 196.508 23.0432 196.508 24H197.508ZM196.788 21.4C196.284 20.7269 195.561 20.4 194.688 20.4V21.4C195.283 21.4 195.693 21.6064 195.988 22L196.788 21.4ZM194.688 20.4C194.125 20.4 193.61 20.5548 193.161 20.8711L193.736 21.6889C194.007 21.4985 194.318 21.4 194.688 21.4V20.4ZM193.164 20.8689C192.725 21.1724 192.398 21.6077 192.169 22.143L193.088 22.537C193.259 22.1389 193.478 21.8676 193.733 21.6911L193.164 20.8689ZM192.171 22.1382C191.936 22.6719 191.828 23.2982 191.828 24H192.828C192.828 23.3951 192.921 22.9148 193.086 22.5418L192.171 22.1382ZM191.828 24C191.828 24.6869 191.928 25.3063 192.144 25.8457L193.073 25.4743C192.915 25.0804 192.828 24.5931 192.828 24H191.828ZM192.144 25.8457C192.36 26.3844 192.679 26.8261 193.113 27.1437L193.703 26.3363C193.445 26.1472 193.231 25.869 193.073 25.4743L192.144 25.8457ZM193.131 27.156C193.58 27.4551 194.091 27.6 194.648 27.6V26.6C194.272 26.6 193.957 26.5049 193.686 26.324L193.131 27.156Z" fill="#111827"/>
</svg>
